<?xml version="1.0" encoding="utf-8"?>
<!-- Generator: Adobe Illustrator 25.4.1, SVG Export Plug-In . SVG Version: 6.00 Build 0)  -->
<svg version="1.1" id="Capa_1" xmlns="http://www.w3.org/2000/svg" xmlns:xlink="http://www.w3.org/1999/xlink" x="0px" y="0px"
	 viewBox="0 0 256 256" style="enable-background:new 0 0 256 256;" xml:space="preserve">
<style type="text/css">
	.st0{fill:#62CAC2;}
</style>
<path class="st0" d="M229,124.6l13.2,12.1l13.5-14.7L229,97.5V28.8V12V8.8h-60v3h-0.2v30.4L129.1,5.6l-0.9-0.9l-0.1,0.1L128,4.7
	l-0.9,0.9L0.5,122L14,136.7l14-12.8V231H7v20h242v-20h-20V124.6z M48,130h161v20H48V130z M48,105.5l17.9-16.5h124.4l18.7,17.2v3.8
	H48V105.5z M87.7,69.1l40.4-37.1l40.4,37.1H87.7z M168,170h41v21h-41V170z M48,170h40v21H48V170z M108,170h40v61h-40V170z M168,211
	h41v20h-41V211z M188.8,28.8H209v50.3l-20.2-18.5V28.8z M48,211h40v20H48V211z"/>
</svg>
