<svg width="26" height="24" viewBox="0 0 26 24" fill="none" xmlns="http://www.w3.org/2000/svg">
<path d="M18.1411 5.81101L18.1412 5.81092L18.1392 5.80917L18.1384 5.80836L13.3932 1.06282L13.3931 1.06278C13.2888 0.958616 13.1475 0.9 12.9999 0.9C12.8523 0.9 12.7111 0.958636 12.6067 1.06275L12.6067 1.06282L7.86018 5.8093L7.86012 5.80937L7.8599 5.80958L7.85984 5.80964L1.2582 12.4113C1.04103 12.6285 1.041 12.9806 1.25822 13.1977L1.25824 13.1977C1.47551 13.4148 1.82731 13.4148 2.04458 13.1977L2.04462 13.1977L5.18289 10.0593H20.8163L23.9544 13.1977L23.9544 13.1977C24.063 13.3062 24.2055 13.3605 24.3476 13.3605C24.4898 13.3605 24.6323 13.3061 24.7408 13.1978L24.7409 13.1977C24.9582 12.9805 24.9582 12.6285 24.741 12.4113L21.4414 9.11147C21.4411 9.11116 21.4396 9.10966 21.4376 9.10776L18.1422 5.81211L18.1411 5.81101ZM9.59576 5.64664L12.9999 2.24249L16.4039 5.64664H9.59576ZM17.516 6.75878L19.7043 8.94727H6.29522L8.48371 6.75878H17.516Z" fill="white" stroke="white" stroke-width="0.2"/>
<path d="M21.8022 16.6611C22.1093 16.6611 22.3583 16.412 22.3583 16.105C22.3583 15.798 22.1093 15.5489 21.8022 15.5489H15.2003H10.7994H4.19826C3.89123 15.5489 3.64219 15.798 3.64219 16.105C3.64219 16.412 3.89123 16.6611 4.19826 16.6611H10.2433V18.8495H4.19826C3.89123 18.8495 3.64219 19.0985 3.64219 19.4055C3.64219 19.7126 3.89123 19.9616 4.19826 19.9616H10.2433V22.1502H4.19826C3.89123 22.1502 3.64219 22.3992 3.64219 22.7063C3.64219 23.0133 3.89123 23.2623 4.19826 23.2623H10.7994H15.2003H21.8022C22.1093 23.2623 22.3583 23.0133 22.3583 22.7063C22.3583 22.3992 22.1093 22.1502 21.8022 22.1502H15.7564V19.9616H21.8022C22.1093 19.9616 22.3583 19.7126 22.3583 19.4055C22.3583 19.0985 22.1093 18.8495 21.8022 18.8495H15.7564V16.6611H21.8022ZM14.6443 22.1502H11.3554V16.6612H14.6443V22.1502Z" fill="white" stroke="white" stroke-width="0.2"/>
<path d="M21.8022 12.2486H4.19826C3.89123 12.2486 3.64219 12.4977 3.64219 12.8047C3.64219 13.1117 3.89123 13.3608 4.19826 13.3608H21.8022C22.1093 13.3608 22.3583 13.1117 22.3583 12.8047C22.3583 12.4977 22.1093 12.2486 21.8022 12.2486Z" fill="white" stroke="white" stroke-width="0.2"/>
</svg>
