<svg width="78" height="68" viewBox="0 0 78 68" fill="none" xmlns="http://www.w3.org/2000/svg">
<path d="M40.9607 54.2127H36.1418C35.8223 54.2127 35.5159 54.3396 35.2899 54.5656C35.064 54.7915 34.9371 55.0979 34.9371 55.4174V60.2363C34.9371 60.5558 35.064 60.8623 35.2899 61.0882C35.5159 61.3141 35.8223 61.4411 36.1418 61.4411H40.9607C41.2802 61.4411 41.5866 61.3141 41.8126 61.0882C42.0385 60.8623 42.1654 60.5558 42.1654 60.2363V55.4174C42.1654 55.0979 42.0385 54.7915 41.8126 54.5656C41.5866 54.3396 41.2802 54.2127 40.9607 54.2127ZM39.756 59.0316H37.3465V56.6222H39.756V59.0316ZM31.3229 54.2127H26.504C26.1845 54.2127 25.878 54.3396 25.6521 54.5656C25.4262 54.7915 25.2993 55.0979 25.2993 55.4174V60.2363C25.2993 60.5558 25.4262 60.8623 25.6521 61.0882C25.878 61.3141 26.1845 61.4411 26.504 61.4411H31.3229C31.6424 61.4411 31.9488 61.3141 32.1748 61.0882C32.4007 60.8623 32.5276 60.5558 32.5276 60.2363V55.4174C32.5276 55.0979 32.4007 54.7915 32.1748 54.5656C31.9488 54.3396 31.6424 54.2127 31.3229 54.2127ZM30.1182 59.0316H27.7087V56.6222H30.1182V59.0316ZM21.6851 54.2127H16.8662C16.5467 54.2127 16.2402 54.3396 16.0143 54.5656C15.7884 54.7915 15.6614 55.0979 15.6614 55.4174V60.2363C15.6614 60.5558 15.7884 60.8623 16.0143 61.0882C16.2402 61.3141 16.5467 61.4411 16.8662 61.4411H21.6851C22.0046 61.4411 22.311 61.3141 22.5369 61.0882C22.7629 60.8623 22.8898 60.5558 22.8898 60.2363V55.4174C22.8898 55.0979 22.7629 54.7915 22.5369 54.5656C22.311 54.3396 22.0046 54.2127 21.6851 54.2127ZM20.4804 59.0316H18.0709V56.6222H20.4804V59.0316ZM12.0473 54.2127H7.22836C6.90885 54.2127 6.60242 54.3396 6.37649 54.5656C6.15056 54.7915 6.02363 55.0979 6.02363 55.4174V60.2363C6.02363 60.5558 6.15056 60.8623 6.37649 61.0882C6.60242 61.3141 6.90885 61.4411 7.22836 61.4411H12.0473C12.3668 61.4411 12.6732 61.3141 12.8991 61.0882C13.1251 60.8623 13.252 60.5558 13.252 60.2363V55.4174C13.252 55.0979 13.1251 54.7915 12.8991 54.5656C12.6732 54.3396 12.3668 54.2127 12.0473 54.2127ZM10.8425 59.0316H8.43309V56.6222H10.8425V59.0316ZM42.1654 45.7796C42.1654 45.4601 42.0385 45.1537 41.8126 44.9277C41.5866 44.7018 41.2802 44.5749 40.9607 44.5749H36.1418C35.8223 44.5749 35.5159 44.7018 35.2899 44.9277C35.064 45.1537 34.9371 45.4601 34.9371 45.7796V50.5985C34.9371 50.918 35.064 51.2245 35.2899 51.4504C35.5159 51.6763 35.8223 51.8032 36.1418 51.8032H40.9607C41.2802 51.8032 41.5866 51.6763 41.8126 51.4504C42.0385 51.2245 42.1654 50.918 42.1654 50.5985V45.7796ZM39.756 49.3938H37.3465V46.9843H39.756V49.3938ZM32.5276 45.7796C32.5276 45.4601 32.4007 45.1537 32.1748 44.9277C31.9488 44.7018 31.6424 44.5749 31.3229 44.5749H26.504C26.1845 44.5749 25.878 44.7018 25.6521 44.9277C25.4262 45.1537 25.2993 45.4601 25.2993 45.7796V50.5985C25.2993 50.918 25.4262 51.2245 25.6521 51.4504C25.878 51.6763 26.1845 51.8032 26.504 51.8032H31.3229C31.6424 51.8032 31.9488 51.6763 32.1748 51.4504C32.4007 51.2245 32.5276 50.918 32.5276 50.5985V45.7796ZM30.1182 49.3938H27.7087V46.9843H30.1182V49.3938ZM22.8898 45.7796C22.8898 45.4601 22.7629 45.1537 22.5369 44.9277C22.311 44.7018 22.0046 44.5749 21.6851 44.5749H16.8662C16.5467 44.5749 16.2402 44.7018 16.0143 44.9277C15.7884 45.1537 15.6614 45.4601 15.6614 45.7796V50.5985C15.6614 50.918 15.7884 51.2245 16.0143 51.4504C16.2402 51.6763 16.5467 51.8032 16.8662 51.8032H21.6851C22.0046 51.8032 22.311 51.6763 22.5369 51.4504C22.7629 51.2245 22.8898 50.918 22.8898 50.5985V45.7796ZM20.4804 49.3938H18.0709V46.9843H20.4804V49.3938ZM13.252 45.7796C13.252 45.4601 13.1251 45.1537 12.8991 44.9277C12.6732 44.7018 12.3668 44.5749 12.0473 44.5749H7.22836C6.90885 44.5749 6.60242 44.7018 6.37649 44.9277C6.15056 45.1537 6.02363 45.4601 6.02363 45.7796V50.5985C6.02363 50.918 6.15056 51.2245 6.37649 51.4504C6.60242 51.6763 6.90885 51.8032 7.22836 51.8032H12.0473C12.3668 51.8032 12.6732 51.6763 12.8991 51.4504C13.1251 51.2245 13.252 50.918 13.252 50.5985V45.7796ZM10.8425 49.3938H8.43309V46.9843H10.8425V49.3938ZM42.1654 36.1418C42.1654 35.8223 42.0385 35.5159 41.8126 35.2899C41.5866 35.064 41.2802 34.9371 40.9607 34.9371H36.1418C35.8223 34.9371 35.5159 35.064 35.2899 35.2899C35.064 35.5159 34.9371 35.8223 34.9371 36.1418V40.9607C34.9371 41.2802 35.064 41.5866 35.2899 41.8126C35.5159 42.0385 35.8223 42.1654 36.1418 42.1654H40.9607C41.2802 42.1654 41.5866 42.0385 41.8126 41.8126C42.0385 41.5866 42.1654 41.2802 42.1654 40.9607V36.1418ZM39.756 39.756H37.3465V37.3465H39.756V39.756ZM50.5985 34.9371C50.918 34.9371 51.2245 35.064 51.4504 35.2899C51.6763 35.5159 51.8032 35.8223 51.8032 36.1418C51.8032 36.4613 51.6763 36.7677 51.4504 36.9937C51.2245 37.2196 50.918 37.3465 50.5985 37.3465H46.9843V40.9607C46.9843 41.2802 46.8574 41.5866 46.6315 41.8126C46.4056 42.0385 46.0991 42.1654 45.7796 42.1654C45.4601 42.1654 45.1537 42.0385 44.9277 41.8126C44.7018 41.5866 44.5749 41.2802 44.5749 40.9607V36.1418C44.5749 35.8223 44.7018 35.5159 44.9277 35.2899C45.1537 35.064 45.4601 34.9371 45.7796 34.9371H50.5985ZM32.5276 36.1418C32.5276 35.8223 32.4007 35.5159 32.1748 35.2899C31.9488 35.064 31.6424 34.9371 31.3229 34.9371H26.504C26.1845 34.9371 25.878 35.064 25.6521 35.2899C25.4262 35.5159 25.2993 35.8223 25.2993 36.1418V40.9607C25.2993 41.2802 25.4262 41.5866 25.6521 41.8126C25.878 42.0385 26.1845 42.1654 26.504 42.1654H31.3229C31.6424 42.1654 31.9488 42.0385 32.1748 41.8126C32.4007 41.5866 32.5276 41.2802 32.5276 40.9607V36.1418ZM30.1182 39.756H27.7087V37.3465H30.1182V39.756ZM22.8898 36.1418C22.8898 35.8223 22.7629 35.5159 22.5369 35.2899C22.311 35.064 22.0046 34.9371 21.6851 34.9371H16.8662C16.5467 34.9371 16.2402 35.064 16.0143 35.2899C15.7884 35.5159 15.6614 35.8223 15.6614 36.1418V40.9607C15.6614 41.2802 15.7884 41.5866 16.0143 41.8126C16.2402 42.0385 16.5467 42.1654 16.8662 42.1654H21.6851C22.0046 42.1654 22.311 42.0385 22.5369 41.8126C22.7629 41.5866 22.8898 41.2802 22.8898 40.9607V36.1418ZM20.4804 39.756H18.0709V37.3465H20.4804V39.756ZM13.252 36.1418C13.252 35.8223 13.1251 35.5159 12.8991 35.2899C12.6732 35.064 12.3668 34.9371 12.0473 34.9371H7.22836C6.90885 34.9371 6.60242 35.064 6.37649 35.2899C6.15056 35.5159 6.02363 35.8223 6.02363 36.1418V40.9607C6.02363 41.2802 6.15056 41.5866 6.37649 41.8126C6.60242 42.0385 6.90885 42.1654 7.22836 42.1654H12.0473C12.3668 42.1654 12.6732 42.0385 12.8991 41.8126C13.1251 41.5866 13.252 41.2802 13.252 40.9607V36.1418ZM10.8425 39.756H8.43309V37.3465H10.8425V39.756ZM69.8741 32.5276H7.22836C6.90885 32.5276 6.60242 32.4007 6.37649 32.1748C6.15056 31.9488 6.02363 31.6424 6.02363 31.3229C6.02363 31.0034 6.15056 30.6969 6.37649 30.471C6.60242 30.2451 6.90885 30.1182 7.22836 30.1182H69.8741C70.1937 30.1182 70.5001 30.2451 70.726 30.471C70.9519 30.6969 71.0789 31.0034 71.0789 31.3229C71.0789 31.6424 70.9519 31.9488 70.726 32.1748C70.5001 32.4007 70.1937 32.5276 69.8741 32.5276ZM6.02363 26.504C6.02363 26.1845 6.15056 25.878 6.37649 25.6521C6.60242 25.4262 6.90885 25.2993 7.22836 25.2993H12.0473C12.3668 25.2993 12.6732 25.4262 12.8991 25.6521C13.1251 25.878 13.252 26.1845 13.252 26.504C13.252 26.8235 13.1251 27.1299 12.8991 27.3559C12.6732 27.5818 12.3668 27.7087 12.0473 27.7087H7.22836C6.90885 27.7087 6.60242 27.5818 6.37649 27.3559C6.15056 27.1299 6.02363 26.8235 6.02363 26.504ZM16.8662 27.7087C16.5467 27.7087 16.2402 27.5818 16.0143 27.3559C15.7884 27.1299 15.6614 26.8235 15.6614 26.504C15.6614 26.1845 15.7884 25.878 16.0143 25.6521C16.2402 25.4262 16.5467 25.2993 16.8662 25.2993H21.6851C22.0046 25.2993 22.311 25.4262 22.5369 25.6521C22.7629 25.878 22.8898 26.1845 22.8898 26.504C22.8898 26.8235 22.7629 27.1299 22.5369 27.3559C22.311 27.5818 22.0046 27.7087 21.6851 27.7087H16.8662ZM26.504 27.7087C26.1845 27.7087 25.878 27.5818 25.6521 27.3559C25.4262 27.1299 25.2993 26.8235 25.2993 26.504C25.2993 26.1845 25.4262 25.878 25.6521 25.6521C25.878 25.4262 26.1845 25.2993 26.504 25.2993H31.3229C31.6424 25.2993 31.9488 25.4262 32.1748 25.6521C32.4007 25.878 32.5276 26.1845 32.5276 26.504C32.5276 26.8235 32.4007 27.1299 32.1748 27.3559C31.9488 27.5818 31.6424 27.7087 31.3229 27.7087H26.504ZM36.1418 27.7087C35.8223 27.7087 35.5159 27.5818 35.2899 27.3559C35.064 27.1299 34.9371 26.8235 34.9371 26.504C34.9371 26.1845 35.064 25.878 35.2899 25.6521C35.5159 25.4262 35.8223 25.2993 36.1418 25.2993H40.9607C41.2802 25.2993 41.5866 25.4262 41.8126 25.6521C42.0385 25.878 42.1654 26.1845 42.1654 26.504C42.1654 26.8235 42.0385 27.1299 41.8126 27.3559C41.5866 27.5818 41.2802 27.7087 40.9607 27.7087H36.1418ZM45.7796 27.7087C45.4601 27.7087 45.1537 27.5818 44.9277 27.3559C44.7018 27.1299 44.5749 26.8235 44.5749 26.504C44.5749 26.1845 44.7018 25.878 44.9277 25.6521C45.1537 25.4262 45.4601 25.2993 45.7796 25.2993H50.5985C50.918 25.2993 51.2245 25.4262 51.4504 25.6521C51.6763 25.878 51.8032 26.1845 51.8032 26.504C51.8032 26.8235 51.6763 27.1299 51.4504 27.3559C51.2245 27.5818 50.918 27.7087 50.5985 27.7087H45.7796ZM55.4174 27.7087C55.0979 27.7087 54.7915 27.5818 54.5656 27.3559C54.3396 27.1299 54.2127 26.8235 54.2127 26.504C54.2127 26.1845 54.3396 25.878 54.5656 25.6521C54.7915 25.4262 55.0979 25.2993 55.4174 25.2993H60.2363C60.5558 25.2993 60.8623 25.4262 61.0882 25.6521C61.3141 25.878 61.4411 26.1845 61.4411 26.504C61.4411 26.8235 61.3141 27.1299 61.0882 27.3559C60.8623 27.5818 60.5558 27.7087 60.2363 27.7087H55.4174ZM71.0789 26.504C71.0789 26.8235 70.9519 27.1299 70.726 27.3559C70.5001 27.5818 70.1937 27.7087 69.8741 27.7087H65.0552C64.7357 27.7087 64.4293 27.5818 64.2034 27.3559C63.9774 27.1299 63.8505 26.8235 63.8505 26.504C63.8505 26.1845 63.9774 25.878 64.2034 25.6521C64.4293 25.4262 64.7357 25.2993 65.0552 25.2993H69.8741C70.1937 25.2993 70.5001 25.4262 70.726 25.6521C70.9519 25.878 71.0789 26.1845 71.0789 26.504ZM69.8741 7.22836H68.6694V4.81891C68.6694 3.54085 68.1617 2.31515 67.258 1.41142C66.3543 0.507705 65.1286 0 63.8505 0C62.5725 0 61.3467 0.507705 60.443 1.41142C59.5393 2.31515 59.0316 3.54085 59.0316 4.81891V7.22836H51.8032V4.81891C51.8032 3.54085 51.2955 2.31515 50.3918 1.41142C49.4881 0.507705 48.2624 0 46.9843 0C45.7063 0 44.4806 0.507705 43.5769 1.41142C42.6731 2.31515 42.1654 3.54085 42.1654 4.81891V7.22836H34.9371V4.81891C34.9371 3.54085 34.4294 2.31515 33.5256 1.41142C32.6219 0.507705 31.3962 0 30.1182 0C28.8401 0 27.6144 0.507705 26.7107 1.41142C25.807 2.31515 25.2993 3.54085 25.2993 4.81891V7.22836H18.0709V4.81891C18.0709 3.54085 17.5632 2.31515 16.6595 1.41142C15.7558 0.507705 14.53 0 13.252 0C11.9739 0 10.7482 0.507705 9.84451 1.41142C8.94079 2.31515 8.43309 3.54085 8.43309 4.81891V7.22836H7.22836C5.31187 7.23027 3.47442 7.99244 2.11925 9.34761C0.764085 10.7028 0.00191362 12.5402 0 14.4567L0 60.2363C0.00191362 62.1528 0.764085 63.9903 2.11925 65.3454C3.47442 66.7006 5.31187 67.4628 7.22836 67.4647H61.4411C64.9528 67.4628 68.3619 66.28 71.1203 64.1066C73.8787 61.9331 75.8261 58.8952 76.6494 55.4813C77.4726 52.0674 77.124 48.4758 75.6595 45.284C74.195 42.0922 71.6998 39.4855 68.5749 37.8831C65.45 36.2808 61.877 35.7757 58.4305 36.4493C54.9839 37.1228 51.8639 38.9357 49.5722 41.5966C47.2804 44.2575 45.95 47.6118 45.7948 51.1201C45.6397 54.6285 46.6688 58.0871 48.7167 60.9399C48.9033 61.1993 49.1853 61.374 49.5007 61.4255C49.8161 61.4771 50.1391 61.4012 50.3985 61.2146C50.658 61.028 50.8327 60.746 50.8842 60.4306C50.9357 60.1152 50.8598 59.7922 50.6732 59.5328C48.9389 57.1176 48.0673 54.1894 48.1984 51.2189C48.3295 48.2485 49.4557 45.4084 51.396 43.1554C53.3363 40.9025 55.9779 39.3674 58.8961 38.7972C61.8142 38.227 64.8393 38.6547 67.485 40.0116C70.1307 41.3685 72.2432 43.5757 73.4828 46.2783C74.7225 48.9809 75.0172 52.0218 74.3196 54.9122C73.6221 57.8025 71.9728 60.3743 69.6369 62.214C67.3011 64.0537 64.4144 65.0544 61.4411 65.0552H7.22836C5.95031 65.0552 4.7246 64.5475 3.82088 63.6438C2.91716 62.7401 2.40945 61.5144 2.40945 60.2363V21.6851H74.693V37.3465C74.693 37.666 74.82 37.9725 75.0459 38.1984C75.2718 38.4243 75.5783 38.5513 75.8978 38.5513C76.2173 38.5513 76.5237 38.4243 76.7496 38.1984C76.9756 37.9725 77.1025 37.666 77.1025 37.3465V14.4567C77.1006 12.5402 76.3384 10.7028 74.9833 9.34761C73.6281 7.99244 71.7906 7.23027 69.8741 7.22836ZM61.4411 4.81891C61.4411 4.17988 61.6949 3.56703 62.1468 3.11517C62.5986 2.66331 63.2115 2.40945 63.8505 2.40945C64.4895 2.40945 65.1024 2.66331 65.5543 3.11517C66.0061 3.56703 66.26 4.17988 66.26 4.81891V12.0473C66.26 12.6863 66.0061 13.2991 65.5543 13.751C65.1024 14.2029 64.4895 14.4567 63.8505 14.4567C63.2115 14.4567 62.5986 14.2029 62.1468 13.751C61.6949 13.2991 61.4411 12.6863 61.4411 12.0473V4.81891ZM44.5749 4.81891C44.5749 4.17988 44.8287 3.56703 45.2806 3.11517C45.7325 2.66331 46.3453 2.40945 46.9843 2.40945C47.6234 2.40945 48.2362 2.66331 48.6881 3.11517C49.1399 3.56703 49.3938 4.17988 49.3938 4.81891V12.0473C49.3938 12.6863 49.1399 13.2991 48.6881 13.751C48.2362 14.2029 47.6234 14.4567 46.9843 14.4567C46.3453 14.4567 45.7325 14.2029 45.2806 13.751C44.8287 13.2991 44.5749 12.6863 44.5749 12.0473V4.81891ZM27.7087 4.81891C27.7087 4.17988 27.9626 3.56703 28.4144 3.11517C28.8663 2.66331 29.4791 2.40945 30.1182 2.40945C30.7572 2.40945 31.37 2.66331 31.8219 3.11517C32.2738 3.56703 32.5276 4.17988 32.5276 4.81891V12.0473C32.5276 12.6863 32.2738 13.2991 31.8219 13.751C31.37 14.2029 30.7572 14.4567 30.1182 14.4567C29.4791 14.4567 28.8663 14.2029 28.4144 13.751C27.9626 13.2991 27.7087 12.6863 27.7087 12.0473V4.81891ZM10.8425 4.81891C10.8425 4.17988 11.0964 3.56703 11.5483 3.11517C12.0001 2.66331 12.613 2.40945 13.252 2.40945C13.891 2.40945 14.5039 2.66331 14.9557 3.11517C15.4076 3.56703 15.6614 4.17988 15.6614 4.81891V12.0473C15.6614 12.6863 15.4076 13.2991 14.9557 13.751C14.5039 14.2029 13.891 14.4567 13.252 14.4567C12.613 14.4567 12.0001 14.2029 11.5483 13.751C11.0964 13.2991 10.8425 12.6863 10.8425 12.0473V4.81891ZM2.40945 19.2756V14.4567C2.40945 13.1787 2.91716 11.953 3.82088 11.0492C4.7246 10.1455 5.95031 9.63781 7.22836 9.63781H8.43309V12.0473C8.43309 13.3253 8.94079 14.551 9.84451 15.4547C10.7482 16.3585 11.9739 16.8662 13.252 16.8662C14.53 16.8662 15.7558 16.3585 16.6595 15.4547C17.5632 14.551 18.0709 13.3253 18.0709 12.0473V9.63781H25.2993V12.0473C25.2993 13.3253 25.807 14.551 26.7107 15.4547C27.6144 16.3585 28.8401 16.8662 30.1182 16.8662C31.3962 16.8662 32.6219 16.3585 33.5256 15.4547C34.4294 14.551 34.9371 13.3253 34.9371 12.0473V9.63781H42.1654V12.0473C42.1654 13.3253 42.6731 14.551 43.5769 15.4547C44.4806 16.3585 45.7063 16.8662 46.9843 16.8662C48.2624 16.8662 49.4881 16.3585 50.3918 15.4547C51.2955 14.551 51.8032 13.3253 51.8032 12.0473V9.63781H59.0316V12.0473C59.0316 13.3253 59.5393 14.551 60.443 15.4547C61.3467 16.3585 62.5725 16.8662 63.8505 16.8662C65.1286 16.8662 66.3543 16.3585 67.258 15.4547C68.1617 14.551 68.6694 13.3253 68.6694 12.0473V9.63781H69.8741C71.1522 9.63781 72.3779 10.1455 73.2816 11.0492C74.1853 11.953 74.693 13.1787 74.693 14.4567V19.2756H2.40945ZM58.1799 57.4739L53.361 52.655C53.1415 52.4278 53.0201 52.1235 53.0228 51.8076C53.0256 51.4917 53.1523 51.1895 53.3756 50.9662C53.599 50.7428 53.9012 50.6161 54.217 50.6134C54.5329 50.6106 54.8372 50.732 55.0644 50.9515L59.0316 54.9187L67.8177 46.1326C68.0449 45.9131 68.3492 45.7917 68.6651 45.7945C68.981 45.7972 69.2831 45.9239 69.5065 46.1473C69.7299 46.3706 69.8565 46.6728 69.8593 46.9887C69.862 47.3045 69.7406 47.6089 69.5212 47.8361L59.8833 57.4739C59.6574 57.6997 59.3511 57.8266 59.0316 57.8266C58.7122 57.8266 58.4058 57.6997 58.1799 57.4739Z" fill="#FFFEFE"/>
</svg>
