<?xml version="1.0" encoding="utf-8"?>
<!-- Generator: Adobe Illustrator 25.4.1, SVG Export Plug-In . SVG Version: 6.00 Build 0)  -->
<svg version="1.1" id="Layer_1" xmlns="http://www.w3.org/2000/svg" xmlns:xlink="http://www.w3.org/1999/xlink" x="0px" y="0px"
	 viewBox="0 0 30 30" style="enable-background:new 0 0 30 30;" xml:space="preserve">
<style type="text/css">
	.st0{fill:#62CAC2;}
</style>
<rect x="2" y="15" class="st0" width="26" height="10"/>
<g>
	<path class="st0" d="M28,27c-0.6,0-1-0.4-1-1V15c0-0.6,0.4-1,1-1s1,0.4,1,1v11C29,26.6,28.6,27,28,27z"/>
</g>
<g>
	<path class="st0" d="M2,27c-0.6,0-1-0.4-1-1V15c0-0.6,0.4-1,1-1s1,0.4,1,1v11C3,26.6,2.6,27,2,27z"/>
</g>
<path class="st0" d="M25,4H5C3.9,4,3,4.9,3,6v7h2v-2c0-0.6,0.4-1,1-1h7c0.6,0,1,0.4,1,1v2h2v-2c0-0.6,0.4-1,1-1h7c0.6,0,1,0.4,1,1v2
	h2V6C27,4.9,26.1,4,25,4z"/>
</svg>
