<?xml version="1.0" encoding="utf-8"?>
<!-- Generator: Adobe Illustrator 25.4.1, SVG Export Plug-In . SVG Version: 6.00 Build 0)  -->
<svg version="1.1" id="Layer_1" xmlns="http://www.w3.org/2000/svg" xmlns:xlink="http://www.w3.org/1999/xlink" x="0px" y="0px"
	 viewBox="0 0 30 30" style="enable-background:new 0 0 30 30;" xml:space="preserve">
<style type="text/css">
	.st0{fill:#26CCC3;}
</style>
<g>
	<path class="st0" d="M28,14c-0.6,0-1,0.4-1,1H3c0-0.6-0.4-1-1-1s-1,0.4-1,1v11c0,0.6,0.4,1,1,1s1-0.4,1-1v-1h24v1c0,0.6,0.4,1,1,1
		s1-0.4,1-1V15C29,14.4,28.6,14,28,14z"/>
	<path class="st0" d="M5,11c0-0.6,0.4-1,1-1h7c0.6,0,1,0.4,1,1v2h2v-2c0-0.6,0.4-1,1-1h7c0.6,0,1,0.4,1,1v2h2V6c0-1.1-0.9-2-2-2H5
		C3.9,4,3,4.9,3,6v7h2V11z"/>
</g>
</svg>
