<svg width="21" height="24" viewBox="0 0 21 24" fill="none" xmlns="http://www.w3.org/2000/svg">
<path d="M0 5V24H2V5C2 3.3501 3.35 2 5 2H10C11.34 2 12.47 2.8799 12.86 4.0801C13.23 4.03 13.61 4 14 4C14.31 4 14.61 4.02 14.91 4.0601C14.47 1.75 12.4401 0 10 0H5C2.24 0 0 2.24 0 5Z" fill="white"/>
<path d="M21 12C21 11.45 20.55 11 20 11H19.91C19.4401 8.1599 16.97 6 14 6C11.03 6 8.56 8.1599 8.09 11H8C7.4501 11 7 11.45 7 12C7 12.5501 7.4501 13 8 13H20C20.55 13 21 12.5501 21 12Z" fill="white"/>
<path d="M14.9998 16C14.9998 15.4473 14.552 15 13.9998 15C13.4476 15 12.9998 15.4473 12.9998 16V17.5C12.9998 18.0527 13.4476 18.5 13.9998 18.5C14.552 18.5 14.9998 18.0527 14.9998 17.5V16Z" fill="white"/>
<path d="M13.9998 20.5C13.4476 20.5 12.9998 20.9473 12.9998 21.5V23C12.9998 23.5527 13.4476 24 13.9998 24C14.552 24 14.9998 23.5527 14.9998 23V21.5C14.9998 20.9473 14.552 20.5 13.9998 20.5Z" fill="white"/>
<path d="M17.9998 18.5C18.552 18.5 18.9998 18.0527 18.9998 17.5V16C18.9998 15.4473 18.552 15 17.9998 15C17.4476 15 16.9998 15.4473 16.9998 16V17.5C16.9998 18.0527 17.4476 18.5 17.9998 18.5Z" fill="white"/>
<path d="M16.9998 23C16.9998 23.5527 17.4476 24 17.9998 24C18.552 24 18.9998 23.5527 18.9998 23V21.5C18.9998 20.9473 18.552 20.5 17.9998 20.5C17.4476 20.5 16.9998 20.9473 16.9998 21.5V23Z" fill="white"/>
<path d="M10.9998 16C10.9998 15.4473 10.552 15 9.99982 15C9.44762 15 8.99982 15.4473 8.99982 16V17.5C8.99982 18.0527 9.44762 18.5 9.99982 18.5C10.552 18.5 10.9998 18.0527 10.9998 17.5V16Z" fill="white"/>
<path d="M9.99982 20.5C9.44762 20.5 8.99982 20.9473 8.99982 21.5V23C8.99982 23.5527 9.44762 24 9.99982 24C10.552 24 10.9998 23.5527 10.9998 23V21.5C10.9998 20.9473 10.552 20.5 9.99982 20.5Z" fill="white"/>
</svg>
