<?xml version="1.0" encoding="utf-8"?>
<!-- Generator: Adobe Illustrator 25.4.1, SVG Export Plug-In . SVG Version: 6.00 Build 0)  -->
<svg version="1.1" id="Icons" xmlns="http://www.w3.org/2000/svg" xmlns:xlink="http://www.w3.org/1999/xlink" x="0px" y="0px"
	 viewBox="0 0 32 32" style="enable-background:new 0 0 32 32;" xml:space="preserve">
<style type="text/css">
	.st0{fill:#62CAC2;}
</style>
<path class="st0" d="M19.1,6.7c0.9,0,1.7,0.3,2.4,0.9L12.3,16c-0.5-0.6-0.7-1.4-0.7-2.3c0-0.9,0.4-1.8,1.1-2.4l4-3.7
	C17.4,7,18.2,6.7,19.1,6.7 M19.1,4.1c-1.5,0-3,0.5-4.1,1.6l-4,3.7c-2.5,2.3-2.7,6.2-0.4,8.7l1.5,1.7L25.2,7.7l-1.5-1.7
	C22.5,4.7,20.8,4.1,19.1,4.1L19.1,4.1z"/>
<g>
	<g>
		<rect x="17.7" y="19" transform="matrix(0.7389 -0.6738 0.6738 0.7389 -10.3072 18.7204)" class="st0" width="2.6" height="7.4"/>
	</g>
	<g>
		<rect x="22" y="15.1" transform="matrix(0.7389 -0.6738 0.6738 0.7389 -6.572 20.5791)" class="st0" width="2.6" height="7.4"/>
	</g>
	<g>
		
			<rect x="26.2" y="11.2" transform="matrix(0.7389 -0.6738 0.6738 0.7389 -2.8368 22.4377)" class="st0" width="2.6" height="7.4"/>
	</g>
</g>
<path class="st0" d="M15.5,7.7c0,0-0.9-0.9-2.7-2.7C10.7,3,7.9,2.4,5.3,3.5C2.5,4.6,0.6,7.6,0.6,11v21.2h3.3V11c0-2,1-3.8,2.7-4.4
	C7.9,6,9.3,6.3,10.4,7.4c1.9,1.9,2.8,2.8,2.8,2.8l0.2,0.2l2.3-2.5L15.5,7.7z"/>
</svg>
