<?xml version="1.0" encoding="utf-8"?>
<!-- Generator: Adobe Illustrator 26.0.2, SVG Export Plug-In . SVG Version: 6.00 Build 0)  -->
<svg version="1.1" id="Icons" xmlns="http://www.w3.org/2000/svg" xmlns:xlink="http://www.w3.org/1999/xlink" x="0px" y="0px"
	 viewBox="0 0 32 32" style="enable-background:new 0 0 32 32;" xml:space="preserve">
<style type="text/css">
	.st0{fill:#62CAC2;}
</style>
<path class="st0" d="M22.4,18c0-1.6-0.6-2.8-2-3.7V5.8h0.1c0.9,0,1.7-0.7,1.7-1.7c0-0.8-0.7-1.6-1.7-1.6H2.1c-0.9,0-1.7,0.7-1.7,1.7
	s0.7,1.7,1.7,1.7h0.1v8.5c-1.4,0.9-2,2.1-2,3.6c0,3.7,2.2,6.9,5.6,8.7c0,0,0,0,0,0L5,29.3c-0.5,1.4,0.3,2.5,1.7,2.5h4.6h0.2H16
	c1.4-0.1,2.1-1.2,1.7-2.5l-0.8-2.6c0,0,0,0,0,0C20.1,25,22.4,21.8,22.4,18z M5.5,6.2H7c0.6,0,1,0.5,1,1s-0.5,1-1,1H5.5
	c-0.6,0-1-0.5-1-1S5,6.2,5.5,6.2z M11.3,18.7c-4.5,0-8.1-0.9-8.1-2c0-1.1,3.6-2,8.1-2s8.1,0.9,8.1,2C19.4,17.8,15.8,18.7,11.3,18.7z
	"/>
<path class="st0" d="M29.7,8.4V5.6c0-0.6-0.5-1-1-1c-0.6,0-1,0.5-1,1v2.8h-1.6V5.6c0-0.6-0.5-1-1-1c-0.6,0-1,0.5-1,1v2.8h-1.5v2.3
	c0,0,0,0.1,0,0.1c0,2.4,2,4.4,4.4,4.4c2.4,0,4.4-2,4.4-4.4c0,0,0-0.1,0-0.1V8.4H29.7z"/>
<path class="st0" d="M25.8,11.1v5.3c0,2.6-2.1,4.7-4.7,4.7h-2v2h2c3.7,0,6.7-3,6.7-6.7v-5.3H25.8z"/>
</svg>
