<?xml version="1.0" encoding="utf-8"?>
<!-- Generator: Adobe Illustrator 25.4.1, SVG Export Plug-In . SVG Version: 6.00 Build 0)  -->
<svg version="1.1" id="Icons" xmlns="http://www.w3.org/2000/svg" xmlns:xlink="http://www.w3.org/1999/xlink" x="0px" y="0px"
	 viewBox="0 0 32 32" style="enable-background:new 0 0 32 32;" xml:space="preserve">
<style type="text/css">
	.st0{fill:#62CAC2;}
</style>
<path class="st0" d="M22.8,29l-0.9-2.8c-0.5-1.5-1.7-2.7-2.6-2.7h-3.2h-0.2h-3.2c-1,0-2.2,1.2-2.6,2.7L9.2,29
	c-0.5,1.5,0.3,2.7,1.8,2.7h4.9h0.2H21C22.5,31.6,23.3,30.4,22.8,29z"/>
<path class="st0" d="M16,11.2c-8.7,0-11.9,2-11.9,5.7c0,5.9,5.3,10.7,11.9,10.7s11.9-4.8,11.9-10.7C27.9,13,24.7,11.2,16,11.2z
	 M16,17.6c-4.8,0-8.7-1-8.7-2.2s3.9-2.2,8.7-2.2s8.7,1,8.7,2.2S20.8,17.6,16,17.6z"/>
<path class="st0" d="M25.9,0.3H6.1c-1,0-1.8,0.8-1.8,1.8c0,1,0.8,1.8,1.8,1.8h0.1v10.9h0.5c0.4-1.7,4.4-3,9.3-3s8.9,1.3,9.3,3h0.5
	V3.8h0.1c1,0,1.8-0.8,1.8-1.8C27.7,1.1,26.9,0.3,25.9,0.3z M11.4,6.4H9.8c-0.6,0-1.1-0.5-1.1-1.1s0.5-1.1,1.1-1.1h1.6
	c0.6,0,1.1,0.5,1.1,1.1S12,6.4,11.4,6.4z"/>
</svg>
