<svg width="70" height="70" viewBox="0 0 70 70" fill="none" xmlns="http://www.w3.org/2000/svg">
<g filter="url(#filter0_d_291_167)">
<circle cx="35" cy="31" r="25" fill="#62CAC2"/>
<path d="M23.5 27.3693L25.875 20.1523M18.75 33.1428H39.9667C40.7503 33.1431 41.5218 32.9666 42.2124 32.6292C42.9031 32.2917 43.4914 31.8037 43.925 31.2087L48.8333 24.4825H38.9692C38.1607 24.4835 37.3599 24.6256 36.61 24.9011L30.9733 26.9507C30.2235 27.2262 29.4227 27.3683 28.6142 27.3693H22.7083H21.125L18.75 33.1428Z" stroke="white" stroke-width="2" stroke-linecap="round" stroke-linejoin="round"/>
<path d="M23.5 20.1523H36.1667L39.3333 24.4825" stroke="white" stroke-width="2" stroke-linecap="round" stroke-linejoin="round"/>
</g>
<path d="M43.8924 45.2176C42.3892 45.2195 40.9219 44.8 39.6536 44.0153L37.2347 46.4414C37.2344 46.4417 37.2341 46.4419 37.2338 46.4422C37.0584 46.6188 36.8498 46.759 36.6201 46.8548C36.3899 46.9506 36.1431 47 35.8938 47C35.6444 47 35.3976 46.9506 35.1674 46.8548C34.9386 46.7594 34.7307 46.6199 34.5557 46.4443C34.3801 46.2693 34.2406 46.0615 34.1452 45.8326C34.0494 45.6024 34 45.3556 34 45.1062C34 44.8569 34.0494 44.6101 34.1452 44.3799C34.2409 44.1504 34.3809 43.942 34.5572 43.7668C34.5577 43.7663 34.5582 43.7658 34.5586 43.7653L36.9847 41.3464C36.2001 40.0783 35.7806 38.6112 35.7824 37.1082C35.7825 35.5046 36.258 33.9371 37.1489 32.6038C38.0399 31.2703 39.3064 30.231 40.7881 29.6173C42.2698 29.0035 43.9002 28.8429 45.4731 29.1558C47.0461 29.4687 48.4909 30.241 49.625 31.375C50.759 32.5091 51.5313 33.9539 51.8442 35.5269C52.1571 37.0998 51.9965 38.7302 51.3827 40.2119C50.769 41.6936 49.7297 42.9601 48.3962 43.8511C47.0631 44.7418 45.4958 45.2174 43.8924 45.2176ZM43.8924 45.2176L43.8912 44.2176M43.8924 45.2176C43.892 45.2176 43.8916 45.2176 43.8912 45.2176V44.2176M43.8912 44.2176C45.2972 44.2176 46.6716 43.8007 47.8406 43.0196C49.0097 42.2385 49.9208 41.1282 50.4589 39.8293C50.9969 38.5303 51.1377 37.1009 50.8634 35.722C50.5891 34.343 49.9121 33.0763 48.9179 32.0821C47.9237 31.0879 46.657 30.4109 45.278 30.1366C43.8991 29.8623 42.4697 30.0031 41.1707 30.5411C39.8718 31.0792 38.7615 31.9903 37.9804 33.1594C37.1993 34.3284 36.7824 35.7028 36.7824 37.1088L39.537 42.7159C40.7789 43.6907 42.3124 44.2196 43.8912 44.2176ZM48.2228 37.1088C48.2228 36.2521 47.9687 35.4146 47.4928 34.7023C47.0168 33.99 46.3403 33.4348 45.5488 33.1069C44.7573 32.7791 43.8864 32.6933 43.0461 32.8604C42.2059 33.0276 41.434 33.4401 40.8283 34.0459C40.2225 34.6517 39.8099 35.4235 39.6428 36.2638C39.4757 37.104 39.5614 37.975 39.8893 38.7665C40.2171 39.558 40.7723 40.2345 41.4847 40.7104C42.197 41.1864 43.0345 41.4404 43.8912 41.4404C45.04 41.4404 46.1418 40.9841 46.9541 40.1717C47.7664 39.3594 48.2228 38.2576 48.2228 37.1088Z" fill="white" stroke="#62CAC2" stroke-width="2"/>
<defs>
<filter id="filter0_d_291_167" x="0" y="0" width="70" height="70" filterUnits="userSpaceOnUse" color-interpolation-filters="sRGB">
<feFlood flood-opacity="0" result="BackgroundImageFix"/>
<feColorMatrix in="SourceAlpha" type="matrix" values="0 0 0 0 0 0 0 0 0 0 0 0 0 0 0 0 0 0 127 0" result="hardAlpha"/>
<feOffset dy="4"/>
<feGaussianBlur stdDeviation="5"/>
<feComposite in2="hardAlpha" operator="out"/>
<feColorMatrix type="matrix" values="0 0 0 0 0 0 0 0 0 0 0 0 0 0 0 0 0 0 0.25 0"/>
<feBlend mode="normal" in2="BackgroundImageFix" result="effect1_dropShadow_291_167"/>
<feBlend mode="normal" in="SourceGraphic" in2="effect1_dropShadow_291_167" result="shape"/>
</filter>
</defs>
</svg>
