<svg width="25" height="27" viewBox="0 0 25 27" fill="none" xmlns="http://www.w3.org/2000/svg">
<path d="M2 2V11H5V2H2ZM1 0H6C6.55228 0 7 0.447715 7 1V12C7 12.5523 6.55228 13 6 13H1C0.447715 13 0 12.5523 0 12V1C0 0.447715 0.447715 0 1 0Z" fill="white"/>
<path d="M5 26.0254C4.44772 26.0254 4 25.5777 4 25.0254C4 24.4731 4.44772 24.0254 5 24.0254H11.9951C12.5474 24.0254 12.9951 24.4731 12.9951 25.0254C12.9951 25.5777 12.5474 26.0254 11.9951 26.0254H5Z" fill="white"/>
<path d="M7 24.0001H9.97935V19.5751L12.0789 19.6798C15.9596 19.8733 18.7053 19.3167 20.3305 18.1303C21.4745 17.2951 22.272 15.9454 22.6948 14H7V24.0001ZM13.9794 21.6773L13.9403 21.7145C13.3149 21.7237 12.6612 21.7113 11.9794 21.6773V23.5801L11.8798 23.6748C11.913 23.6765 11.9462 23.6781 11.9794 23.6797V26.0001H5V12L23.8808 12.0001C24.4331 12.0001 24.8808 12.4478 24.8808 13C24.8808 13.0436 24.878 13.0871 24.8723 13.1302C24.4695 16.1981 23.3486 18.4032 21.5098 19.7456C19.7857 21.0042 17.2756 21.6603 13.9794 21.7138V21.6773Z" fill="white"/>
<path d="M9 11.0278C8.44772 11.0278 8 10.5801 8 10.0278C8 9.47555 8.44772 9.02783 9 9.02783H22C22.5523 9.02783 23 9.47555 23 10.0278C23 10.5801 22.5523 11.0278 22 11.0278H9Z" fill="white"/>
</svg>
