<?xml version="1.0" encoding="utf-8"?>
<!-- Generator: Adobe Illustrator 24.1.0, SVG Export Plug-In . SVG Version: 6.00 Build 0)  -->
<svg version="1.1" id="layer" xmlns="http://www.w3.org/2000/svg" xmlns:xlink="http://www.w3.org/1999/xlink" x="0px" y="0px"
	 viewBox="0 0 633 283" style="enable-background:new 0 0 633 283;" xml:space="preserve">
<style type="text/css">
	.st0{fill:#0059A3;}
	.st1{fill:#004A8B;}
	.st2{fill:#005EAD;}
</style>
<g>
	<path class="st0" d="M46.6,6H2.2v77.9C16,80.7,30.8,77.7,46.6,75C46.6,75,46.6,6,46.6,6z"/>
	<path class="st1" d="M2.2,158.7h44.4v-53.2c-16,4.5-30.8,9.1-44.4,13.9C2.2,119.4,2.2,158.7,2.2,158.7z"/>
</g>
<g>
	<path class="st1" d="M122.6,104.4v54.4H167v-54.4l18.2-26.1c-26.1,3.3-50.3,7.2-72.7,11.7L122.6,104.4z"/>
	<path class="st0" d="M235.8,6h-49.5l-33.1,55.8c14.8-1.3,30.1-2.5,46.1-3.5L235.8,6z"/>
	<path class="st0" d="M108.4,6H53.8l43.1,61.7c14.5-1.8,29.7-3.4,45.6-4.9L108.4,6z"/>
	<path class="st1" d="M319.5,68.4c-26.9,0.7-52.4,2.1-76.5,4v86.3h90.1c48.5,0,63.3-22,63.3-42.7c0-19.5-15.2-34.1-38.9-36.2v-0.4
		c8.8-2.2,16.2-6.1,21.7-11.4C360.3,67.8,340.3,67.9,319.5,68.4 M326,130.4h-39.8V95.5h41.9c11,0,22.6,4.9,22.6,17.6
		C350.7,126.6,339.9,130.4,326,130.4"/>
	<path class="st0" d="M286.2,34.3h31.3c17.1,0,26.7,4.2,26.7,16.9c0,0.4,0,0.8-0.1,1.2c15.5-0.2,30.4-0.1,44.6,0.2
		c0.8-2.9,1.2-5.9,1.2-9c0-19.5-16.3-37.7-56.9-37.7h-90v49.7c14-0.7,28.4-1.3,43.2-1.8V34.3z"/>
	<path class="st0" d="M552.9,64.1L522.8,6h-53.1L444,54.5c56,2.8,92,7.4,92.5,7.5L552.9,64.1z"/>
	<path class="st0" d="M438.5,128.5H538l14.4,30.3h49.7l-45-86.7l-19.7,5.1C536.8,77.3,490.8,89.8,438.5,128.5"/>
	<path class="st1" d="M435.9,69.6l-38.6,72.8c38.7-35.9,77.6-57,103.9-68.5C484.5,72.5,462.2,70.8,435.9,69.6"/>
	<rect x="2.3" y="180" class="st2" width="4.3" height="38.2"/>
	<polygon class="st2" points="21.5,188.8 51.3,219.9 51.3,180 47.1,180 47.1,209.6 17.3,178.4 17.3,218.2 21.5,218.2 	"/>
	<polygon class="st2" points="72.1,218.2 72.1,184 81.4,184 81.4,180 58.6,180 58.6,184 67.8,184 67.8,218.2 	"/>
	<polygon class="st2" points="108.3,184 108.3,180 88.4,180 88.4,218.2 108.3,218.2 108.3,214.3 92.7,214.3 92.7,199.3 107.8,199.3 
		107.8,195.3 92.7,195.3 92.7,184 	"/>
	<path class="st2" d="M137.7,190.6c0-8.6-6.7-10.5-14-10.5h-5.5v38.2h4.3v-16.8h1.1l11.6,16.8h5.2l-12.2-17.1
		C134,200.6,137.7,196.4,137.7,190.6 M122.5,197.7V184h1.3c5.1,0,9.7,0.6,9.7,6.9c0,5.9-4.9,6.8-9.7,6.8L122.5,197.7L122.5,197.7z"
		/>
	<polygon class="st2" points="182.7,219.9 182.7,180 178.4,180 178.4,209.6 148.6,178.4 148.6,218.2 152.9,218.2 152.9,188.8 	"/>
	<path class="st2" d="M215.3,207.4l4.5,10.8h4.7l-17.2-40l-17.6,40h4.7l4.6-10.8H215.3z M207.3,188.1l6.4,15.3h-12.9L207.3,188.1z"
		/>
	<polygon class="st2" points="237.5,218.2 237.5,184 246.8,184 246.8,180 224,180 224,184 233.2,184 233.2,218.2 	"/>
	<rect x="254" y="180" class="st2" width="4.3" height="38.2"/>
	<path class="st2" d="M306.6,199.2c0-10.9-9-19.8-19.9-19.8s-19.9,8.9-19.9,19.8c0,11,9,19.7,19.9,19.7
		C297.5,218.9,306.6,210.2,306.6,199.2 M271,199.1c0-8.7,6.9-15.8,15.7-15.8c8.8,0,15.7,7.1,15.7,15.8c0,8.6-7,15.8-15.7,15.8
		S271,207.7,271,199.1"/>
	<polygon class="st2" points="319.5,188.8 349.3,219.9 349.3,180 345.1,180 345.1,209.6 315.3,178.4 315.3,218.2 319.5,218.2 	"/>
	<path class="st2" d="M382,207.4l4.5,10.8h4.7l-17.2-40l-17.6,40h4.7l4.6-10.8H382z M374,188.1l6.4,15.3h-12.9L374,188.1z"/>
	<polygon class="st2" points="398.1,180 398.1,218.2 412.9,218.2 412.9,214.3 402.3,214.3 402.3,180 	"/>
	<polygon class="st2" points="451.4,218.2 451.4,201.8 463.9,180 459,180 449.3,197 439.5,180 434.6,180 447.1,201.8 447.1,218.2 	
		"/>
	<path class="st2" d="M472.5,207.4h16.3l4.5,10.8h4.7l-17.2-40l-17.6,40h4.7L472.5,207.4z M480.7,188.1l6.4,15.3h-12.9L480.7,188.1z
		"/>
	<path class="st2" d="M522.6,218.9c4.1,0,8.1-1.4,11.4-3.7v-5.3c-3,3-7.2,5.1-11.6,5.1c-8.6,0-15.5-7.4-15.5-15.8
		s6.9-15.8,15.4-15.8c4.4,0,8.6,1.9,11.7,5.1v-5.3c-3.4-2.5-7.1-3.7-11.4-3.7c-10.9,0-19.9,9-19.9,19.9
		C502.7,210.1,511.8,218.9,522.6,218.9"/>
	<polygon class="st2" points="572.2,218.2 572.2,180 567.9,180 567.9,195.5 548.3,195.5 548.3,180 544.1,180 544.1,218.2 
		548.3,218.2 548.3,199.5 567.9,199.5 567.9,218.2 	"/>
</g>
<g>
	<polygon class="st2" points="579.4,184 588.6,184 588.6,218.2 592.9,218.2 592.9,184 602.2,184 602.2,180 579.4,180 	"/>
	<path class="st2" d="M24.8,263.9c0-4.6-2.7-8.7-7.2-9.8c2.6-1.7,3.7-4.4,3.7-7.4c0-7.8-5.8-10.3-12.8-10.3H2.2v38.2h8.9
		C18.6,274.5,24.8,271.5,24.8,263.9 M6.5,240.2h1.7c5.2,0,8.9,0.6,8.9,6.4c0,5.9-4.1,6.5-8.9,6.5H6.6L6.5,240.2L6.5,240.2z
		 M10.7,270.5H6.4v-13.8h3.7c4.7,0,10.3,0.9,10.3,6.8C20.5,269.4,15.5,270.5,10.7,270.5"/>
</g>
<g>
	<path class="st2" d="M37.5,257.7h1.1l11.6,16.8h5.2l-12.2-17.1c5.9-0.5,9.6-4.7,9.6-10.5c0-8.6-6.7-10.5-14-10.5h-5.5v38.2h4.3
		L37.5,257.7L37.5,257.7z M37.5,240.2h1.3c5.1,0,9.7,0.6,9.7,6.9c0,5.9-4.9,6.8-9.7,6.8h-1.3V240.2z"/>
	<path class="st2" d="M81,235.6c-10.9,0-19.9,8.9-19.9,19.8c0,11,9,19.7,19.9,19.7s19.9-8.7,19.9-19.7
		C100.9,244.5,91.9,235.6,81,235.6 M81,271.2c-8.7,0-15.7-7.2-15.7-15.8c0-8.7,6.9-15.8,15.7-15.8s15.7,7.1,15.7,15.8
		C96.7,264,89.7,271.2,81,271.2"/>
	<polygon class="st2" points="117.3,254.1 135.2,236.3 129.5,236.3 113.2,252.7 113.2,236.3 109,236.3 109,274.5 113.2,274.5 
		113.2,258 114.3,257 130,274.5 135.8,274.5 	"/>
	<polygon class="st2" points="142.2,274.5 162,274.5 162,270.6 146.5,270.6 146.5,255.5 161.6,255.5 161.6,251.6 146.5,251.6 
		146.5,240.2 162,240.2 162,236.3 142.2,236.3 	"/>
	<path class="st2" d="M191.1,246.8c0-8.6-6.7-10.5-14-10.5h-5.5v38.2h4.3v-16.8h1.1l11.6,16.8h5.2l-12.2-17.1
		C187.4,256.9,191.1,252.7,191.1,246.8 M175.8,254v-13.7h1.3c5.1,0,9.7,0.6,9.7,6.9c0,5.9-4.9,6.8-9.7,6.8L175.8,254L175.8,254z"/>
	<path class="st2" d="M211.3,271.2c-4.1,0-7.1-3.2-7.7-7.1l-4.2,1.2c1.2,5.9,5.8,9.9,11.9,9.9c6.6,0,12-5.1,12-11.8
		c0-6.1-4.2-8.6-9.2-10.7l-2.5-1.1c-2.6-1.2-6-2.7-6-6c0-3.5,2.9-5.9,6.3-5.9c3.2,0,5.1,1.5,6.6,4.2l3.4-2.2c-2-3.8-5.6-5.9-9.9-5.9
		c-5.7,0-10.7,3.8-10.7,9.7c0,5.5,3.9,7.8,8.3,9.8l2.3,1c3.5,1.6,7,3.1,7,7.6C219.1,268.1,215.4,271.2,211.3,271.2"/>
	<path class="st2" d="M246.3,274.5h4.7l4.6-10.8h16.3l4.5,10.8h4.7l-17.2-40L246.3,274.5z M257.2,259.7l6.5-15.3l6.4,15.3H257.2z"/>
	<path class="st2" d="M297.6,275.2c6.6,0,12-5.1,12-11.8c0-6.1-4.2-8.6-9.2-10.7l-2.5-1.1c-2.6-1.2-6-2.7-6-6c0-3.5,2.9-5.9,6.3-5.9
		c3.2,0,5.1,1.5,6.6,4.2l3.4-2.2c-2-3.8-5.6-5.9-9.9-5.9c-5.7,0-10.7,3.8-10.7,9.7c0,5.5,3.9,7.8,8.3,9.8l2.3,1c3.6,1.6,7,3.1,7,7.6
		c0,4.3-3.8,7.5-7.9,7.5s-7.1-3.2-7.7-7.1l-4.2,1.2C286.9,271.2,291.4,275.2,297.6,275.2"/>
	<path class="st2" d="M331,252.6l-2.5-1.1c-2.6-1.2-6-2.7-6-6c0-3.5,2.9-5.9,6.3-5.9c3.2,0,5.1,1.5,6.6,4.2l3.4-2.2
		c-2-3.8-5.6-5.9-9.9-5.9c-5.7,0-10.7,3.8-10.7,9.7c0,5.5,3.9,7.8,8.3,9.8l2.3,1c3.5,1.6,7,3.1,7,7.6c0,4.3-3.7,7.5-7.9,7.5
		c-4.1,0-7.1-3.2-7.7-7.1l-4.2,1.2c1.2,5.9,5.8,9.9,11.9,9.9c6.6,0,12-5.1,12-11.8C340.2,257.3,336,254.8,331,252.6"/>
	<path class="st2" d="M366.7,235.6c-10.9,0-19.9,8.9-19.9,19.8c0,11,9,19.7,19.9,19.7s19.9-8.7,19.9-19.7
		C386.6,244.5,377.6,235.6,366.7,235.6 M366.7,271.2c-8.7,0-15.7-7.2-15.7-15.8c0-8.7,6.9-15.8,15.7-15.8c8.8,0,15.7,7.1,15.7,15.8
		C382.4,264,375.4,271.2,366.7,271.2"/>
	<path class="st2" d="M423.8,266.1c-3,3-7.2,5.1-11.6,5.1c-8.6,0-15.5-7.4-15.5-15.8s6.9-15.8,15.4-15.8c4.4,0,8.6,1.9,11.7,5.1
		v-5.3c-3.4-2.5-7.1-3.7-11.4-3.7c-10.9,0-19.9,9-19.9,19.9c0,10.8,9.1,19.6,19.9,19.6c4.1,0,8.1-1.4,11.4-3.8V266.1z"/>
	<rect x="433.4" y="236.3" class="st2" width="4.3" height="38.2"/>
	<path class="st2" d="M479,274.5l-17.2-40l-17.6,40h4.7l4.6-10.8h16.3l4.5,10.8H479z M455.1,259.7l6.5-15.3l6.4,15.3H455.1z"/>
	<polygon class="st2" points="491.5,274.5 491.5,240.2 500.8,240.2 500.8,236.3 478,236.3 478,240.2 487.2,240.2 487.2,274.5 	"/>
	<rect x="507.5" y="236.3" class="st2" width="4.3" height="38.2"/>
	<path class="st2" d="M559.7,255.4c0-10.9-9-19.8-19.9-19.8s-19.9,8.9-19.9,19.8c0,11,9,19.7,19.9,19.7
		C550.7,275.2,559.7,266.4,559.7,255.4 M524.2,255.4c0-8.7,6.9-15.8,15.7-15.8s15.7,7.1,15.7,15.8c0,8.6-7,15.8-15.7,15.8
		C531.1,271.2,524.2,264,524.2,255.4"/>
	<polygon class="st2" points="597.8,265.9 568,234.7 568,274.5 572.3,274.5 572.3,245.1 602.1,276.2 602.1,236.3 597.8,236.3 	"/>
</g>
</svg>
