<svg width="129" height="58" viewBox="0 0 129 58" fill="none" xmlns="http://www.w3.org/2000/svg">
<path d="M9.9158 0.457031H0.472656V16.902C3.40769 16.2265 6.5554 15.5932 9.9158 15.0232V0.457031Z" fill="#FFFEFE"/>
<path d="M0.472656 32.6917H9.9158V21.4609C6.51286 22.4109 3.36515 23.382 0.472656 24.3953C0.472656 24.3953 0.472656 32.6917 0.472656 32.6917Z" fill="#FFFEFE"/>
<path d="M26.0866 21.2246V32.7086H35.5298V21.2246L39.4007 15.7148C33.8496 16.4115 28.7026 17.2348 23.9384 18.1847L26.0866 21.2246Z" fill="#FFFEFE"/>
<path d="M50.1586 0.457031H39.6307L32.5908 12.2364C35.7385 11.962 38.9926 11.7087 42.3956 11.4976L50.1586 0.457031Z" fill="#FFFEFE"/>
<path d="M23.0628 0.457031H11.4502L20.6169 13.482C23.7009 13.102 26.9337 12.7642 30.3154 12.4476L23.0628 0.457031Z" fill="#FFFEFE"/>
<path d="M67.9628 13.6283C62.2416 13.776 56.8181 14.0716 51.6924 14.4727V32.6908H70.8553C81.1706 32.6908 84.3183 28.0466 84.3183 23.6767C84.3183 19.5602 81.0855 16.4781 76.0449 16.0348V15.9504C77.9165 15.486 79.4904 14.6627 80.6602 13.5438C76.6404 13.5016 72.3867 13.5227 67.9628 13.6283ZM69.3453 26.7166H60.8804V19.3491H69.7919C72.1315 19.3491 74.5986 20.3835 74.5986 23.0645C74.5986 25.9144 72.3016 26.7166 69.3453 26.7166Z" fill="#FFFEFE"/>
<path d="M60.8804 6.42887H67.5374C71.1743 6.42887 73.2161 7.3155 73.2161 9.99649C73.2161 10.0809 73.2161 10.1654 73.1948 10.2498C76.4915 10.2076 79.6605 10.2287 82.6806 10.292C82.8507 9.67983 82.9358 9.04653 82.9358 8.39212C82.9358 4.27564 79.469 0.433594 70.834 0.433594H51.6924V10.9253C54.6699 10.7776 57.7326 10.6509 60.8804 10.5454V6.42887Z" fill="#FFFEFE"/>
<path d="M117.604 12.7221L111.202 0.457031H99.9084L94.4424 10.6955C106.353 11.2866 114.009 12.2576 114.116 12.2787L117.604 12.7221Z" fill="#FFFEFE"/>
<path d="M93.2744 26.3164H114.437L117.499 32.7128H128.07L118.499 14.4102L114.309 15.4868C114.181 15.5079 104.398 18.1467 93.2744 26.3164Z" fill="#FFFEFE"/>
<path d="M92.7145 13.8789L84.5049 29.2473C92.7358 21.6687 101.009 17.2144 106.603 14.7867C103.051 14.4911 98.3082 14.1322 92.7145 13.8789Z" fill="#FFFEFE"/>
<path d="M1.41162 37.1875H0.49704V45.2517H1.41162V37.1875Z" fill="#FFFEFE"/>
<path d="M4.58173 39.047L10.9198 45.6121V37.1893H10.0265V43.4378L3.68845 36.8516V45.2533H4.58173V39.047Z" fill="#FFFEFE"/>
<path d="M15.3409 45.2517V38.0319H17.3189V37.1875H12.4697V38.0319H14.4264V45.2517H15.3409Z" fill="#FFFEFE"/>
<path d="M23.0421 38.0319V37.1875H18.8095V45.2517H23.0421V44.4284H19.7241V41.2618H22.9357V40.4174H19.7241V38.0319H23.0421Z" fill="#FFFEFE"/>
<path d="M29.2967 39.4237C29.2967 37.6081 27.8718 37.207 26.3192 37.207H25.1494V45.2714H26.0639V41.7248H26.2979L28.765 45.2714H29.871L27.2762 41.6614C28.5098 41.5348 29.2967 40.6481 29.2967 39.4237ZM26.0639 40.9225V38.0304H26.3404C27.4251 38.0304 28.4035 38.157 28.4035 39.487C28.4035 40.7325 27.3613 40.9225 26.3404 40.9225H26.0639Z" fill="#FFFEFE"/>
<path d="M38.863 45.6121V37.1893H37.9484V43.4378L31.6103 36.8516V45.2533H32.5249V39.047L38.863 45.6121Z" fill="#FFFEFE"/>
<path d="M45.8012 42.9689L46.7583 45.2488H47.7579L44.0997 36.8047L40.3564 45.2488H41.356L42.3344 42.9689H45.8012ZM44.0997 38.8946L45.4609 42.1245H42.7172L44.0997 38.8946Z" fill="#FFFEFE"/>
<path d="M50.5206 45.2517V38.0319H52.4986V37.1875H47.6494V38.0319H49.6061V45.2517H50.5206Z" fill="#FFFEFE"/>
<path d="M54.9429 37.1875H54.0283V45.2517H54.9429V37.1875Z" fill="#FFFEFE"/>
<path d="M65.2159 41.2346C65.2159 38.9335 63.3017 37.0547 60.9834 37.0547C58.6651 37.0547 56.7509 38.9335 56.7509 41.2346C56.7509 43.5567 58.6651 45.3934 60.9834 45.3934C63.2804 45.3934 65.2159 43.5567 65.2159 41.2346ZM57.6442 41.2135C57.6442 39.3769 59.1118 37.878 60.9834 37.878C62.8551 37.878 64.3226 39.3769 64.3226 41.2135C64.3226 43.029 62.8338 44.5489 60.9834 44.5489C59.133 44.5489 57.6442 43.029 57.6442 41.2135Z" fill="#FFFEFE"/>
<path d="M67.9606 39.047L74.2986 45.6121V37.1893H73.4053V43.4378L67.0674 36.8516V45.2533H67.9606V39.047Z" fill="#FFFEFE"/>
<path d="M81.2543 42.9689L82.2114 45.2488H83.211L79.5528 36.8047L75.8095 45.2488H76.8092L77.7875 42.9689H81.2543ZM79.5528 38.8946L80.914 42.1245H78.1704L79.5528 38.8946Z" fill="#FFFEFE"/>
<path d="M84.6767 37.1875V45.2517H87.8244V44.4284H85.57V37.1875H84.6767Z" fill="#FFFEFE"/>
<path d="M96.0155 45.2517V41.7896L98.6741 37.1875H97.6319L95.5688 40.7763L93.4845 37.1875H92.4424L95.1009 41.7896V45.2517H96.0155Z" fill="#FFFEFE"/>
<path d="M100.502 42.9689H103.969L104.926 45.2488H105.926L102.268 36.8047L98.5244 45.2488H99.524L100.502 42.9689ZM102.246 38.8946L103.608 42.1245H100.864L102.246 38.8946Z" fill="#FFFEFE"/>
<path d="M111.155 45.3956C112.027 45.3956 112.878 45.1 113.58 44.6145V43.4956C112.942 44.1289 112.049 44.5723 111.113 44.5723C109.284 44.5723 107.816 43.0101 107.816 41.2368C107.816 39.4636 109.284 37.9014 111.091 37.9014C112.027 37.9014 112.921 38.3025 113.58 38.978V37.8592C112.857 37.3314 112.07 37.0781 111.155 37.0781C108.837 37.0781 106.923 38.978 106.923 41.2791C106.923 43.5379 108.858 45.3956 111.155 45.3956Z" fill="#FFFEFE"/>
<path d="M121.704 45.2517V37.1875H120.789V40.4596H116.621V37.1875H115.728V45.2517H116.621V41.304H120.789V45.2517H121.704Z" fill="#FFFEFE"/>
<path d="M123.231 38.0358H125.188V45.2556H126.102V38.0358H128.08V37.1914H123.231V38.0358Z" fill="#FFFEFE"/>
<path d="M5.2793 54.9071C5.2793 53.936 4.70505 53.0704 3.74798 52.8382C4.30095 52.4793 4.5349 51.9093 4.5349 51.276C4.5349 49.6293 3.30134 49.1016 1.81256 49.1016H0.472656V57.1659H2.36554C3.96066 57.1448 5.2793 56.5115 5.2793 54.9071ZM1.38719 49.9038H1.74876C2.85471 49.9038 3.64164 50.0304 3.64164 51.2549C3.64164 52.5004 2.76963 52.6271 1.74876 52.6271H1.40846L1.38719 49.9038ZM2.28046 56.3004H1.36593V53.3871H2.15285C3.15246 53.3871 4.34349 53.5771 4.34349 54.8226C4.36476 56.0682 3.30134 56.3004 2.28046 56.3004Z" fill="#FFFEFE"/>
<path d="M7.98313 53.5904H8.21708L10.6843 57.137H11.7902L9.19544 53.527C10.4503 53.4215 11.2372 52.5348 11.2372 51.3104C11.2372 49.4949 9.81223 49.0938 8.25962 49.0938H7.08984V57.1581H8.0044L7.98313 53.5904ZM7.98313 49.896H8.25962C9.34432 49.896 10.3227 50.0226 10.3227 51.3526C10.3227 52.5982 9.28052 52.7882 8.25962 52.7882H7.98313V49.896Z" fill="#FFFEFE"/>
<path d="M17.2363 48.9258C14.9181 48.9258 13.0039 50.8046 13.0039 53.1057C13.0039 55.4278 14.9181 57.2645 17.2363 57.2645C19.5546 57.2645 21.4688 55.4278 21.4688 53.1057C21.4688 50.8046 19.5546 48.9258 17.2363 48.9258ZM17.2363 56.4411C15.386 56.4411 13.8972 54.9212 13.8972 53.1057C13.8972 51.2691 15.3647 49.7702 17.2363 49.7702C19.108 49.7702 20.5755 51.2691 20.5755 53.1057C20.5755 54.9212 19.0867 56.4411 17.2363 56.4411Z" fill="#FFFEFE"/>
<path d="M24.9567 52.8357L28.7638 49.0781H27.5515L24.0847 52.5402V49.0781H23.1914V57.1421H24.0847V53.659L24.3186 53.4479L27.6578 57.1421H28.8914L24.9567 52.8357Z" fill="#FFFEFE"/>
<path d="M30.2539 57.1421H34.465V56.3188H31.1684V53.1312H34.3799V52.308H31.1684V49.9014H34.465V49.0781H30.2539V57.1421Z" fill="#FFFEFE"/>
<path d="M40.6513 51.2947C40.6513 49.4792 39.2263 49.0781 37.6737 49.0781H36.5039V57.1421H37.4185V53.5957H37.6524L40.1196 57.1421H41.2255L38.6308 53.5323C39.8643 53.4268 40.6513 52.5402 40.6513 51.2947ZM37.3972 52.8146V49.9225H37.6737C38.7584 49.9225 39.7367 50.0492 39.7367 51.3791C39.7367 52.6246 38.6946 52.8146 37.6737 52.8146H37.3972Z" fill="#FFFEFE"/>
<path d="M44.9489 56.4416C44.0769 56.4416 43.4389 55.7661 43.3112 54.9428L42.418 55.1961C42.6732 56.4416 43.6515 57.286 44.9489 57.286C46.3526 57.286 47.5011 56.2094 47.5011 54.7951C47.5011 53.5074 46.6078 52.9796 45.5444 52.5363L45.0127 52.3041C44.4597 52.0508 43.7366 51.7341 43.7366 51.0375C43.7366 50.2987 44.3534 49.792 45.0765 49.792C45.7571 49.792 46.1612 50.1087 46.4802 50.6786L47.2033 50.2142C46.778 49.4121 46.0123 48.9688 45.0978 48.9688C43.8855 48.9688 42.8221 49.7709 42.8221 51.0164C42.8221 52.1774 43.6515 52.663 44.5873 53.0852L45.0765 53.2963C45.8209 53.634 46.5653 53.9507 46.5653 54.9006C46.6078 55.7872 45.8209 56.4416 44.9489 56.4416Z" fill="#FFFEFE"/>
<path d="M52.3898 57.1395H53.3895L54.3678 54.8595H57.8346L58.7917 57.1395H59.7913L56.1331 48.6953L52.3898 57.1395ZM54.7081 54.0151L56.0906 50.7852L57.4518 54.0151H54.7081Z" fill="#FFFEFE"/>
<path d="M63.3018 57.286C64.7056 57.286 65.8541 56.2094 65.8541 54.7951C65.8541 53.5074 64.9608 52.9796 63.8974 52.5363L63.3657 52.3041C62.8127 52.0508 62.0895 51.7341 62.0895 51.0375C62.0895 50.2987 62.7063 49.792 63.4295 49.792C64.1101 49.792 64.5142 50.1087 64.8332 50.6786L65.5564 50.2142C65.131 49.4121 64.3653 48.9688 63.4507 48.9688C62.2384 48.9688 61.175 49.7709 61.175 51.0164C61.175 52.1774 62.0044 52.663 62.9403 53.0852L63.4295 53.2963C64.1951 53.634 64.9183 53.9507 64.9183 54.9006C64.9183 55.8083 64.1101 56.4838 63.238 56.4838C62.366 56.4838 61.7279 55.8083 61.6003 54.985L60.707 55.2384C61.0261 56.4416 61.9832 57.286 63.3018 57.286Z" fill="#FFFEFE"/>
<path d="M70.4089 52.5209L69.8772 52.2886C69.3243 52.0353 68.6012 51.7186 68.6012 51.022C68.6012 50.2831 69.2179 49.7765 69.941 49.7765C70.6216 49.7765 71.0257 50.0931 71.3447 50.6631L72.0678 50.1987C71.6425 49.3965 70.8768 48.9531 69.9623 48.9531C68.75 48.9531 67.6866 49.7553 67.6866 51.0009C67.6866 52.162 68.5161 52.6475 69.4519 53.0697L69.941 53.2809C70.6854 53.6186 71.4298 53.9353 71.4298 54.8853C71.4298 55.793 70.6429 56.4686 69.7496 56.4686C68.8776 56.4686 68.2396 55.7931 68.112 54.9697L67.2188 55.2231C67.474 56.4686 68.4523 57.313 69.7496 57.313C71.1533 57.313 72.3018 56.2364 72.3018 54.8219C72.3656 53.5131 71.4723 52.9853 70.4089 52.5209Z" fill="#FFFEFE"/>
<path d="M77.9981 48.9258C75.6798 48.9258 73.7656 50.8046 73.7656 53.1057C73.7656 55.4278 75.6798 57.2645 77.9981 57.2645C80.3164 57.2645 82.2306 55.4278 82.2306 53.1057C82.2306 50.8046 80.3164 48.9258 77.9981 48.9258ZM77.9981 56.4411C76.1477 56.4411 74.6589 54.9212 74.6589 53.1057C74.6589 51.2691 76.1265 49.7702 77.9981 49.7702C79.8697 49.7702 81.3373 51.2691 81.3373 53.1057C81.3373 54.9212 79.8485 56.4411 77.9981 56.4411Z" fill="#FFFEFE"/>
<path d="M90.1415 55.3706C89.5034 56.0039 88.6101 56.4472 87.6743 56.4472C85.8452 56.4472 84.3777 54.8851 84.3777 53.1118C84.3777 51.3386 85.8452 49.7764 87.6531 49.7764C88.5889 49.7764 89.4822 50.1775 90.1415 50.853V49.7342C89.4184 49.2064 88.6314 48.9531 87.7169 48.9531C85.3986 48.9531 83.4844 50.853 83.4844 53.154C83.4844 55.4339 85.4198 57.2916 87.7169 57.2916C88.5889 57.2916 89.4396 56.9961 90.1415 56.4894V55.3706Z" fill="#FFFEFE"/>
<path d="M93.0983 49.0781H92.1836V57.1421H93.0983V49.0781Z" fill="#FFFEFE"/>
<path d="M101.883 57.1395L98.2246 48.6953L94.4813 57.1395H95.4809L96.4593 54.8595H99.926L100.883 57.1395H101.883ZM96.7996 54.0151L98.182 50.7852L99.5432 54.0151H96.7996Z" fill="#FFFEFE"/>
<path d="M104.543 57.1421V49.9014H106.521V49.0781H101.672V49.9014H103.629V57.1421H104.543Z" fill="#FFFEFE"/>
<path d="M108.86 49.0781H107.945V57.1421H108.86V49.0781Z" fill="#FFFEFE"/>
<path d="M119.047 53.1057C119.047 50.8046 117.133 48.9258 114.814 48.9258C112.496 48.9258 110.582 50.8046 110.582 53.1057C110.582 55.4278 112.496 57.2644 114.814 57.2644C117.133 57.2856 119.047 55.4278 119.047 53.1057ZM111.497 53.1057C111.497 51.269 112.964 49.7702 114.836 49.7702C116.707 49.7702 118.175 51.269 118.175 53.1057C118.175 54.9212 116.686 56.4411 114.836 56.4411C112.964 56.4411 111.497 54.9212 111.497 53.1057Z" fill="#FFFEFE"/>
<path d="M127.151 55.3208L120.812 48.7344V57.1363H121.727V50.9298L128.065 57.4951V49.0721H127.151V55.3208Z" fill="#FFFEFE"/>
</svg>
