<?xml version="1.0" encoding="utf-8"?>
<!-- Generator: Adobe Illustrator 25.4.1, SVG Export Plug-In . SVG Version: 6.00 Build 0)  -->
<svg version="1.1" id="Capa_1" xmlns="http://www.w3.org/2000/svg" xmlns:xlink="http://www.w3.org/1999/xlink" x="0px" y="0px"
	 viewBox="0 0 24 24" style="enable-background:new 0 0 24 24;" xml:space="preserve">
<style type="text/css">
	.st0{fill:none;}
	.st1{fill:#62CAC2;}
</style>
<g>
	<path class="st0" d="M0,0h24v24H0V0z"/>
	<path class="st1" d="M3.5,8.1L4.8,19h14.4l1.3-10.9l-4,2.7L12,4.4l-4.5,6.3C7.5,10.7,3.5,8.1,3.5,8.1z M2.8,5.2L7,8l4.2-5.9
		c0.3-0.4,0.9-0.6,1.4-0.2C12.7,2,12.7,2,12.8,2.1L17,8l4.2-2.8c0.5-0.3,1.1-0.2,1.4,0.3c0.1,0.2,0.2,0.4,0.2,0.7l-1.6,14
		c-0.1,0.5-0.5,0.9-1,0.9H3.9c-0.5,0-0.9-0.4-1-0.9l-1.6-14C1.2,5.6,1.6,5.1,2.1,5C2.4,5,2.6,5.1,2.8,5.2L2.8,5.2z M12,15
		c-1.1,0-2-0.9-2-2s0.9-2,2-2s2,0.9,2,2S13.1,15,12,15z"/>
</g>
</svg>
