<svg width="30" height="21" viewBox="0 0 30 21" fill="none" xmlns="http://www.w3.org/2000/svg">
<path d="M29.2001 4.73395C28.8552 4.43949 28.3684 4.37744 27.9605 4.57603L21.7187 7.61465L15.8621 0.862038C15.6455 0.612241 15.3311 0.46875 15.0004 0.46875C14.6697 0.46875 14.3554 0.612241 14.1387 0.862038L8.28206 7.61459L2.04034 4.57597C1.63239 4.37744 1.14569 4.43944 0.800649 4.73389C0.455609 5.02834 0.317822 5.49931 0.449735 5.93331L4.78411 20.1911C4.93017 20.6716 5.37324 21 5.8754 21H24.1254C24.6275 21 25.0706 20.6716 25.2166 20.1912L29.551 5.93337C29.683 5.49936 29.5452 5.0284 29.2001 4.73395ZM23.2799 18.7188H6.72078L3.39295 7.77172L8.07076 10.049C8.53523 10.2751 9.09333 10.1609 9.4317 9.77083L15.0004 3.35025L20.5692 9.77083C20.9075 10.161 21.4658 10.275 21.93 10.049L26.6079 7.77172L23.2799 18.7188Z" fill="white"/>
</svg>
