<svg id="Capa_1" data-name="Capa 1" xmlns="http://www.w3.org/2000/svg" xmlns:xlink="http://www.w3.org/1999/xlink" viewBox="0 0 408.24 41.02"><defs><style>.cls-1{fill:none;}.cls-2{fill:#231f20;}.cls-3{fill:#6b4220;}.cls-4{clip-path:url(#clip-path);}.cls-5{fill:#b4a74b;}.cls-6{fill:#b5a74b;}.cls-7{fill:#b5a74c;}.cls-8{fill:#b5a74d;}.cls-9{fill:#b5a84d;}.cls-10{fill:#b5a84e;}.cls-11{fill:#b6a84e;}.cls-12{fill:#b6a84f;}.cls-13{fill:#b6a94f;}.cls-14{fill:#b6a950;}.cls-15{fill:#b7a950;}.cls-16{fill:#b7a951;}.cls-17{fill:#b7aa51;}.cls-18{fill:#b7aa52;}.cls-19{fill:#b8aa53;}.cls-20{fill:#b8ab53;}.cls-21{fill:#b8ab54;}.cls-22{fill:#b8ab55;}.cls-23{fill:#b9ac55;}.cls-24{fill:#b9ac56;}.cls-25{fill:#b9ac57;}.cls-26{fill:#b9ad57;}.cls-27{fill:#baad58;}.cls-28{fill:#baad59;}.cls-29{fill:#baae59;}.cls-30{fill:#bbae5a;}.cls-31{fill:#bbae5b;}.cls-32{fill:#bbaf5b;}.cls-33{fill:#bbaf5c;}.cls-34{fill:#bcaf5d;}.cls-35{fill:#bcb05d;}.cls-36{fill:#bcb05e;}.cls-37{fill:#bdb05f;}.cls-38{fill:#bdb15f;}.cls-39{fill:#bdb160;}.cls-40{fill:#beb161;}.cls-41{fill:#beb262;}.cls-42{fill:#beb363;}.cls-43{fill:#bfb364;}.cls-44{fill:#bfb365;}.cls-45{fill:#c0b465;}.cls-46{fill:#c0b466;}.cls-47{fill:#c0b567;}.cls-48{fill:#c1b568;}.cls-49{fill:#c1b669;}.cls-50{fill:#c1b66a;}.cls-51{fill:#c2b76b;}.cls-52{fill:#c3b86c;}.cls-53{fill:#c3b86d;}.cls-54{fill:#c3b96e;}.cls-55{fill:#c4b96f;}.cls-56{fill:#c4ba70;}.cls-57{fill:#c5ba71;}.cls-58{fill:#c5bb72;}.cls-59{fill:#c6bb73;}.cls-60{fill:#c6bc74;}.cls-61{fill:#c6bd75;}.cls-62{fill:#c7bd76;}.cls-63{fill:#c7be77;}.cls-64{fill:#c8be78;}.cls-65{fill:#c8bf79;}.cls-66{fill:#c9c07a;}.cls-67{fill:#cac07b;}.cls-68{fill:#cac17c;}.cls-69{fill:#cbc27e;}.cls-70{fill:#cbc27f;}.cls-71{fill:#ccc380;}.cls-72{fill:#ccc481;}.cls-73{fill:#cdc582;}.cls-74{fill:#cdc583;}.cls-75{fill:#cec685;}.cls-76{fill:#cfc786;}.cls-77{fill:#cfc887;}.cls-78{fill:#d0c888;}.cls-79{fill:#d1c98a;}.cls-80{fill:#d1ca8b;}.cls-81{fill:#d2cb8c;}.cls-82{fill:#d3cc8e;}.cls-83{fill:#d3cc8f;}.cls-84{fill:#d4cd91;}.cls-85{fill:#d5ce92;}.cls-86{fill:#d5cf94;}.cls-87{fill:#d6d095;}.cls-88{fill:#d7d197;}.cls-89{fill:#d8d298;}.cls-90{fill:#d8d39a;}.cls-91{fill:#d9d49c;}.cls-92{fill:#dad59d;}.cls-93{fill:#dad69f;}.cls-94{fill:#dbd7a1;}.cls-95{fill:#dcd8a2;}.cls-96{fill:#ddd9a4;}.cls-97{fill:#dedaa6;}.cls-98{fill:#dedba8;}.cls-99{fill:#dfdcaa;}.cls-100{fill:#e0deac;}.cls-101{fill:#e1dfae;}.cls-102{fill:#e2e1b0;}.cls-103{fill:#e3e3b2;}.cls-104{fill:#dddaa6;}.cls-105{fill:#dbd7a0;}.cls-106{fill:#d9d49b;}.cls-107{fill:#d7d298;}.cls-108{fill:#d5cf93;}.cls-109{fill:#d4cd90;}.cls-110{fill:#d2cb8e;}.cls-111{fill:#d0c989;}.cls-112{fill:#cfc787;}.cls-113{fill:#cec684;}.cls-114{fill:#cdc482;}.cls-115{fill:#ccc37f;}.cls-116{fill:#cac17d;}.cls-117{fill:#c9c07b;}.cls-118{fill:#c9bf7a;}.cls-119{fill:#c6bc73;}.cls-120{fill:#c5bb71;}.cls-121{fill:#c3b86e;}.cls-122{fill:#c2b76c;}.cls-123{fill:#c2b66a;}.cls-124{fill:#c1b668;}.cls-125{fill:#bfb465;}.cls-126{fill:#bfb363;}.cls-127{fill:#beb263;}.cls-128{fill:#beb261;}.cls-129{fill:#bcaf5c;}.cls-130{fill:#baae5a;}.cls-131{fill:#baad57;}.cls-132{clip-path:url(#clip-path-2);}</style><clipPath id="clip-path" transform="translate(-216.82 -277.13)"><path class="cls-1" d="M380.42,292a14.82,14.82,0,1,0-8,19.37A14.83,14.83,0,0,0,380.42,292Zm-9,17a12.25,12.25,0,1,1,6.64-16A12.25,12.25,0,0,1,371.41,309Z"/></clipPath><clipPath id="clip-path-2" transform="translate(-216.82 -277.13)"><path class="cls-1" d="M370.62,296a4.21,4.21,0,1,1-5.5-2.28A4.2,4.2,0,0,1,370.62,296Z"/></clipPath></defs><path class="cls-2" d="M224.13,301.72v11.65h-7.31v-31.5h10.25a21,21,0,0,1,5.83.7,10.94,10.94,0,0,1,3.94,2,7.38,7.38,0,0,1,2.21,3,10.23,10.23,0,0,1,.28,6.62,8.9,8.9,0,0,1-1.22,2.52,9.45,9.45,0,0,1-2,2.06,10.69,10.69,0,0,1-2.71,1.49,6.94,6.94,0,0,1,1.37.91,5.36,5.36,0,0,1,1.12,1.32l6.7,11H236a2.82,2.82,0,0,1-2.64-1.38l-5.23-9.15a2.18,2.18,0,0,0-.81-.86,2.65,2.65,0,0,0-1.31-.26Zm0-5h2.94a7.55,7.55,0,0,0,2.54-.38,4.47,4.47,0,0,0,1.72-1.05,4,4,0,0,0,1-1.57,6,6,0,0,0,.3-1.93,4,4,0,0,0-1.35-3.24,6.29,6.29,0,0,0-4.19-1.17h-2.94Z" transform="translate(-216.82 -277.13)"/><path class="cls-2" d="M255.44,313.37h-7.35v-31.5h7.35Z" transform="translate(-216.82 -277.13)"/><path class="cls-2" d="M286,281.87v5.79h-8.86v25.71h-7.31V287.66H261v-5.79Z" transform="translate(-216.82 -277.13)"/><path class="cls-2" d="M314,281.87v2.63a3.49,3.49,0,0,1-.18,1.11,4.17,4.17,0,0,1-.51,1l-14.79,21.13h15v5.62H289.18v-2.81a3,3,0,0,1,.17-1,3.53,3.53,0,0,1,.48-.9l14.83-21.19H290.39v-5.62Z" transform="translate(-216.82 -277.13)"/><path class="cls-2" d="M334.85,301.39v12h-7.31v-12l-11.42-19.52h6.45a2.36,2.36,0,0,1,1.51.44,3.39,3.39,0,0,1,.91,1.13l4.45,9.17c.36.74.69,1.42,1,2s.57,1.23.8,1.83a15.36,15.36,0,0,1,.78-1.86c.3-.61.62-1.29,1-2l4.41-9.17a3.28,3.28,0,0,1,.36-.56,3.6,3.6,0,0,1,.52-.51A2.26,2.26,0,0,1,339,282a2.23,2.23,0,0,1,.83-.14h6.49Z" transform="translate(-216.82 -277.13)"/><path class="cls-1" d="M501.51,287.34h-2.95v9.34h2.95a7.59,7.59,0,0,0,2.54-.38,4.55,4.55,0,0,0,1.72-1.05,4,4,0,0,0,1-1.57,6,6,0,0,0,.3-1.93,4,4,0,0,0-1.35-3.24A6.28,6.28,0,0,0,501.51,287.34Z" transform="translate(-216.82 -277.13)"/><path class="cls-1" d="M584.89,287.34H582v9.34h2.94a7.59,7.59,0,0,0,2.54-.38,4.55,4.55,0,0,0,1.72-1.05,3.88,3.88,0,0,0,1-1.57,6,6,0,0,0,.3-1.93,4,4,0,0,0-1.35-3.24A6.26,6.26,0,0,0,584.89,287.34Z" transform="translate(-216.82 -277.13)"/><path d="M400.85,290.27a8,8,0,0,1,2.82-2,9.16,9.16,0,0,1,3.64-.71,9.83,9.83,0,0,1,2,.18,8.1,8.1,0,0,1,1.49.42,5.64,5.64,0,0,1,1.1.54l.86.54a6.37,6.37,0,0,0,.73.42,1.58,1.58,0,0,0,.74.17,1.51,1.51,0,0,0,.91-.24,3.3,3.3,0,0,0,.56-.56l2.46-3.31a12.14,12.14,0,0,0-2-1.69,13.87,13.87,0,0,0-2.51-1.32,16.14,16.14,0,0,0-2.93-.87,17.71,17.71,0,0,0-3.34-.31,18.21,18.21,0,0,0-6.68,1.19,15,15,0,0,0-8.59,8.42,17.07,17.07,0,0,0-1.21,6.48,19,19,0,0,0,1.06,6.41,14.82,14.82,0,0,0,3,5.1,14,14,0,0,0,4.82,3.38,16.25,16.25,0,0,0,6.44,1.22,16.57,16.57,0,0,0,6.78-1.27,11.89,11.89,0,0,0,4.76-3.75l-2.89-3.05a1.36,1.36,0,0,0-.5-.33,1.37,1.37,0,0,0-.52-.1,1.52,1.52,0,0,0-.63.14,2.23,2.23,0,0,0-.56.36,8.77,8.77,0,0,1-1.29.94,6.49,6.49,0,0,1-1.34.61,7,7,0,0,1-1.52.34,14.46,14.46,0,0,1-1.82.1,8,8,0,0,1-3.24-.67,7.66,7.66,0,0,1-2.65-2,9.2,9.2,0,0,1-1.79-3.17,13,13,0,0,1-.66-4.3,12.47,12.47,0,0,1,.66-4.18A9.28,9.28,0,0,1,400.85,290.27Z" transform="translate(-216.82 -277.13)"/><polygon points="226.3 17.91 213.49 17.91 213.49 4.74 206.14 4.74 206.14 36.24 213.49 36.24 213.49 22.92 226.3 22.92 226.3 36.24 233.65 36.24 233.65 4.74 226.3 4.74 226.3 17.91"/><path d="M467.16,281.87,455,313.37h5.71a2.45,2.45,0,0,0,1.53-.48,2.5,2.5,0,0,0,.85-1.1l6.44-19.05c.22-.54.45-1.19.69-1.94s.48-1.57.72-2.45c.24.87.49,1.67.74,2.41s.47,1.39.66,1.94l6.45,19.09a2.23,2.23,0,0,0,.85,1.14,2.58,2.58,0,0,0,1.57.44h5.66l-12.19-31.5Z" transform="translate(-216.82 -277.13)"/><path d="M509.21,301.09a6.94,6.94,0,0,0-1.37-.91,10.93,10.93,0,0,0,2.72-1.49,9.64,9.64,0,0,0,2-2.06,8.93,8.93,0,0,0,1.23-2.52,10.16,10.16,0,0,0,.41-2.9,9.85,9.85,0,0,0-.69-3.72,7.5,7.5,0,0,0-2.22-3,10.94,10.94,0,0,0-3.94-2,20.93,20.93,0,0,0-5.82-.7H491.26v31.5h7.3V301.72h1.86a2.62,2.62,0,0,1,1.31.26,2.18,2.18,0,0,1,.81.86l5.24,9.15a2.8,2.8,0,0,0,2.63,1.38H517l-6.7-11A5.36,5.36,0,0,0,509.21,301.09Zm-2.47-7.41a4,4,0,0,1-1,1.57,4.55,4.55,0,0,1-1.72,1.05,7.59,7.59,0,0,1-2.54.38h-2.95v-9.34h2.95a6.28,6.28,0,0,1,4.18,1.17,4,4,0,0,1,1.35,3.24A6,6,0,0,1,506.74,293.68Z" transform="translate(-216.82 -277.13)"/><polygon points="301.59 10.53 310.46 10.53 310.46 36.24 317.77 36.24 317.77 10.53 326.63 10.53 326.63 4.74 301.59 4.74 301.59 10.53"/><polygon points="331.52 36.24 351.8 36.24 351.8 30.62 338.87 30.62 338.87 23.12 348.78 23.12 348.78 17.71 338.87 17.71 338.87 10.36 351.8 10.36 351.8 4.74 331.52 4.74 331.52 36.24"/><path d="M592.6,301.09a7.58,7.58,0,0,0-1.37-.91,10.86,10.86,0,0,0,2.71-1.49,9.69,9.69,0,0,0,2-2.06,8.9,8.9,0,0,0,1.22-2.52,10.16,10.16,0,0,0,.41-2.9,9.85,9.85,0,0,0-.69-3.72,7.31,7.31,0,0,0-2.22-3,10.89,10.89,0,0,0-3.93-2,21,21,0,0,0-5.83-.7H574.64v31.5H582V301.72h1.86a2.65,2.65,0,0,1,1.31.26,2.18,2.18,0,0,1,.81.86l5.23,9.15a2.8,2.8,0,0,0,2.64,1.38h6.62l-6.71-11A5.55,5.55,0,0,0,592.6,301.09Zm-2.48-7.41a3.88,3.88,0,0,1-1,1.57,4.55,4.55,0,0,1-1.72,1.05,7.59,7.59,0,0,1-2.54.38H582v-9.34h2.94a6.26,6.26,0,0,1,4.18,1.17,4,4,0,0,1,1.35,3.24A6,6,0,0,1,590.12,293.68Z" transform="translate(-216.82 -277.13)"/><path d="M624.46,299.91a7.37,7.37,0,0,0-1.59-2.37,8.43,8.43,0,0,0-2.25-1.6,24.3,24.3,0,0,0-2.58-1.09q-1.32-.47-2.58-.84a16.48,16.48,0,0,1-2.25-.83,5.24,5.24,0,0,1-1.59-1.09,2.13,2.13,0,0,1-.61-1.57,3,3,0,0,1,1-2.37,4.53,4.53,0,0,1,3.06-.88,6.6,6.6,0,0,1,2.12.32,9.74,9.74,0,0,1,1.65.7l1.3.7a2.23,2.23,0,0,0,1.07.31,1.56,1.56,0,0,0,.92-.25,3.17,3.17,0,0,0,.68-.78l1.81-3.4a10.19,10.19,0,0,0-1.91-1.39,13.82,13.82,0,0,0-2.3-1.06,14.25,14.25,0,0,0-2.61-.67,17.31,17.31,0,0,0-2.82-.23,12.52,12.52,0,0,0-4.61.79,10.33,10.33,0,0,0-3.39,2.11,9.07,9.07,0,0,0-2.1,3,8.93,8.93,0,0,0-.71,3.46,10,10,0,0,0,.6,3.71,7.71,7.71,0,0,0,1.59,2.51,8.12,8.12,0,0,0,2.24,1.62,19.47,19.47,0,0,0,2.57,1c.88.28,1.74.54,2.58.77a15.31,15.31,0,0,1,2.24.8,4.77,4.77,0,0,1,1.59,1.14,2.66,2.66,0,0,1,.6,1.8,3.36,3.36,0,0,1-1.1,2.78,4.9,4.9,0,0,1-3.09.87,7.09,7.09,0,0,1-2.56-.41,11.72,11.72,0,0,1-1.91-.9L608,305.7a2.42,2.42,0,0,0-1.31-.41,2,2,0,0,0-.93.23,1.77,1.77,0,0,0-.67.63L603,309.57a11,11,0,0,0,2.18,1.68,17.07,17.07,0,0,0,2.68,1.31,18.5,18.5,0,0,0,2.95.86,15.57,15.57,0,0,0,3,.3,13.29,13.29,0,0,0,4.79-.81,10.18,10.18,0,0,0,3.55-2.23,9.56,9.56,0,0,0,2.19-3.32,10.86,10.86,0,0,0,.76-4.09A8.3,8.3,0,0,0,624.46,299.91Z" transform="translate(-216.82 -277.13)"/><path class="cls-3" d="M361.16,284.2a14.54,14.54,0,1,0,19,7.87A14.55,14.55,0,0,0,361.16,284.2Zm16.34,15.92h0c-.08.83-1,.78-1.36.65a9.72,9.72,0,0,1-2.06-.81c-.44-.29-.24-.53-.69-.71s-.59.22-1,.05-.27-.48-.59-.73a2.19,2.19,0,0,0-.7-.31l-.85,2a2.4,2.4,0,0,0,.72.27c.4.05.58-.26.93-.1s.34.62.68.77.49-.14,1,0a9.45,9.45,0,0,1,2,.87c.36.19,1,.79.5,1.43h0a11,11,0,0,1-3.5,3.5v0c-.64.53-1.24-.14-1.43-.5a10.22,10.22,0,0,1-.87-2c-.12-.52.2-.55,0-1s-.57-.26-.76-.68.15-.53.1-.93a2.53,2.53,0,0,0-.27-.72l-2.05.84a2.22,2.22,0,0,0,.32.7c.25.33.59.23.73.6s-.2.68-.05,1,.43.25.71.7a9.61,9.61,0,0,1,.82,2c.12.39.16,1.29-.66,1.37h0a10.92,10.92,0,0,1-5.48-.13,1.24,1.24,0,0,1-.18-1.16,9.4,9.4,0,0,1,.82-2.05c.28-.45.52-.25.71-.7s-.22-.59-.06-1,.48-.27.74-.59a2.47,2.47,0,0,0,.31-.7l-2-.84a2.15,2.15,0,0,0-.27.71c-.05.4.25.58.09.94s-.62.34-.76.68.14.48,0,1a9.17,9.17,0,0,1-.87,2,1.2,1.2,0,0,1-.94.69,11.05,11.05,0,0,1-4.21-4.21c0-.45.43-.83.69-1a9.66,9.66,0,0,1,2-.87c.52-.12.56.19,1,0s.26-.57.69-.76.53.15.93.1a2.42,2.42,0,0,0,.71-.27l-.85-2.05a2.31,2.31,0,0,0-.69.32c-.32.25-.23.59-.59.73s-.68-.2-1-.06-.25.43-.7.71a9.92,9.92,0,0,1-2,.83,1.24,1.24,0,0,1-1.17-.19,11,11,0,0,1-.1-5.39h0c.08-.82,1-.78,1.37-.65a9.41,9.41,0,0,1,2.05.81c.45.29.25.54.69.72s.6-.22,1-.05.27.47.58.72a2.43,2.43,0,0,0,.7.32l.85-2.05a2.42,2.42,0,0,0-.71-.27c-.41-.05-.58.26-.94.1s-.34-.62-.68-.76-.48.13-1,0a9.3,9.3,0,0,1-2-.87c-.35-.19-1-.79-.5-1.43h0a11.12,11.12,0,0,1,3.49-3.54v0c.64-.53,1.24.14,1.43.5a9.45,9.45,0,0,1,.87,2c.12.52-.2.55,0,1s.57.25.76.68-.15.53-.1.93a2.4,2.4,0,0,0,.27.72l2-.85a2.19,2.19,0,0,0-.31-.7c-.25-.32-.59-.22-.73-.59s.2-.67.06-1-.43-.24-.72-.7a9.83,9.83,0,0,1-.82-2c-.12-.39-.16-1.29.66-1.37l0,0a11,11,0,0,1,5.49.13,1.26,1.26,0,0,1,.17,1.14,9.4,9.4,0,0,1-.82,2.05c-.28.45-.53.25-.71.69s.22.59.05,1-.48.26-.73.59a2.19,2.19,0,0,0-.31.7l2,.84a2.15,2.15,0,0,0,.27-.71c0-.41-.26-.58-.1-.94s.62-.34.77-.68-.14-.48,0-1a10.22,10.22,0,0,1,.87-2,1.26,1.26,0,0,1,.93-.69,11,11,0,0,1,4.25,4.24,1.25,1.25,0,0,1-.69.91,9.39,9.39,0,0,1-2,.87c-.52.12-.56-.2-1,0s-.26.58-.69.77-.52-.15-.93-.1a2.25,2.25,0,0,0-.72.27l.85,2a2.19,2.19,0,0,0,.7-.31c.32-.25.23-.59.59-.73s.68.2,1,.06.25-.43.7-.72a8.94,8.94,0,0,1,2.05-.81,1.22,1.22,0,0,1,1.14.16A11,11,0,0,1,377.5,300.12Z" transform="translate(-216.82 -277.13)"/><path class="cls-3" d="M386.43,304.59a4.72,4.72,0,0,0-2-.67l-.51-.11h0a4.77,4.77,0,0,1-2.24-1.26,15.65,15.65,0,0,0,0-9.76,4.73,4.73,0,0,1,2.25-1.27l.05,0,.51-.11a4.66,4.66,0,0,0,1.95-.66c.73-.52.83-1.11.68-1.5s-.66-.75-1.55-.59a4.86,4.86,0,0,0-1.85.91l-.43.29-.05,0a4.61,4.61,0,0,1-2.48.68,15.74,15.74,0,0,0-6.83-6.89,4.41,4.41,0,0,1,.67-2.55l0,0,.28-.43a4.69,4.69,0,0,0,.9-1.86c.16-.88-.19-1.37-.57-1.53s-1-.06-1.51.67a4.82,4.82,0,0,0-.67,2l-.11.5v0a4.49,4.49,0,0,1-1.32,2.28,15.65,15.65,0,0,0-9.67,0,4.61,4.61,0,0,1-1.3-2.27v-.05l-.11-.51a4.88,4.88,0,0,0-.67-1.95c-.51-.73-1.11-.82-1.49-.67s-.75.65-.59,1.54a4.71,4.71,0,0,0,.9,1.85l.29.43,0,.05a4.6,4.6,0,0,1,.68,2.5,15.68,15.68,0,0,0-7,6.93,4.63,4.63,0,0,1-2.51-.69l-.05,0-.43-.28a4.86,4.86,0,0,0-1.85-.91c-.89-.16-1.37.2-1.54.58s-.06,1,.67,1.5a4.82,4.82,0,0,0,2,.67l.5.11h.05a4.61,4.61,0,0,1,2.25,1.29,15.7,15.7,0,0,0,0,9.82,4.67,4.67,0,0,1-2.2,1.22l0,0-.51.1a4.66,4.66,0,0,0-1.95.68c-.74.51-.83,1.1-.67,1.49s.65.74,1.53.59a4.83,4.83,0,0,0,1.86-.91l.43-.28,0,0a4.74,4.74,0,0,1,2.41-.69,15.65,15.65,0,0,0,6.9,6.9,4.42,4.42,0,0,1-.68,2.55l0,.05-.28.43a4.86,4.86,0,0,0-.91,1.85c-.15.89.2,1.38.58,1.54s1,.07,1.5-.67a4.83,4.83,0,0,0,.67-2l.11-.51v-.05a4.58,4.58,0,0,1,1.33-2.28,15.74,15.74,0,0,0,9.74,0,4.64,4.64,0,0,1,1.26,2.24l0,0,.11.52a4.73,4.73,0,0,0,.67,1.95c.51.73,1.1.83,1.49.67s.75-.65.59-1.54a4.79,4.79,0,0,0-.91-1.85l-.28-.44,0,0a4.56,4.56,0,0,1-.69-2.49,15.67,15.67,0,0,0,6.88-6.88,4.65,4.65,0,0,1,2.46.69l0,0,.43.28a4.9,4.9,0,0,0,1.86.91c.88.16,1.37-.2,1.53-.58S387.16,305.1,386.43,304.59Zm-12.64,5.59-1.5.72h-.07c-.35.12-1.14.4-1.63.59a14.41,14.41,0,0,1-16.15-6.37c-.07-.2-.91-1.94-.92-2l0-.07s-.69-2-.75-2.06a0,0,0,0,0,0,0,14.51,14.51,0,0,1,.2-7.52c.21-.57.47-1.31.49-1.36l0-.07s.33-.71.6-1.27a14.34,14.34,0,0,1,5.8-5.83l1.42-.67.18-.07.95-.33a14.4,14.4,0,0,1,16.87,6.65c.27.59.73,1.55.74,1.57l0,.07c.11.32.37,1,.55,1.54a14.39,14.39,0,0,1,.05,7.62c-.19.48-.5,1.38-.64,1.75,0,0,0,0,0,0v0c-.17.34-.56,1.17-.78,1.64A14.28,14.28,0,0,1,373.79,310.18Z" transform="translate(-216.82 -277.13)"/><g class="cls-4"><polyline class="cls-5" points="141.4 3.68 141.4 37.34 133.07 37.34 133.07 3.68 141.4 3.68"/><polyline class="cls-5" points="141.47 3.68 141.47 37.34 141.4 37.34 141.4 3.68 141.47 3.68"/><polyline class="cls-5" points="141.54 3.68 141.54 37.34 141.47 37.34 141.47 3.68 141.54 3.68"/><polyline class="cls-5" points="141.61 3.68 141.61 37.34 141.54 37.34 141.54 3.68 141.61 3.68"/><polyline class="cls-5" points="141.68 3.68 141.68 37.34 141.61 37.34 141.61 3.68 141.68 3.68"/><polyline class="cls-5" points="141.75 3.68 141.75 37.34 141.68 37.34 141.68 3.68 141.75 3.68"/><polyline class="cls-5" points="141.81 3.68 141.81 37.34 141.75 37.34 141.75 3.68 141.81 3.68"/><polyline class="cls-5" points="141.89 3.68 141.89 37.34 141.81 37.34 141.81 3.68 141.89 3.68"/><polyline class="cls-5" points="141.96 3.68 141.96 37.34 141.89 37.34 141.89 3.68 141.96 3.68"/><polyline class="cls-6" points="142.02 3.68 142.02 37.34 141.96 37.34 141.96 3.68 142.02 3.68"/><polyline class="cls-6" points="142.09 3.68 142.09 37.34 142.02 37.34 142.02 3.68 142.09 3.68"/><polyline class="cls-6" points="142.16 3.68 142.16 37.34 142.09 37.34 142.09 3.68 142.16 3.68"/><polyline class="cls-7" points="142.23 3.68 142.23 37.34 142.16 37.34 142.16 3.68 142.23 3.68"/><polyline class="cls-7" points="142.3 3.68 142.3 37.34 142.23 37.34 142.23 3.68 142.3 3.68"/><polyline class="cls-7" points="142.37 3.68 142.37 37.34 142.3 37.34 142.3 3.68 142.37 3.68"/><polyline class="cls-7" points="142.44 3.68 142.44 37.34 142.37 37.34 142.37 3.68 142.44 3.68"/><polyline class="cls-7" points="142.5 3.68 142.5 37.34 142.44 37.34 142.44 3.68 142.5 3.68"/><polyline class="cls-7" points="142.57 3.68 142.57 37.34 142.5 37.34 142.5 3.68 142.57 3.68"/><polyline class="cls-7" points="142.64 3.68 142.64 37.34 142.57 37.34 142.57 3.68 142.64 3.68"/><polyline class="cls-7" points="142.71 3.68 142.71 37.34 142.64 37.34 142.64 3.68 142.71 3.68"/><polyline class="cls-7" points="142.78 37.34 142.78 3.68 142.71 3.68 142.71 37.34 142.78 37.34"/><polyline class="cls-8" points="142.85 3.68 142.85 37.34 142.78 37.34 142.78 3.68 142.85 3.68"/><polyline class="cls-8" points="142.92 3.68 142.92 37.34 142.85 37.34 142.85 3.68 142.92 3.68"/><polyline class="cls-8" points="142.98 37.34 142.98 3.68 142.92 3.68 142.92 37.34 142.98 37.34"/><polyline class="cls-9" points="143.05 37.34 143.05 3.68 142.98 3.68 142.98 37.34 143.05 37.34"/><polyline class="cls-9" points="143.12 37.34 143.12 3.68 143.05 3.68 143.05 37.34 143.12 37.34"/><polyline class="cls-10" points="143.19 37.34 143.19 3.68 143.12 3.68 143.12 37.34 143.19 37.34"/><polyline class="cls-11" points="143.26 3.68 143.26 37.34 143.19 37.34 143.19 3.68 143.26 3.68"/><polyline class="cls-11" points="143.33 3.68 143.33 37.34 143.26 37.34 143.26 3.68 143.33 3.68"/><polyline class="cls-11" points="143.4 3.68 143.4 37.34 143.33 37.34 143.33 3.68 143.4 3.68"/><polyline class="cls-12" points="143.47 37.34 143.47 3.68 143.4 3.68 143.4 37.34 143.47 37.34"/><polyline class="cls-12" points="143.53 37.34 143.53 3.68 143.47 3.68 143.47 37.34 143.53 37.34"/><polyline class="cls-13" points="143.6 37.34 143.6 3.68 143.53 3.68 143.53 37.34 143.6 37.34"/><polyline class="cls-13" points="143.67 37.34 143.67 3.68 143.6 3.68 143.6 37.34 143.67 37.34"/><polyline class="cls-14" points="143.74 3.68 143.74 37.34 143.67 37.34 143.67 3.68 143.74 3.68"/><polyline class="cls-15" points="143.81 3.68 143.81 37.34 143.74 37.34 143.74 3.68 143.81 3.68"/><polyline class="cls-15" points="143.88 37.34 143.88 3.68 143.81 3.68 143.81 37.34 143.88 37.34"/><polyline class="cls-16" points="143.94 37.34 143.94 3.68 143.88 3.68 143.88 37.34 143.94 37.34"/><polyline class="cls-17" points="144.02 37.34 144.02 3.68 143.94 3.68 143.94 37.34 144.02 37.34"/><polyline class="cls-18" points="144.08 37.34 144.08 3.68 144.02 3.68 144.02 37.34 144.08 37.34"/><polyline class="cls-18" points="144.15 3.68 144.15 37.34 144.08 37.34 144.08 3.68 144.15 3.68"/><polyline class="cls-18" points="144.22 3.68 144.22 37.34 144.15 37.34 144.15 3.68 144.22 3.68"/><polyline class="cls-19" points="144.29 3.68 144.29 37.34 144.22 37.34 144.22 3.68 144.29 3.68"/><polyline class="cls-20" points="144.36 37.34 144.36 3.68 144.29 3.68 144.29 37.34 144.36 37.34"/><polyline class="cls-21" points="144.43 37.34 144.43 3.68 144.36 3.68 144.36 37.34 144.43 37.34"/><polyline class="cls-21" points="144.5 37.34 144.5 3.68 144.43 3.68 144.43 37.34 144.5 37.34"/><polyline class="cls-22" points="144.57 3.68 144.57 37.34 144.5 37.34 144.5 3.68 144.57 3.68"/><polyline class="cls-23" points="144.63 3.68 144.63 37.34 144.57 37.34 144.57 3.68 144.63 3.68"/><polyline class="cls-24" points="144.7 3.68 144.7 37.34 144.63 37.34 144.63 3.68 144.7 3.68"/><polyline class="cls-24" points="144.77 3.68 144.77 37.34 144.7 37.34 144.7 3.68 144.77 3.68"/><polyline class="cls-25" points="144.84 37.34 144.84 3.68 144.77 3.68 144.77 37.34 144.84 37.34"/><polyline class="cls-26" points="144.91 37.34 144.91 3.68 144.84 3.68 144.84 37.34 144.91 37.34"/><polyline class="cls-27" points="144.98 3.68 144.98 37.34 144.91 37.34 144.91 3.68 144.98 3.68"/><polyline class="cls-27" points="145.04 3.68 145.04 37.34 144.98 37.34 144.98 3.68 145.04 3.68"/><polyline class="cls-28" points="145.11 3.68 145.11 37.34 145.04 37.34 145.04 3.68 145.11 3.68"/><polyline class="cls-29" points="145.18 3.68 145.18 37.34 145.11 37.34 145.11 3.68 145.18 3.68"/><polyline class="cls-30" points="145.25 37.34 145.25 3.68 145.18 3.68 145.18 37.34 145.25 37.34"/><polyline class="cls-31" points="145.32 37.34 145.32 3.68 145.25 3.68 145.25 37.34 145.32 37.34"/><polyline class="cls-32" points="145.39 3.68 145.39 37.34 145.32 37.34 145.32 3.68 145.39 3.68"/><polyline class="cls-33" points="145.46 3.68 145.46 37.34 145.39 37.34 145.39 3.68 145.46 3.68"/><polyline class="cls-34" points="145.52 3.68 145.52 37.34 145.46 37.34 145.46 3.68 145.52 3.68"/><polyline class="cls-35" points="145.59 3.68 145.59 37.34 145.52 37.34 145.52 3.68 145.59 3.68"/><polyline class="cls-36" points="145.66 3.68 145.66 37.34 145.59 37.34 145.59 3.68 145.66 3.68"/><polyline class="cls-37" points="145.73 37.34 145.73 3.68 145.66 3.68 145.66 37.34 145.73 37.34"/><polyline class="cls-38" points="145.8 37.34 145.8 3.68 145.73 3.68 145.73 37.34 145.8 37.34"/><polyline class="cls-39" points="145.87 3.68 145.87 37.34 145.8 37.34 145.8 3.68 145.87 3.68"/><polyline class="cls-40" points="145.94 3.68 145.94 37.34 145.87 37.34 145.87 3.68 145.94 3.68"/><polyline class="cls-41" points="146.01 3.68 146.01 37.34 145.94 37.34 145.94 3.68 146.01 3.68"/><polyline class="cls-41" points="146.07 3.68 146.07 37.34 146.01 37.34 146.01 3.68 146.07 3.68"/><polyline class="cls-42" points="146.15 3.68 146.15 37.34 146.07 37.34 146.07 3.68 146.15 3.68"/><polyline class="cls-43" points="146.21 37.34 146.21 3.68 146.15 3.68 146.15 37.34 146.21 37.34"/><polyline class="cls-44" points="146.28 3.68 146.28 37.34 146.21 37.34 146.21 3.68 146.28 3.68"/><polyline class="cls-45" points="146.35 3.68 146.35 37.34 146.28 37.34 146.28 3.68 146.35 3.68"/><polyline class="cls-46" points="146.42 3.68 146.42 37.34 146.35 37.34 146.35 3.68 146.42 3.68"/><polyline class="cls-47" points="146.49 3.68 146.49 37.34 146.42 37.34 146.42 3.68 146.49 3.68"/><polyline class="cls-48" points="146.56 3.68 146.56 37.34 146.49 37.34 146.49 3.68 146.56 3.68"/><polyline class="cls-49" points="146.62 37.34 146.62 3.68 146.56 3.68 146.56 37.34 146.62 37.34"/><polyline class="cls-50" points="146.69 3.68 146.69 37.34 146.62 37.34 146.62 3.68 146.69 3.68"/><polyline class="cls-51" points="146.76 3.68 146.76 37.34 146.69 37.34 146.69 3.68 146.76 3.68"/><polyline class="cls-51" points="146.83 3.68 146.83 37.34 146.76 37.34 146.76 3.68 146.83 3.68"/><polyline class="cls-52" points="146.9 3.68 146.9 37.34 146.83 37.34 146.83 3.68 146.9 3.68"/><polyline class="cls-53" points="146.97 3.68 146.97 37.34 146.9 37.34 146.9 3.68 146.97 3.68"/><polyline class="cls-54" points="147.04 3.68 147.04 37.34 146.97 37.34 146.97 3.68 147.04 3.68"/><polyline class="cls-55" points="147.11 3.68 147.11 37.34 147.04 37.34 147.04 3.68 147.11 3.68"/><polyline class="cls-56" points="147.17 3.68 147.17 37.34 147.11 37.34 147.11 3.68 147.17 3.68"/><polyline class="cls-57" points="147.24 3.68 147.24 37.34 147.17 37.34 147.17 3.68 147.24 3.68"/><polyline class="cls-58" points="147.31 3.68 147.31 37.34 147.24 37.34 147.24 3.68 147.31 3.68"/><polyline class="cls-59" points="147.38 3.68 147.38 37.34 147.31 37.34 147.31 3.68 147.38 3.68"/><polyline class="cls-60" points="147.45 3.68 147.45 37.34 147.38 37.34 147.38 3.68 147.45 3.68"/><polyline class="cls-61" points="147.52 3.68 147.52 37.34 147.45 37.34 147.45 3.68 147.52 3.68"/><polyline class="cls-62" points="147.59 3.68 147.59 37.34 147.52 37.34 147.52 3.68 147.59 3.68"/><polyline class="cls-63" points="147.65 3.68 147.65 37.34 147.59 37.34 147.59 3.68 147.65 3.68"/><polyline class="cls-64" points="147.72 3.68 147.72 37.34 147.65 37.34 147.65 3.68 147.72 3.68"/><polyline class="cls-65" points="147.79 3.68 147.79 37.34 147.72 37.34 147.72 3.68 147.79 3.68"/><polyline class="cls-66" points="147.86 3.68 147.86 37.34 147.79 37.34 147.79 3.68 147.86 3.68"/><polyline class="cls-67" points="147.93 3.68 147.93 37.34 147.86 37.34 147.86 3.68 147.93 3.68"/><polyline class="cls-68" points="148 3.68 148 37.34 147.93 37.34 147.93 3.68 148 3.68"/><polyline class="cls-69" points="148.07 3.68 148.07 37.34 148 37.34 148 3.68 148.07 3.68"/><polyline class="cls-70" points="148.14 3.68 148.14 37.34 148.07 37.34 148.07 3.68 148.14 3.68"/><polyline class="cls-71" points="148.2 3.68 148.2 37.34 148.14 37.34 148.14 3.68 148.2 3.68"/><polyline class="cls-72" points="148.28 3.68 148.28 37.34 148.2 37.34 148.2 3.68 148.28 3.68"/><polyline class="cls-73" points="148.34 3.68 148.34 37.34 148.28 37.34 148.28 3.68 148.34 3.68"/><polyline class="cls-74" points="148.41 3.68 148.41 37.34 148.34 37.34 148.34 3.68 148.41 3.68"/><polyline class="cls-75" points="148.48 3.68 148.48 37.34 148.41 37.34 148.41 3.68 148.48 3.68"/><polyline class="cls-76" points="148.55 3.68 148.55 37.34 148.48 37.34 148.48 3.68 148.55 3.68"/><polyline class="cls-77" points="148.62 3.68 148.62 37.34 148.55 37.34 148.55 3.68 148.62 3.68"/><polyline class="cls-78" points="148.69 3.68 148.69 37.34 148.62 37.34 148.62 3.68 148.69 3.68"/><polyline class="cls-79" points="148.75 3.68 148.75 37.34 148.69 37.34 148.69 3.68 148.75 3.68"/><polyline class="cls-80" points="148.82 3.68 148.82 37.34 148.75 37.34 148.75 3.68 148.82 3.68"/><polyline class="cls-81" points="148.89 3.68 148.89 37.34 148.82 37.34 148.82 3.68 148.89 3.68"/><polyline class="cls-82" points="148.96 3.68 148.96 37.34 148.89 37.34 148.89 3.68 148.96 3.68"/><polyline class="cls-83" points="149.03 3.68 149.03 37.34 148.96 37.34 148.96 3.68 149.03 3.68"/><polyline class="cls-84" points="149.1 3.68 149.1 37.34 149.03 37.34 149.03 3.68 149.1 3.68"/><polyline class="cls-85" points="149.16 3.68 149.16 37.34 149.1 37.34 149.1 3.68 149.16 3.68"/><polyline class="cls-86" points="149.23 3.68 149.23 37.34 149.16 37.34 149.16 3.68 149.23 3.68"/><polyline class="cls-87" points="149.3 3.68 149.3 37.34 149.23 37.34 149.23 3.68 149.3 3.68"/><polyline class="cls-88" points="149.37 3.68 149.37 37.34 149.3 37.34 149.3 3.68 149.37 3.68"/><polyline class="cls-89" points="149.44 3.68 149.44 37.34 149.37 37.34 149.37 3.68 149.44 3.68"/><polyline class="cls-90" points="149.51 3.68 149.51 37.34 149.44 37.34 149.44 3.68 149.51 3.68"/><polyline class="cls-91" points="149.58 3.68 149.58 37.34 149.51 37.34 149.51 3.68 149.58 3.68"/><polyline class="cls-92" points="149.65 3.68 149.65 37.34 149.58 37.34 149.58 3.68 149.65 3.68"/><polyline class="cls-93" points="149.72 3.68 149.72 37.34 149.65 37.34 149.65 3.68 149.72 3.68"/><polyline class="cls-94" points="149.78 3.68 149.78 37.34 149.72 37.34 149.72 3.68 149.78 3.68"/><polyline class="cls-95" points="149.85 37.34 149.85 3.68 149.78 3.68 149.78 37.34 149.85 37.34"/><polyline class="cls-96" points="149.92 37.34 149.92 3.68 149.85 3.68 149.85 37.34 149.92 37.34"/><polyline class="cls-97" points="149.99 37.34 149.99 3.68 149.92 3.68 149.92 37.34 149.99 37.34"/><polyline class="cls-98" points="150.06 37.34 150.06 3.68 149.99 3.68 149.99 37.34 150.06 37.34"/><polyline class="cls-99" points="150.13 3.68 150.13 37.34 150.06 37.34 150.06 3.68 150.13 3.68"/><polyline class="cls-100" points="150.2 3.68 150.2 37.34 150.13 37.34 150.13 3.68 150.2 3.68"/><polyline class="cls-101" points="150.26 3.68 150.26 37.34 150.2 37.34 150.2 3.68 150.26 3.68"/><polyline class="cls-102" points="150.33 37.34 150.33 3.68 150.26 3.68 150.26 37.34 150.33 37.34"/><polyline class="cls-103" points="150.4 37.34 150.4 3.68 150.33 3.68 150.33 37.34 150.4 37.34"/><polyline class="cls-103" points="150.48 37.34 150.48 3.68 150.41 3.68 150.41 37.34 150.48 37.34"/><polyline class="cls-102" points="150.55 3.68 150.55 37.34 150.48 37.34 150.48 3.68 150.55 3.68"/><polyline class="cls-101" points="150.62 3.68 150.62 37.34 150.55 37.34 150.55 3.68 150.62 3.68"/><polyline class="cls-100" points="150.69 3.68 150.69 37.34 150.62 37.34 150.62 3.68 150.69 3.68"/><polyline class="cls-99" points="150.76 37.34 150.76 3.68 150.69 3.68 150.69 37.34 150.76 37.34"/><polyline class="cls-98" points="150.84 37.34 150.84 3.68 150.76 3.68 150.76 37.34 150.84 37.34"/><polyline class="cls-104" points="150.91 37.34 150.91 3.68 150.84 3.68 150.84 37.34 150.91 37.34"/><polyline class="cls-96" points="150.98 3.68 150.98 37.34 150.91 37.34 150.91 3.68 150.98 3.68"/><polyline class="cls-95" points="151.06 3.68 151.06 37.34 150.98 37.34 150.98 3.68 151.06 3.68"/><polyline class="cls-105" points="151.13 3.68 151.13 37.34 151.06 37.34 151.06 3.68 151.13 3.68"/><polyline class="cls-93" points="151.2 37.34 151.2 3.68 151.13 3.68 151.13 37.34 151.2 37.34"/><polyline class="cls-92" points="151.27 37.34 151.27 3.68 151.2 3.68 151.2 37.34 151.27 37.34"/><polyline class="cls-106" points="151.35 37.34 151.35 3.68 151.27 3.68 151.27 37.34 151.35 37.34"/><polyline class="cls-90" points="151.42 3.68 151.42 37.34 151.35 37.34 151.35 3.68 151.42 3.68"/><polyline class="cls-107" points="151.49 3.68 151.49 37.34 151.42 37.34 151.42 3.68 151.49 3.68"/><polyline class="cls-88" points="151.56 3.68 151.56 37.34 151.49 37.34 151.49 3.68 151.56 3.68"/><polyline class="cls-87" points="151.63 3.68 151.63 37.34 151.56 37.34 151.56 3.68 151.63 3.68"/><polyline class="cls-108" points="151.71 37.34 151.71 3.68 151.63 3.68 151.63 37.34 151.71 37.34"/><polyline class="cls-85" points="151.78 37.34 151.78 3.68 151.71 3.68 151.71 37.34 151.78 37.34"/><polyline class="cls-109" points="151.85 3.68 151.85 37.34 151.78 37.34 151.78 3.68 151.85 3.68"/><polyline class="cls-83" points="151.92 3.68 151.92 37.34 151.85 37.34 151.85 3.68 151.92 3.68"/><polyline class="cls-110" points="152 3.68 152 37.34 151.92 37.34 151.92 3.68 152 3.68"/><polyline class="cls-81" points="152.07 3.68 152.07 37.34 152 37.34 152 3.68 152.07 3.68"/><polyline class="cls-80" points="152.14 37.34 152.14 3.68 152.07 3.68 152.07 37.34 152.14 37.34"/><polyline class="cls-111" points="152.22 37.34 152.22 3.68 152.14 3.68 152.14 37.34 152.22 37.34"/><polyline class="cls-78" points="152.29 3.68 152.29 37.34 152.22 37.34 152.22 3.68 152.29 3.68"/><polyline class="cls-112" points="152.36 3.68 152.36 37.34 152.29 37.34 152.29 3.68 152.36 3.68"/><polyline class="cls-76" points="152.43 3.68 152.43 37.34 152.36 37.34 152.36 3.68 152.43 3.68"/><polyline class="cls-113" points="152.51 3.68 152.51 37.34 152.43 37.34 152.43 3.68 152.51 3.68"/><polyline class="cls-74" points="152.58 37.34 152.58 3.68 152.51 3.68 152.51 37.34 152.58 37.34"/><polyline class="cls-114" points="152.65 37.34 152.65 3.68 152.58 3.68 152.58 37.34 152.65 37.34"/><polyline class="cls-72" points="152.72 3.68 152.72 37.34 152.65 37.34 152.65 3.68 152.72 3.68"/><polyline class="cls-115" points="152.8 3.68 152.8 37.34 152.72 37.34 152.72 3.68 152.8 3.68"/><polyline class="cls-69" points="152.87 3.68 152.87 37.34 152.8 37.34 152.8 3.68 152.87 3.68"/><polyline class="cls-116" points="152.94 3.68 152.94 37.34 152.87 37.34 152.87 3.68 152.94 3.68"/><polyline class="cls-68" points="153.01 37.34 153.01 3.68 152.94 3.68 152.94 37.34 153.01 37.34"/><polyline class="cls-117" points="153.08 37.34 153.08 3.68 153.01 3.68 153.01 37.34 153.08 37.34"/><polyline class="cls-118" points="153.16 3.68 153.16 37.34 153.08 37.34 153.08 3.68 153.16 3.68"/><polyline class="cls-65" points="153.23 3.68 153.23 37.34 153.16 37.34 153.16 3.68 153.23 3.68"/><polyline class="cls-64" points="153.3 3.68 153.3 37.34 153.23 37.34 153.23 3.68 153.3 3.68"/><polyline class="cls-63" points="153.38 3.68 153.38 37.34 153.3 37.34 153.3 3.68 153.38 3.68"/><polyline class="cls-62" points="153.45 3.68 153.45 37.34 153.38 37.34 153.38 3.68 153.45 3.68"/><polyline class="cls-60" points="153.52 37.34 153.52 3.68 153.45 3.68 153.45 37.34 153.52 37.34"/><polyline class="cls-119" points="153.59 3.68 153.59 37.34 153.52 37.34 153.52 3.68 153.59 3.68"/><polyline class="cls-58" points="153.67 3.68 153.67 37.34 153.59 37.34 153.59 3.68 153.67 3.68"/><polyline class="cls-120" points="153.74 3.68 153.74 37.34 153.67 37.34 153.67 3.68 153.74 3.68"/><polyline class="cls-56" points="153.81 3.68 153.81 37.34 153.74 37.34 153.74 3.68 153.81 3.68"/><polyline class="cls-56" points="153.88 3.68 153.88 37.34 153.81 37.34 153.81 3.68 153.88 3.68"/><polyline class="cls-55" points="153.95 3.68 153.95 37.34 153.88 37.34 153.88 3.68 153.95 3.68"/><polyline class="cls-121" points="154.03 3.68 154.03 37.34 153.95 37.34 153.95 3.68 154.03 3.68"/><polyline class="cls-53" points="154.1 3.68 154.1 37.34 154.03 37.34 154.03 3.68 154.1 3.68"/><polyline class="cls-122" points="154.17 3.68 154.17 37.34 154.1 37.34 154.1 3.68 154.17 3.68"/><polyline class="cls-51" points="154.25 3.68 154.25 37.34 154.17 37.34 154.17 3.68 154.25 3.68"/><polyline class="cls-123" points="154.32 3.68 154.32 37.34 154.25 37.34 154.25 3.68 154.32 3.68"/><polyline class="cls-49" points="154.39 3.68 154.39 37.34 154.32 37.34 154.32 3.68 154.39 3.68"/><polyline class="cls-124" points="154.46 3.68 154.46 37.34 154.39 37.34 154.39 3.68 154.46 3.68"/><polyline class="cls-47" points="154.54 3.68 154.54 37.34 154.46 37.34 154.46 3.68 154.54 3.68"/><polyline class="cls-47" points="154.61 3.68 154.61 37.34 154.54 37.34 154.54 3.68 154.61 3.68"/><polyline class="cls-46" points="154.68 3.68 154.68 37.34 154.61 37.34 154.61 3.68 154.68 3.68"/><polyline class="cls-125" points="154.75 3.68 154.75 37.34 154.68 37.34 154.68 3.68 154.75 3.68"/><polyline class="cls-43" points="154.82 3.68 154.82 37.34 154.75 37.34 154.75 3.68 154.82 3.68"/><polyline class="cls-126" points="154.9 3.68 154.9 37.34 154.82 37.34 154.82 3.68 154.9 3.68"/><polyline class="cls-127" points="154.97 3.68 154.97 37.34 154.9 37.34 154.9 3.68 154.97 3.68"/><polyline class="cls-41" points="155.04 3.68 155.04 37.34 154.97 37.34 154.97 3.68 155.04 3.68"/><polyline class="cls-128" points="155.11 3.68 155.11 37.34 155.04 37.34 155.04 3.68 155.11 3.68"/><polyline class="cls-39" points="155.19 3.68 155.19 37.34 155.11 37.34 155.11 3.68 155.19 3.68"/><polyline class="cls-39" points="155.26 3.68 155.26 37.34 155.19 37.34 155.19 3.68 155.26 3.68"/><polyline class="cls-37" points="155.33 3.68 155.33 37.34 155.26 37.34 155.26 3.68 155.33 3.68"/><polyline class="cls-36" points="155.41 3.68 155.41 37.34 155.33 37.34 155.33 3.68 155.41 3.68"/><polyline class="cls-35" points="155.48 3.68 155.48 37.34 155.41 37.34 155.41 3.68 155.48 3.68"/><polyline class="cls-34" points="155.55 3.68 155.55 37.34 155.48 37.34 155.48 3.68 155.55 3.68"/><polyline class="cls-129" points="155.62 3.68 155.62 37.34 155.55 37.34 155.55 3.68 155.62 3.68"/><polyline class="cls-32" points="155.69 3.68 155.69 37.34 155.62 37.34 155.62 3.68 155.69 3.68"/><polyline class="cls-31" points="155.77 3.68 155.77 37.34 155.69 37.34 155.69 3.68 155.77 3.68"/><polyline class="cls-30" points="155.84 3.68 155.84 37.34 155.77 37.34 155.77 3.68 155.84 3.68"/><polyline class="cls-130" points="155.91 3.68 155.91 37.34 155.84 37.34 155.84 3.68 155.91 3.68"/><polyline class="cls-28" points="155.98 3.68 155.98 37.34 155.91 37.34 155.91 3.68 155.98 3.68"/><polyline class="cls-27" points="156.06 3.68 156.06 37.34 155.98 37.34 155.98 3.68 156.06 3.68"/><polyline class="cls-27" points="156.13 3.68 156.13 37.34 156.06 37.34 156.06 3.68 156.13 3.68"/><polyline class="cls-131" points="156.2 3.68 156.2 37.34 156.13 37.34 156.13 3.68 156.2 3.68"/><polyline class="cls-25" points="156.27 3.68 156.27 37.34 156.2 37.34 156.2 3.68 156.27 3.68"/><polyline class="cls-24" points="156.35 3.68 156.35 37.34 156.27 37.34 156.27 3.68 156.35 3.68"/><polyline class="cls-24" points="156.42 3.68 156.42 37.34 156.35 37.34 156.35 3.68 156.42 3.68"/><polyline class="cls-23" points="156.49 3.68 156.49 37.34 156.42 37.34 156.42 3.68 156.49 3.68"/><polyline class="cls-22" points="156.57 3.68 156.57 37.34 156.49 37.34 156.49 3.68 156.57 3.68"/><polyline class="cls-21" points="156.64 3.68 156.64 37.34 156.57 37.34 156.57 3.68 156.64 3.68"/><polyline class="cls-21" points="156.71 3.68 156.71 37.34 156.64 37.34 156.64 3.68 156.71 3.68"/><polyline class="cls-20" points="156.78 37.34 156.78 3.68 156.71 3.68 156.71 37.34 156.78 37.34"/><polyline class="cls-19" points="156.86 37.34 156.86 3.68 156.78 3.68 156.78 37.34 156.86 37.34"/><polyline class="cls-19" points="156.93 37.34 156.93 3.68 156.86 3.68 156.86 37.34 156.93 37.34"/><polyline class="cls-18" points="157 3.68 157 37.34 156.93 37.34 156.93 3.68 157 3.68"/><polyline class="cls-18" points="157.07 3.68 157.07 37.34 157 37.34 157 3.68 157.07 3.68"/><polyline class="cls-17" points="157.14 37.34 157.14 3.68 157.07 3.68 157.07 37.34 157.14 37.34"/><polyline class="cls-16" points="157.22 37.34 157.22 3.68 157.14 3.68 157.14 37.34 157.22 37.34"/><polyline class="cls-16" points="157.29 37.34 157.29 3.68 157.22 3.68 157.22 37.34 157.29 37.34"/><polyline class="cls-15" points="157.36 37.34 157.36 3.68 157.29 3.68 157.29 37.34 157.36 37.34"/><polyline class="cls-14" points="157.44 3.68 157.44 37.34 157.36 37.34 157.36 3.68 157.44 3.68"/><polyline class="cls-14" points="157.51 3.68 157.51 37.34 157.44 37.34 157.44 3.68 157.51 3.68"/><polyline class="cls-13" points="157.58 37.34 157.58 3.68 157.51 3.68 157.51 37.34 157.58 37.34"/><polyline class="cls-12" points="157.65 37.34 157.65 3.68 157.58 3.68 157.58 37.34 157.65 37.34"/><polyline class="cls-12" points="157.73 37.34 157.73 3.68 157.65 3.68 157.65 37.34 157.73 37.34"/><polyline class="cls-11" points="157.8 37.34 157.8 3.68 157.73 3.68 157.73 37.34 157.8 37.34"/><polyline class="cls-11" points="157.87 3.68 157.87 37.34 157.8 37.34 157.8 3.68 157.87 3.68"/><polyline class="cls-11" points="157.94 3.68 157.94 37.34 157.87 37.34 157.87 3.68 157.94 3.68"/><polyline class="cls-11" points="158.01 3.68 158.01 37.34 157.94 37.34 157.94 3.68 158.01 3.68"/><polyline class="cls-10" points="158.09 37.34 158.09 3.68 158.01 3.68 158.01 37.34 158.09 37.34"/><polyline class="cls-9" points="158.16 37.34 158.16 3.68 158.09 3.68 158.09 37.34 158.16 37.34"/><polyline class="cls-9" points="158.23 37.34 158.23 3.68 158.16 3.68 158.16 37.34 158.23 37.34"/><polyline class="cls-8" points="158.3 3.68 158.3 37.34 158.23 37.34 158.23 3.68 158.3 3.68"/><polyline class="cls-8" points="158.38 3.68 158.38 37.34 158.3 37.34 158.3 3.68 158.38 3.68"/><polyline class="cls-8" points="158.45 3.68 158.45 37.34 158.38 37.34 158.38 3.68 158.45 3.68"/><polyline class="cls-7" points="158.52 37.34 158.52 3.68 158.45 3.68 158.45 37.34 158.52 37.34"/><polyline class="cls-7" points="158.59 37.34 158.59 3.68 158.52 3.68 158.52 37.34 158.59 37.34"/><polyline class="cls-7" points="158.67 3.68 158.67 37.34 158.59 37.34 158.59 3.68 158.67 3.68"/><polyline class="cls-7" points="158.74 3.68 158.74 37.34 158.67 37.34 158.67 3.68 158.74 3.68"/><polyline class="cls-7" points="158.81 3.68 158.81 37.34 158.74 37.34 158.74 3.68 158.81 3.68"/><polyline class="cls-7" points="158.88 3.68 158.88 37.34 158.81 37.34 158.81 3.68 158.88 3.68"/><polyline class="cls-7" points="158.95 37.34 158.95 3.68 158.88 3.68 158.88 37.34 158.95 37.34"/><polyline class="cls-7" points="159.03 37.34 159.03 3.68 158.95 3.68 158.95 37.34 159.03 37.34"/><polyline class="cls-6" points="159.1 3.68 159.1 37.34 159.03 37.34 159.03 3.68 159.1 3.68"/><polyline class="cls-6" points="159.17 3.68 159.17 37.34 159.1 37.34 159.1 3.68 159.17 3.68"/><polyline class="cls-6" points="159.25 3.68 159.25 37.34 159.17 37.34 159.17 3.68 159.25 3.68"/><polyline class="cls-5" points="159.32 3.68 159.32 37.34 159.25 37.34 159.25 3.68 159.32 3.68"/><polyline class="cls-5" points="159.39 3.68 159.39 37.34 159.32 37.34 159.32 3.68 159.39 3.68"/><polyline class="cls-5" points="159.47 37.34 159.47 3.68 159.39 3.68 159.39 37.34 159.47 37.34"/><polyline class="cls-5" points="159.54 3.68 159.54 37.34 159.47 37.34 159.47 3.68 159.54 3.68"/><polyline class="cls-5" points="159.61 3.68 159.61 37.34 159.54 37.34 159.54 3.68 159.61 3.68"/><polyline class="cls-5" points="159.68 3.68 159.68 37.34 159.61 37.34 159.61 3.68 159.68 3.68"/><polyline class="cls-5" points="159.75 3.68 159.75 37.34 159.68 37.34 159.68 3.68 159.75 3.68"/><polyline class="cls-5" points="159.83 3.68 159.83 37.34 159.75 37.34 159.75 3.68 159.83 3.68"/><polyline class="cls-5" points="159.9 37.34 159.9 3.68 159.83 3.68 159.83 37.34 159.9 37.34"/><polyline class="cls-5" points="159.9 37.34 159.9 3.68 166.73 3.68 166.73 37.34 159.9 37.34"/></g><path class="cls-3" d="M372.05,295.43a5.76,5.76,0,1,1-7.53-3.11A5.76,5.76,0,0,1,372.05,295.43Z" transform="translate(-216.82 -277.13)"/><g class="cls-132"><polyline class="cls-5" points="147.49 15.73 147.49 25.28 145.13 25.28 145.13 15.73 147.49 15.73"/><polyline class="cls-5" points="147.51 15.73 147.51 25.28 147.49 25.28 147.49 15.73 147.51 15.73"/><polyline class="cls-5" points="147.53 15.73 147.53 25.28 147.51 25.28 147.51 15.73 147.53 15.73"/><polyline class="cls-5" points="147.55 15.73 147.55 25.28 147.53 25.28 147.53 15.73 147.55 15.73"/><polyline class="cls-5" points="147.57 15.73 147.57 25.28 147.55 25.28 147.55 15.73 147.57 15.73"/><polyline class="cls-5" points="147.59 15.73 147.59 25.28 147.57 25.28 147.57 15.73 147.59 15.73"/><polyline class="cls-5" points="147.61 15.73 147.61 25.28 147.59 25.28 147.59 15.73 147.61 15.73"/><polyline class="cls-5" points="147.63 15.73 147.63 25.28 147.61 25.28 147.61 15.73 147.63 15.73"/><polyline class="cls-5" points="147.65 15.73 147.65 25.28 147.63 25.28 147.63 15.73 147.65 15.73"/><polyline class="cls-6" points="147.67 25.28 147.67 15.73 147.65 15.73 147.65 25.28 147.67 25.28"/><polyline class="cls-6" points="147.69 25.28 147.69 15.73 147.67 15.73 147.67 25.28 147.69 25.28"/><polyline class="cls-6" points="147.71 25.28 147.71 15.73 147.69 15.73 147.69 25.28 147.71 25.28"/><polyline class="cls-7" points="147.72 25.28 147.72 15.73 147.71 15.73 147.71 25.28 147.72 25.28"/><polyline class="cls-7" points="147.75 25.28 147.75 15.73 147.72 15.73 147.72 25.28 147.75 25.28"/><polyline class="cls-7" points="147.76 25.28 147.76 15.73 147.75 15.73 147.75 25.28 147.76 25.28"/><polyline class="cls-7" points="147.78 25.28 147.78 15.73 147.76 15.73 147.76 25.28 147.78 25.28"/><polyline class="cls-7" points="147.81 15.73 147.81 25.28 147.78 25.28 147.78 15.73 147.81 15.73"/><polyline class="cls-7" points="147.82 15.73 147.82 25.28 147.81 25.28 147.81 15.73 147.82 15.73"/><polyline class="cls-7" points="147.84 15.73 147.84 25.28 147.82 25.28 147.82 15.73 147.84 15.73"/><polyline class="cls-7" points="147.86 15.73 147.86 25.28 147.84 25.28 147.84 15.73 147.86 15.73"/><polyline class="cls-7" points="147.88 15.73 147.88 25.28 147.86 25.28 147.86 15.73 147.88 15.73"/><polyline class="cls-8" points="147.9 15.73 147.9 25.28 147.88 25.28 147.88 15.73 147.9 15.73"/><polyline class="cls-8" points="147.92 15.73 147.92 25.28 147.9 25.28 147.9 15.73 147.92 15.73"/><polyline class="cls-8" points="147.94 15.73 147.94 25.28 147.92 25.28 147.92 15.73 147.94 15.73"/><polyline class="cls-9" points="147.96 15.73 147.96 25.28 147.94 25.28 147.94 15.73 147.96 15.73"/><polyline class="cls-9" points="147.98 15.73 147.98 25.28 147.96 25.28 147.96 15.73 147.98 15.73"/><polyline class="cls-10" points="148 15.73 148 25.28 147.98 25.28 147.98 15.73 148 15.73"/><polyline class="cls-11" points="148.02 15.73 148.02 25.28 148 25.28 148 15.73 148.02 15.73"/><polyline class="cls-11" points="148.04 15.73 148.04 25.28 148.02 25.28 148.02 15.73 148.04 15.73"/><polyline class="cls-11" points="148.06 15.73 148.06 25.28 148.04 25.28 148.04 15.73 148.06 15.73"/><polyline class="cls-12" points="148.08 15.73 148.08 25.28 148.06 25.28 148.06 15.73 148.08 15.73"/><polyline class="cls-12" points="148.1 15.73 148.1 25.28 148.08 25.28 148.08 15.73 148.1 15.73"/><polyline class="cls-13" points="148.12 15.73 148.12 25.28 148.1 25.28 148.1 15.73 148.12 15.73"/><polyline class="cls-13" points="148.14 15.73 148.14 25.28 148.12 25.28 148.12 15.73 148.14 15.73"/><polyline class="cls-14" points="148.16 15.73 148.16 25.28 148.14 25.28 148.14 15.73 148.16 15.73"/><polyline class="cls-15" points="148.18 15.73 148.18 25.28 148.16 25.28 148.16 15.73 148.18 15.73"/><polyline class="cls-15" points="148.19 15.73 148.19 25.28 148.18 25.28 148.18 15.73 148.19 15.73"/><polyline class="cls-16" points="148.21 15.73 148.21 25.28 148.19 25.28 148.19 15.73 148.21 15.73"/><polyline class="cls-17" points="148.24 15.73 148.24 25.28 148.21 25.28 148.21 15.73 148.24 15.73"/><polyline class="cls-18" points="148.25 15.73 148.25 25.28 148.24 25.28 148.24 15.73 148.25 15.73"/><polyline class="cls-18" points="148.27 15.73 148.27 25.28 148.25 25.28 148.25 15.73 148.27 15.73"/><polyline class="cls-18" points="148.29 15.73 148.29 25.28 148.27 25.28 148.27 15.73 148.29 15.73"/><polyline class="cls-19" points="148.31 15.73 148.31 25.28 148.29 25.28 148.29 15.73 148.31 15.73"/><polyline class="cls-20" points="148.33 15.73 148.33 25.28 148.31 25.28 148.31 15.73 148.33 15.73"/><polyline class="cls-21" points="148.35 15.73 148.35 25.28 148.33 25.28 148.33 15.73 148.35 15.73"/><polyline class="cls-21" points="148.37 15.73 148.37 25.28 148.35 25.28 148.35 15.73 148.37 15.73"/><polyline class="cls-22" points="148.39 15.73 148.39 25.28 148.37 25.28 148.37 15.73 148.39 15.73"/><polyline class="cls-23" points="148.41 15.73 148.41 25.28 148.39 25.28 148.39 15.73 148.41 15.73"/><polyline class="cls-24" points="148.43 15.73 148.43 25.28 148.41 25.28 148.41 15.73 148.43 15.73"/><polyline class="cls-24" points="148.45 15.73 148.45 25.28 148.43 25.28 148.43 15.73 148.45 15.73"/><polyline class="cls-25" points="148.47 15.73 148.47 25.28 148.45 25.28 148.45 15.73 148.47 15.73"/><polyline class="cls-26" points="148.49 15.73 148.49 25.28 148.47 25.28 148.47 15.73 148.49 15.73"/><polyline class="cls-27" points="148.51 15.73 148.51 25.28 148.49 25.28 148.49 15.73 148.51 15.73"/><polyline class="cls-27" points="148.53 15.73 148.53 25.28 148.51 25.28 148.51 15.73 148.53 15.73"/><polyline class="cls-28" points="148.55 15.73 148.55 25.28 148.53 25.28 148.53 15.73 148.55 15.73"/><polyline class="cls-29" points="148.56 15.73 148.56 25.28 148.55 25.28 148.55 15.73 148.56 15.73"/><polyline class="cls-30" points="148.59 15.73 148.59 25.28 148.56 25.28 148.56 15.73 148.59 15.73"/><polyline class="cls-31" points="148.6 15.73 148.6 25.28 148.59 25.28 148.59 15.73 148.6 15.73"/><polyline class="cls-32" points="148.62 15.73 148.62 25.28 148.6 25.28 148.6 15.73 148.62 15.73"/><polyline class="cls-33" points="148.64 15.73 148.64 25.28 148.62 25.28 148.62 15.73 148.64 15.73"/><polyline class="cls-34" points="148.66 15.73 148.66 25.28 148.64 25.28 148.64 15.73 148.66 15.73"/><polyline class="cls-35" points="148.68 15.73 148.68 25.28 148.66 25.28 148.66 15.73 148.68 15.73"/><polyline class="cls-36" points="148.7 15.73 148.7 25.28 148.68 25.28 148.68 15.73 148.7 15.73"/><polyline class="cls-37" points="148.72 15.73 148.72 25.28 148.7 25.28 148.7 15.73 148.72 15.73"/><polyline class="cls-38" points="148.74 25.28 148.74 15.73 148.72 15.73 148.72 25.28 148.74 25.28"/><polyline class="cls-39" points="148.76 25.28 148.76 15.73 148.74 15.73 148.74 25.28 148.76 25.28"/><polyline class="cls-40" points="148.78 25.28 148.78 15.73 148.76 15.73 148.76 25.28 148.78 25.28"/><polyline class="cls-41" points="148.8 25.28 148.8 15.73 148.78 15.73 148.78 25.28 148.8 25.28"/><polyline class="cls-41" points="148.82 25.28 148.82 15.73 148.8 15.73 148.8 25.28 148.82 25.28"/><polyline class="cls-42" points="148.84 25.28 148.84 15.73 148.82 15.73 148.82 25.28 148.84 25.28"/><polyline class="cls-43" points="148.86 25.28 148.86 15.73 148.84 15.73 148.84 25.28 148.86 25.28"/><polyline class="cls-44" points="148.88 25.28 148.88 15.73 148.86 15.73 148.86 25.28 148.88 25.28"/><polyline class="cls-45" points="148.9 25.28 148.9 15.73 148.88 15.73 148.88 25.28 148.9 25.28"/><polyline class="cls-46" points="148.92 15.73 148.92 25.28 148.9 25.28 148.9 15.73 148.92 15.73"/><polyline class="cls-47" points="148.94 15.73 148.94 25.28 148.92 25.28 148.92 15.73 148.94 15.73"/><polyline class="cls-48" points="148.95 15.73 148.95 25.28 148.94 25.28 148.94 15.73 148.95 15.73"/><polyline class="cls-49" points="148.97 15.73 148.97 25.28 148.95 25.28 148.95 15.73 148.97 15.73"/><polyline class="cls-50" points="148.99 25.28 148.99 15.73 148.97 15.73 148.97 25.28 148.99 25.28"/><polyline class="cls-51" points="149.01 25.28 149.01 15.73 148.99 15.73 148.99 25.28 149.01 25.28"/><polyline class="cls-51" points="149.03 25.28 149.03 15.73 149.01 15.73 149.01 25.28 149.03 25.28"/><polyline class="cls-52" points="149.05 25.28 149.05 15.73 149.03 15.73 149.03 25.28 149.05 25.28"/><polyline class="cls-53" points="149.07 25.28 149.07 15.73 149.05 15.73 149.05 25.28 149.07 25.28"/><polyline class="cls-54" points="149.09 25.28 149.09 15.73 149.07 15.73 149.07 25.28 149.09 25.28"/><polyline class="cls-55" points="149.11 25.28 149.11 15.73 149.09 15.73 149.09 25.28 149.11 25.28"/><polyline class="cls-56" points="149.13 25.28 149.13 15.73 149.11 15.73 149.11 25.28 149.13 25.28"/><polyline class="cls-57" points="149.15 25.28 149.15 15.73 149.13 15.73 149.13 25.28 149.15 25.28"/><polyline class="cls-58" points="149.17 25.28 149.17 15.73 149.15 15.73 149.15 25.28 149.17 25.28"/><polyline class="cls-59" points="149.19 25.28 149.19 15.73 149.17 15.73 149.17 25.28 149.19 25.28"/><polyline class="cls-60" points="149.21 25.28 149.21 15.73 149.19 15.73 149.19 25.28 149.21 25.28"/><polyline class="cls-61" points="149.23 25.28 149.23 15.73 149.21 15.73 149.21 25.28 149.23 25.28"/><polyline class="cls-62" points="149.25 25.28 149.25 15.73 149.23 15.73 149.23 25.28 149.25 25.28"/><polyline class="cls-63" points="149.27 25.28 149.27 15.73 149.25 15.73 149.25 25.28 149.27 25.28"/><polyline class="cls-64" points="149.29 25.28 149.29 15.73 149.27 15.73 149.27 25.28 149.29 25.28"/><polyline class="cls-65" points="149.3 25.28 149.3 15.73 149.29 15.73 149.29 25.28 149.3 25.28"/><polyline class="cls-66" points="149.32 25.28 149.32 15.73 149.3 15.73 149.3 25.28 149.32 25.28"/><polyline class="cls-67" points="149.34 25.28 149.34 15.73 149.32 15.73 149.32 25.28 149.34 25.28"/><polyline class="cls-68" points="149.36 25.28 149.36 15.73 149.34 15.73 149.34 25.28 149.36 25.28"/><polyline class="cls-69" points="149.38 25.28 149.38 15.73 149.36 15.73 149.36 25.28 149.38 25.28"/><polyline class="cls-70" points="149.4 25.28 149.4 15.73 149.38 15.73 149.38 25.28 149.4 25.28"/><polyline class="cls-71" points="149.42 25.28 149.42 15.73 149.4 15.73 149.4 25.28 149.42 25.28"/><polyline class="cls-72" points="149.44 25.28 149.44 15.73 149.42 15.73 149.42 25.28 149.44 25.28"/><polyline class="cls-73" points="149.46 25.28 149.46 15.73 149.44 15.73 149.44 25.28 149.46 25.28"/><polyline class="cls-74" points="149.48 25.28 149.48 15.73 149.46 15.73 149.46 25.28 149.48 25.28"/><polyline class="cls-75" points="149.5 25.28 149.5 15.73 149.48 15.73 149.48 25.28 149.5 25.28"/><polyline class="cls-76" points="149.52 25.28 149.52 15.73 149.5 15.73 149.5 25.28 149.52 25.28"/><polyline class="cls-77" points="149.54 25.28 149.54 15.73 149.52 15.73 149.52 25.28 149.54 25.28"/><polyline class="cls-78" points="149.56 25.28 149.56 15.73 149.54 15.73 149.54 25.28 149.56 25.28"/><polyline class="cls-79" points="149.58 25.28 149.58 15.73 149.56 15.73 149.56 25.28 149.58 25.28"/><polyline class="cls-80" points="149.6 25.28 149.6 15.73 149.58 15.73 149.58 25.28 149.6 25.28"/><polyline class="cls-81" points="149.62 25.28 149.62 15.73 149.6 15.73 149.6 25.28 149.62 25.28"/><polyline class="cls-82" points="149.64 25.28 149.64 15.73 149.62 15.73 149.62 25.28 149.64 25.28"/><polyline class="cls-83" points="149.66 25.28 149.66 15.73 149.64 15.73 149.64 25.28 149.66 25.28"/><polyline class="cls-84" points="149.68 25.28 149.68 15.73 149.66 15.73 149.66 25.28 149.68 25.28"/><polyline class="cls-85" points="149.69 25.28 149.69 15.73 149.68 15.73 149.68 25.28 149.69 25.28"/><polyline class="cls-86" points="149.72 25.28 149.72 15.73 149.69 15.73 149.69 25.28 149.72 25.28"/><polyline class="cls-87" points="149.74 25.28 149.74 15.73 149.72 15.73 149.72 25.28 149.74 25.28"/><polyline class="cls-88" points="149.75 25.28 149.75 15.73 149.74 15.73 149.74 25.28 149.75 25.28"/><polyline class="cls-89" points="149.78 25.28 149.78 15.73 149.75 15.73 149.75 25.28 149.78 25.28"/><polyline class="cls-90" points="149.79 25.28 149.79 15.73 149.78 15.73 149.78 25.28 149.79 25.28"/><polyline class="cls-91" points="149.81 25.28 149.81 15.73 149.79 15.73 149.79 25.28 149.81 25.28"/><polyline class="cls-92" points="149.83 25.28 149.83 15.73 149.81 15.73 149.81 25.28 149.83 25.28"/><polyline class="cls-93" points="149.85 25.28 149.85 15.73 149.83 15.73 149.83 25.28 149.85 25.28"/><polyline class="cls-94" points="149.87 25.28 149.87 15.73 149.85 15.73 149.85 25.28 149.87 25.28"/><polyline class="cls-95" points="149.89 25.28 149.89 15.73 149.87 15.73 149.87 25.28 149.89 25.28"/><polyline class="cls-96" points="149.91 25.28 149.91 15.73 149.89 15.73 149.89 25.28 149.91 25.28"/><polyline class="cls-97" points="149.93 25.28 149.93 15.73 149.91 15.73 149.91 25.28 149.93 25.28"/><polyline class="cls-98" points="149.95 25.28 149.95 15.73 149.93 15.73 149.93 25.28 149.95 25.28"/><polyline class="cls-99" points="149.97 25.28 149.97 15.73 149.95 15.73 149.95 25.28 149.97 25.28"/><polyline class="cls-100" points="149.99 25.28 149.99 15.73 149.97 15.73 149.97 25.28 149.99 25.28"/><polyline class="cls-101" points="150.01 25.28 150.01 15.73 149.99 15.73 149.99 25.28 150.01 25.28"/><polyline class="cls-102" points="150.03 25.28 150.03 15.73 150.01 15.73 150.01 25.28 150.03 25.28"/><polyline class="cls-103" points="150.05 15.73 150.05 25.28 150.03 25.28 150.03 15.73 150.05 15.73"/><polyline class="cls-103" points="150.07 15.73 150.07 25.28 150.05 25.28 150.05 15.73 150.07 15.73"/><polyline class="cls-102" points="150.09 15.73 150.09 25.28 150.07 25.28 150.07 15.73 150.09 15.73"/><polyline class="cls-101" points="150.11 15.73 150.11 25.28 150.09 25.28 150.09 15.73 150.11 15.73"/><polyline class="cls-100" points="150.13 15.73 150.13 25.28 150.11 25.28 150.11 15.73 150.13 15.73"/><polyline class="cls-99" points="150.15 15.73 150.15 25.28 150.13 25.28 150.13 15.73 150.15 15.73"/><polyline class="cls-98" points="150.17 15.73 150.17 25.28 150.15 25.28 150.15 15.73 150.17 15.73"/><polyline class="cls-104" points="150.19 15.73 150.19 25.28 150.17 25.28 150.17 15.73 150.19 15.73"/><polyline class="cls-96" points="150.21 15.73 150.21 25.28 150.19 25.28 150.19 15.73 150.21 15.73"/><polyline class="cls-95" points="150.23 15.73 150.23 25.28 150.21 25.28 150.21 15.73 150.23 15.73"/><polyline class="cls-105" points="150.25 15.73 150.25 25.28 150.23 25.28 150.23 15.73 150.25 15.73"/><polyline class="cls-93" points="150.27 15.73 150.27 25.28 150.25 25.28 150.25 15.73 150.27 15.73"/><polyline class="cls-92" points="150.29 15.73 150.29 25.28 150.27 25.28 150.27 15.73 150.29 15.73"/><polyline class="cls-106" points="150.32 15.73 150.32 25.28 150.29 25.28 150.29 15.73 150.32 15.73"/><polyline class="cls-90" points="150.33 25.28 150.33 15.73 150.32 15.73 150.32 25.28 150.33 25.28"/><polyline class="cls-107" points="150.36 25.28 150.36 15.73 150.33 15.73 150.33 25.28 150.36 25.28"/><polyline class="cls-88" points="150.38 25.28 150.38 15.73 150.36 15.73 150.36 25.28 150.38 25.28"/><polyline class="cls-87" points="150.4 25.28 150.4 15.73 150.38 15.73 150.38 25.28 150.4 25.28"/><polyline class="cls-108" points="150.42 25.28 150.42 15.73 150.4 15.73 150.4 25.28 150.42 25.28"/><polyline class="cls-85" points="150.44 25.28 150.44 15.73 150.42 15.73 150.42 25.28 150.44 25.28"/><polyline class="cls-109" points="150.46 25.28 150.46 15.73 150.44 15.73 150.44 25.28 150.46 25.28"/><polyline class="cls-83" points="150.48 25.28 150.48 15.73 150.46 15.73 150.46 25.28 150.48 25.28"/><polyline class="cls-110" points="150.5 25.28 150.5 15.73 150.48 15.73 150.48 25.28 150.5 25.28"/><polyline class="cls-81" points="150.52 25.28 150.52 15.73 150.5 15.73 150.5 25.28 150.52 25.28"/><polyline class="cls-80" points="150.54 25.28 150.54 15.73 150.52 15.73 150.52 25.28 150.54 25.28"/><polyline class="cls-111" points="150.56 25.28 150.56 15.73 150.54 15.73 150.54 25.28 150.56 25.28"/><polyline class="cls-78" points="150.58 25.28 150.58 15.73 150.56 15.73 150.56 25.28 150.58 25.28"/><polyline class="cls-112" points="150.6 25.28 150.6 15.73 150.58 15.73 150.58 25.28 150.6 25.28"/><polyline class="cls-76" points="150.62 25.28 150.62 15.73 150.6 15.73 150.6 25.28 150.62 25.28"/><polyline class="cls-113" points="150.64 25.28 150.64 15.73 150.62 15.73 150.62 25.28 150.64 25.28"/><polyline class="cls-74" points="150.66 25.28 150.66 15.73 150.64 15.73 150.64 25.28 150.66 25.28"/><polyline class="cls-114" points="150.68 25.28 150.68 15.73 150.66 15.73 150.66 25.28 150.68 25.28"/><polyline class="cls-72" points="150.71 25.28 150.71 15.73 150.68 15.73 150.68 25.28 150.71 25.28"/><polyline class="cls-115" points="150.73 25.28 150.73 15.73 150.71 15.73 150.71 25.28 150.73 25.28"/><polyline class="cls-69" points="150.75 25.28 150.75 15.73 150.73 15.73 150.73 25.28 150.75 25.28"/><polyline class="cls-116" points="150.77 25.28 150.77 15.73 150.75 15.73 150.75 25.28 150.77 25.28"/><polyline class="cls-68" points="150.79 25.28 150.79 15.73 150.77 15.73 150.77 25.28 150.79 25.28"/><polyline class="cls-117" points="150.81 25.28 150.81 15.73 150.79 15.73 150.79 25.28 150.81 25.28"/><polyline class="cls-118" points="150.83 25.28 150.83 15.73 150.81 15.73 150.81 25.28 150.83 25.28"/><polyline class="cls-65" points="150.85 25.28 150.85 15.73 150.83 15.73 150.83 25.28 150.85 25.28"/><polyline class="cls-64" points="150.87 25.28 150.87 15.73 150.85 15.73 150.85 25.28 150.87 25.28"/><polyline class="cls-63" points="150.89 25.28 150.89 15.73 150.87 15.73 150.87 25.28 150.89 25.28"/><polyline class="cls-62" points="150.91 25.28 150.91 15.73 150.89 15.73 150.89 25.28 150.91 25.28"/><polyline class="cls-60" points="150.93 25.28 150.93 15.73 150.91 15.73 150.91 25.28 150.93 25.28"/><polyline class="cls-119" points="150.96 25.28 150.96 15.73 150.93 15.73 150.93 25.28 150.96 25.28"/><polyline class="cls-58" points="150.97 25.28 150.97 15.73 150.96 15.73 150.96 25.28 150.97 25.28"/><polyline class="cls-120" points="151 25.28 151 15.73 150.97 15.73 150.97 25.28 151 25.28"/><polyline class="cls-56" points="151.01 25.28 151.01 15.73 151 15.73 151 25.28 151.01 25.28"/><polyline class="cls-56" points="151.03 25.28 151.03 15.73 151.01 15.73 151.01 25.28 151.03 25.28"/><polyline class="cls-55" points="151.06 25.28 151.06 15.73 151.03 15.73 151.03 25.28 151.06 25.28"/><polyline class="cls-121" points="151.07 25.28 151.07 15.73 151.06 15.73 151.06 25.28 151.07 25.28"/><polyline class="cls-53" points="151.1 25.28 151.1 15.73 151.07 15.73 151.07 25.28 151.1 25.28"/><polyline class="cls-122" points="151.12 25.28 151.12 15.73 151.1 15.73 151.1 25.28 151.12 25.28"/><polyline class="cls-51" points="151.14 25.28 151.14 15.73 151.12 15.73 151.12 25.28 151.14 25.28"/><polyline class="cls-123" points="151.16 15.73 151.16 25.28 151.14 25.28 151.14 15.73 151.16 15.73"/><polyline class="cls-49" points="151.18 15.73 151.18 25.28 151.16 25.28 151.16 15.73 151.18 15.73"/><polyline class="cls-124" points="151.2 15.73 151.2 25.28 151.18 25.28 151.18 15.73 151.2 15.73"/><polyline class="cls-47" points="151.22 15.73 151.22 25.28 151.2 25.28 151.2 15.73 151.22 15.73"/><polyline class="cls-47" points="151.24 15.73 151.24 25.28 151.22 25.28 151.22 15.73 151.24 15.73"/><polyline class="cls-46" points="151.26 15.73 151.26 25.28 151.24 25.28 151.24 15.73 151.26 15.73"/><polyline class="cls-125" points="151.28 15.73 151.28 25.28 151.26 25.28 151.26 15.73 151.28 15.73"/><polyline class="cls-43" points="151.3 15.73 151.3 25.28 151.28 25.28 151.28 15.73 151.3 15.73"/><polyline class="cls-126" points="151.32 15.73 151.32 25.28 151.3 25.28 151.3 15.73 151.32 15.73"/><polyline class="cls-127" points="151.35 15.73 151.35 25.28 151.32 25.28 151.32 15.73 151.35 15.73"/><polyline class="cls-41" points="151.37 15.73 151.37 25.28 151.35 25.28 151.35 15.73 151.37 15.73"/><polyline class="cls-128" points="151.39 15.73 151.39 25.28 151.37 25.28 151.37 15.73 151.39 15.73"/><polyline class="cls-39" points="151.41 15.73 151.41 25.28 151.39 25.28 151.39 15.73 151.41 15.73"/><polyline class="cls-39" points="151.43 15.73 151.43 25.28 151.41 25.28 151.41 15.73 151.43 15.73"/><polyline class="cls-37" points="151.45 15.73 151.45 25.28 151.43 25.28 151.43 15.73 151.45 15.73"/><polyline class="cls-36" points="151.47 15.73 151.47 25.28 151.45 25.28 151.45 15.73 151.47 15.73"/><polyline class="cls-35" points="151.49 15.73 151.49 25.28 151.47 25.28 151.47 15.73 151.49 15.73"/><polyline class="cls-34" points="151.51 15.73 151.51 25.28 151.49 25.28 151.49 15.73 151.51 15.73"/><polyline class="cls-129" points="151.53 15.73 151.53 25.28 151.51 25.28 151.51 15.73 151.53 15.73"/><polyline class="cls-32" points="151.55 15.73 151.55 25.28 151.53 25.28 151.53 15.73 151.55 15.73"/><polyline class="cls-31" points="151.57 15.73 151.57 25.28 151.55 25.28 151.55 15.73 151.57 15.73"/><polyline class="cls-30" points="151.59 15.73 151.59 25.28 151.57 25.28 151.57 15.73 151.59 15.73"/><polyline class="cls-130" points="151.61 15.73 151.61 25.28 151.59 25.28 151.59 15.73 151.61 15.73"/><polyline class="cls-28" points="151.63 15.73 151.63 25.28 151.61 25.28 151.61 15.73 151.63 15.73"/><polyline class="cls-27" points="151.65 15.73 151.65 25.28 151.63 25.28 151.63 15.73 151.65 15.73"/><polyline class="cls-27" points="151.67 25.28 151.67 15.73 151.65 15.73 151.65 25.28 151.67 25.28"/><polyline class="cls-131" points="151.69 25.28 151.69 15.73 151.67 15.73 151.67 25.28 151.69 25.28"/><polyline class="cls-25" points="151.71 25.28 151.71 15.73 151.69 15.73 151.69 25.28 151.71 25.28"/><polyline class="cls-24" points="151.74 25.28 151.74 15.73 151.71 15.73 151.71 25.28 151.74 25.28"/><polyline class="cls-24" points="151.76 25.28 151.76 15.73 151.74 15.73 151.74 25.28 151.76 25.28"/><polyline class="cls-23" points="151.78 25.28 151.78 15.73 151.76 15.73 151.76 25.28 151.78 25.28"/><polyline class="cls-22" points="151.8 25.28 151.8 15.73 151.78 15.73 151.78 25.28 151.8 25.28"/><polyline class="cls-21" points="151.82 25.28 151.82 15.73 151.8 15.73 151.8 25.28 151.82 25.28"/><polyline class="cls-21" points="151.84 25.28 151.84 15.73 151.82 15.73 151.82 25.28 151.84 25.28"/><polyline class="cls-20" points="151.86 25.28 151.86 15.73 151.84 15.73 151.84 25.28 151.86 25.28"/><polyline class="cls-19" points="151.88 25.28 151.88 15.73 151.86 15.73 151.86 25.28 151.88 25.28"/><polyline class="cls-19" points="151.9 25.28 151.9 15.73 151.88 15.73 151.88 25.28 151.9 25.28"/><polyline class="cls-18" points="151.92 25.28 151.92 15.73 151.9 15.73 151.9 25.28 151.92 25.28"/><polyline class="cls-18" points="151.94 25.28 151.94 15.73 151.92 15.73 151.92 25.28 151.94 25.28"/><polyline class="cls-17" points="151.96 25.28 151.96 15.73 151.94 15.73 151.94 25.28 151.96 25.28"/><polyline class="cls-16" points="151.98 25.28 151.98 15.73 151.96 15.73 151.96 25.28 151.98 25.28"/><polyline class="cls-16" points="152 25.28 152 15.73 151.98 15.73 151.98 25.28 152 25.28"/><polyline class="cls-15" points="152.02 25.28 152.02 15.73 152 15.73 152 25.28 152.02 25.28"/><polyline class="cls-14" points="152.04 25.28 152.04 15.73 152.02 15.73 152.02 25.28 152.04 25.28"/><polyline class="cls-14" points="152.06 25.28 152.06 15.73 152.04 15.73 152.04 25.28 152.06 25.28"/><polyline class="cls-13" points="152.09 25.28 152.09 15.73 152.06 15.73 152.06 25.28 152.09 25.28"/><polyline class="cls-12" points="152.11 25.28 152.11 15.73 152.09 15.73 152.09 25.28 152.11 25.28"/><polyline class="cls-12" points="152.13 25.28 152.13 15.73 152.11 15.73 152.11 25.28 152.13 25.28"/><polyline class="cls-11" points="152.15 25.28 152.15 15.73 152.13 15.73 152.13 25.28 152.15 25.28"/><polyline class="cls-11" points="152.17 25.28 152.17 15.73 152.15 15.73 152.15 25.28 152.17 25.28"/><polyline class="cls-11" points="152.19 25.28 152.19 15.73 152.17 15.73 152.17 25.28 152.19 25.28"/><polyline class="cls-11" points="152.21 25.28 152.21 15.73 152.19 15.73 152.19 25.28 152.21 25.28"/><polyline class="cls-10" points="152.23 25.28 152.23 15.73 152.21 15.73 152.21 25.28 152.23 25.28"/><polyline class="cls-9" points="152.25 25.28 152.25 15.73 152.23 15.73 152.23 25.28 152.25 25.28"/><polyline class="cls-9" points="152.27 25.28 152.27 15.73 152.25 15.73 152.25 25.28 152.27 25.28"/><polyline class="cls-8" points="152.29 15.73 152.29 25.28 152.27 25.28 152.27 15.73 152.29 15.73"/><polyline class="cls-8" points="152.31 15.73 152.31 25.28 152.29 25.28 152.29 15.73 152.31 15.73"/><polyline class="cls-8" points="152.34 15.73 152.34 25.28 152.31 25.28 152.31 15.73 152.34 15.73"/><polyline class="cls-7" points="152.35 15.73 152.35 25.28 152.34 25.28 152.34 15.73 152.35 15.73"/><polyline class="cls-7" points="152.37 15.73 152.37 25.28 152.35 25.28 152.35 15.73 152.37 15.73"/><polyline class="cls-7" points="152.39 15.73 152.39 25.28 152.37 25.28 152.37 15.73 152.39 15.73"/><polyline class="cls-7" points="152.41 15.73 152.41 25.28 152.39 25.28 152.39 15.73 152.41 15.73"/><polyline class="cls-7" points="152.43 15.73 152.43 25.28 152.41 25.28 152.41 15.73 152.43 15.73"/><polyline class="cls-7" points="152.45 15.73 152.45 25.28 152.43 25.28 152.43 15.73 152.45 15.73"/><polyline class="cls-7" points="152.48 15.73 152.48 25.28 152.45 25.28 152.45 15.73 152.48 15.73"/><polyline class="cls-7" points="152.5 15.73 152.5 25.28 152.48 25.28 152.48 15.73 152.5 15.73"/><polyline class="cls-6" points="152.52 15.73 152.52 25.28 152.5 25.28 152.5 15.73 152.52 15.73"/><polyline class="cls-6" points="152.54 15.73 152.54 25.28 152.52 25.28 152.52 15.73 152.54 15.73"/><polyline class="cls-6" points="152.56 15.73 152.56 25.28 152.54 25.28 152.54 15.73 152.56 15.73"/><polyline class="cls-5" points="152.58 15.73 152.58 25.28 152.56 25.28 152.56 15.73 152.58 15.73"/><polyline class="cls-5" points="152.6 15.73 152.6 25.28 152.58 25.28 152.58 15.73 152.6 15.73"/><polyline class="cls-5" points="152.62 15.73 152.62 25.28 152.6 25.28 152.6 15.73 152.62 15.73"/><polyline class="cls-5" points="152.64 15.73 152.64 25.28 152.62 25.28 152.62 15.73 152.64 15.73"/><polyline class="cls-5" points="152.66 15.73 152.66 25.28 152.64 25.28 152.64 15.73 152.66 15.73"/><polyline class="cls-5" points="152.68 15.73 152.68 25.28 152.66 25.28 152.66 15.73 152.68 15.73"/><polyline class="cls-5" points="152.7 15.73 152.7 25.28 152.68 25.28 152.68 15.73 152.7 15.73"/><polyline class="cls-5" points="152.72 15.73 152.72 25.28 152.7 25.28 152.7 15.73 152.72 15.73"/><polyline class="cls-5" points="152.75 15.73 152.75 25.28 152.72 25.28 152.72 15.73 152.75 15.73"/><polyline class="cls-5" points="152.75 25.28 152.75 15.73 154.69 15.73 154.69 25.28 152.75 25.28"/></g></svg>