<?xml version="1.0" encoding="utf-8"?>
<!-- Generator: Adobe Illustrator 24.3.0, SVG Export Plug-In . SVG Version: 6.00 Build 0)  -->
<svg version="1.1" id="Capa_1" xmlns="http://www.w3.org/2000/svg" xmlns:xlink="http://www.w3.org/1999/xlink" x="0px" y="0px"
	 viewBox="0 0 408.2 41" style="enable-background:new 0 0 408.2 41;" xml:space="preserve">
<style type="text/css">
	.st0{fill:#FFFFFF;}
	.st1{fill:#6B4220;}
	.st2{clip-path:url(#SVGID_2_);}
	.st3{fill:#B4A74B;}
	.st4{fill:#B5A74B;}
	.st5{fill:#B5A74C;}
	.st6{fill:#B5A74D;}
	.st7{fill:#B5A84D;}
	.st8{fill:#B5A84E;}
	.st9{fill:#B6A84E;}
	.st10{fill:#B6A84F;}
	.st11{fill:#B6A94F;}
	.st12{fill:#B6A950;}
	.st13{fill:#B7A950;}
	.st14{fill:#B7A951;}
	.st15{fill:#B7AA51;}
	.st16{fill:#B7AA52;}
	.st17{fill:#B8AA53;}
	.st18{fill:#B8AB53;}
	.st19{fill:#B8AB54;}
	.st20{fill:#B8AB55;}
	.st21{fill:#B9AC55;}
	.st22{fill:#B9AC56;}
	.st23{fill:#B9AC57;}
	.st24{fill:#B9AD57;}
	.st25{fill:#BAAD58;}
	.st26{fill:#BAAD59;}
	.st27{fill:#BAAE59;}
	.st28{fill:#BBAE5A;}
	.st29{fill:#BBAE5B;}
	.st30{fill:#BBAF5B;}
	.st31{fill:#BBAF5C;}
	.st32{fill:#BCAF5D;}
	.st33{fill:#BCB05D;}
	.st34{fill:#BCB05E;}
	.st35{fill:#BDB05F;}
	.st36{fill:#BDB15F;}
	.st37{fill:#BDB160;}
	.st38{fill:#BEB161;}
	.st39{fill:#BEB262;}
	.st40{fill:#BEB363;}
	.st41{fill:#BFB364;}
	.st42{fill:#BFB365;}
	.st43{fill:#C0B465;}
	.st44{fill:#C0B466;}
	.st45{fill:#C0B567;}
	.st46{fill:#C1B568;}
	.st47{fill:#C1B669;}
	.st48{fill:#C1B66A;}
	.st49{fill:#C2B76B;}
	.st50{fill:#C3B86C;}
	.st51{fill:#C3B86D;}
	.st52{fill:#C3B96E;}
	.st53{fill:#C4B96F;}
	.st54{fill:#C4BA70;}
	.st55{fill:#C5BA71;}
	.st56{fill:#C5BB72;}
	.st57{fill:#C6BB73;}
	.st58{fill:#C6BC74;}
	.st59{fill:#C6BD75;}
	.st60{fill:#C7BD76;}
	.st61{fill:#C7BE77;}
	.st62{fill:#C8BE78;}
	.st63{fill:#C8BF79;}
	.st64{fill:#C9C07A;}
	.st65{fill:#CAC07B;}
	.st66{fill:#CAC17C;}
	.st67{fill:#CBC27E;}
	.st68{fill:#CBC27F;}
	.st69{fill:#CCC380;}
	.st70{fill:#CCC481;}
	.st71{fill:#CDC582;}
	.st72{fill:#CDC583;}
	.st73{fill:#CEC685;}
	.st74{fill:#CFC786;}
	.st75{fill:#CFC887;}
	.st76{fill:#D0C888;}
	.st77{fill:#D1C98A;}
	.st78{fill:#D1CA8B;}
	.st79{fill:#D2CB8C;}
	.st80{fill:#D3CC8E;}
	.st81{fill:#D3CC8F;}
	.st82{fill:#D4CD91;}
	.st83{fill:#D5CE92;}
	.st84{fill:#D5CF94;}
	.st85{fill:#D6D095;}
	.st86{fill:#D7D197;}
	.st87{fill:#D8D298;}
	.st88{fill:#D8D39A;}
	.st89{fill:#D9D49C;}
	.st90{fill:#DAD59D;}
	.st91{fill:#DAD69F;}
	.st92{fill:#DBD7A1;}
	.st93{fill:#DCD8A2;}
	.st94{fill:#DDD9A4;}
	.st95{fill:#DEDAA6;}
	.st96{fill:#DEDBA8;}
	.st97{fill:#DFDCAA;}
	.st98{fill:#E0DEAC;}
	.st99{fill:#E1DFAE;}
	.st100{fill:#E2E1B0;}
	.st101{fill:#E3E3B2;}
	.st102{fill:#DDDAA6;}
	.st103{fill:#DBD7A0;}
	.st104{fill:#D9D49B;}
	.st105{fill:#D7D298;}
	.st106{fill:#D5CF93;}
	.st107{fill:#D4CD90;}
	.st108{fill:#D2CB8E;}
	.st109{fill:#D0C989;}
	.st110{fill:#CFC787;}
	.st111{fill:#CEC684;}
	.st112{fill:#CDC482;}
	.st113{fill:#CCC37F;}
	.st114{fill:#CAC17D;}
	.st115{fill:#C9C07B;}
	.st116{fill:#C9BF7A;}
	.st117{fill:#C6BC73;}
	.st118{fill:#C5BB71;}
	.st119{fill:#C3B86E;}
	.st120{fill:#C2B76C;}
	.st121{fill:#C2B66A;}
	.st122{fill:#C1B668;}
	.st123{fill:#BFB465;}
	.st124{fill:#BFB363;}
	.st125{fill:#BEB263;}
	.st126{fill:#BEB261;}
	.st127{fill:#BCAF5C;}
	.st128{fill:#BAAE5A;}
	.st129{fill:#BAAD57;}
	.st130{clip-path:url(#SVGID_4_);}
</style>
<path class="st0" d="M7.3,24.6v11.6H0V4.7h10.2c2,0,3.9,0.2,5.8,0.7c1.4,0.4,2.8,1.1,3.9,2c1,0.8,1.7,1.8,2.2,3
	c0.8,2.1,0.9,4.4,0.3,6.6c-0.3,0.9-0.7,1.7-1.2,2.5c-0.6,0.8-1.2,1.5-2,2.1c-0.8,0.6-1.7,1.1-2.7,1.5c0.5,0.2,1,0.6,1.4,0.9
	c0.4,0.4,0.8,0.8,1.1,1.3l6.7,11h-6.6c-1.1,0.1-2.1-0.5-2.6-1.4l-5.2-9.1c-0.2-0.4-0.5-0.7-0.8-0.9c-0.4-0.2-0.9-0.3-1.3-0.3
	L7.3,24.6z M7.3,19.6h2.9c0.9,0,1.7-0.1,2.5-0.4c0.6-0.2,1.2-0.6,1.7-1c0.5-0.4,0.8-1,1-1.6c0.2-0.6,0.3-1.3,0.3-1.9
	c0.1-1.2-0.4-2.4-1.4-3.2c-1.2-0.9-2.7-1.3-4.2-1.2H7.3L7.3,19.6z"/>
<path class="st0" d="M38.6,36.2h-7.4V4.7h7.4V36.2z"/>
<path class="st0" d="M69.2,4.7v5.8h-8.9v25.7H53V10.5h-8.8V4.7H69.2z"/>
<path class="st0" d="M97.2,4.7v2.6c0,0.4-0.1,0.8-0.2,1.1c-0.1,0.4-0.3,0.7-0.5,1L81.7,30.6h15v5.6H72.4v-2.8c0-0.3,0.1-0.7,0.2-1
	c0.1-0.3,0.3-0.6,0.5-0.9l14.8-21.2H73.6V4.7L97.2,4.7z"/>
<path class="st0" d="M118,24.3v12h-7.3v-12L99.3,4.7h6.5c0.5,0,1.1,0.1,1.5,0.4c0.4,0.3,0.7,0.7,0.9,1.1l4.5,9.2
	c0.4,0.7,0.7,1.4,1,2s0.6,1.2,0.8,1.8c0.2-0.6,0.5-1.3,0.8-1.9c0.3-0.6,0.6-1.3,1-2l4.4-9.2c0.1-0.2,0.2-0.4,0.4-0.6
	c0.2-0.2,0.3-0.4,0.5-0.5c0.2-0.2,0.4-0.3,0.7-0.3c0.3-0.1,0.5-0.1,0.8-0.1h6.5L118,24.3z"/>
<path class="st0" d="M184,13.1c0.8-0.9,1.7-1.5,2.8-2c1.2-0.5,2.4-0.7,3.6-0.7c0.7,0,1.3,0.1,2,0.2c0.5,0.1,1,0.2,1.5,0.4
	c0.4,0.1,0.8,0.3,1.1,0.5l0.9,0.5c0.2,0.2,0.5,0.3,0.7,0.4c0.2,0.1,0.5,0.2,0.7,0.2c0.3,0,0.6-0.1,0.9-0.2c0.2-0.2,0.4-0.4,0.6-0.6
	l2.5-3.3c-0.6-0.6-1.3-1.2-2-1.7c-0.8-0.5-1.6-1-2.5-1.3c-0.9-0.4-1.9-0.7-2.9-0.9c-1.1-0.2-2.2-0.3-3.3-0.3c-2.3,0-4.5,0.4-6.7,1.2
	c-3.9,1.5-7,4.5-8.6,8.4c-0.8,2.1-1.2,4.3-1.2,6.5c0,2.2,0.3,4.4,1.1,6.4c0.6,1.9,1.7,3.6,3,5.1c1.3,1.5,3,2.6,4.8,3.4
	c2,0.8,4.2,1.3,6.4,1.2c2.3,0.1,4.6-0.4,6.8-1.3c1.9-0.8,3.5-2.1,4.8-3.8l-2.9-3c-0.1-0.1-0.3-0.3-0.5-0.3c-0.2-0.1-0.3-0.1-0.5-0.1
	c-0.2,0-0.4,0-0.6,0.1c-0.2,0.1-0.4,0.2-0.6,0.4c-0.4,0.4-0.8,0.7-1.3,0.9c-0.4,0.3-0.9,0.5-1.3,0.6c-0.5,0.2-1,0.3-1.5,0.3
	c-0.6,0.1-1.2,0.1-1.8,0.1c-1.1,0-2.2-0.2-3.2-0.7c-1-0.5-1.9-1.1-2.6-2c-0.8-0.9-1.4-2-1.8-3.2c-0.5-1.4-0.7-2.8-0.7-4.3
	c0-1.4,0.2-2.8,0.7-4.2C182.6,15.1,183.2,14.1,184,13.1z"/>
<polygon class="st0" points="226.3,17.9 213.5,17.9 213.5,4.7 206.1,4.7 206.1,36.2 213.5,36.2 213.5,22.9 226.3,22.9 226.3,36.2 
	233.6,36.2 233.6,4.7 226.3,4.7 "/>
<path class="st0" d="M250.3,4.7l-12.2,31.5h5.7c0.5,0,1.1-0.2,1.5-0.5c0.4-0.3,0.7-0.7,0.9-1.1l6.4-19c0.2-0.5,0.5-1.2,0.7-1.9
	s0.5-1.6,0.7-2.5c0.2,0.9,0.5,1.7,0.7,2.4s0.5,1.4,0.7,1.9l6.5,19.1c0.2,0.5,0.4,0.9,0.9,1.1c0.5,0.3,1,0.5,1.6,0.4h5.7L257.9,4.7
	H250.3z"/>
<path class="st0" d="M292.4,24c-0.4-0.4-0.9-0.7-1.4-0.9c1-0.4,1.9-0.9,2.7-1.5c0.8-0.6,1.4-1.3,2-2.1c0.5-0.8,1-1.6,1.2-2.5
	c0.3-0.9,0.4-1.9,0.4-2.9c0-1.3-0.2-2.5-0.7-3.7c-0.5-1.2-1.2-2.2-2.2-3c-1.2-0.9-2.5-1.6-3.9-2c-1.9-0.5-3.9-0.7-5.8-0.7h-10.3
	v31.5h7.3V24.6h1.9c0.5,0,0.9,0.1,1.3,0.3c0.3,0.2,0.6,0.5,0.8,0.9l5.2,9.1c0.5,0.9,1.6,1.5,2.6,1.4h6.6l-6.7-11
	C293.2,24.8,292.8,24.3,292.4,24z M289.9,16.5c-0.2,0.6-0.5,1.1-1,1.6c-0.5,0.5-1.1,0.8-1.7,1c-0.8,0.3-1.7,0.4-2.5,0.4h-3v-9.3h3
	c1.5-0.1,3,0.3,4.2,1.2c0.9,0.8,1.4,2,1.4,3.2C290.2,15.3,290.1,15.9,289.9,16.5z"/>
<polygon class="st0" points="301.6,10.5 310.5,10.5 310.5,36.2 317.8,36.2 317.8,10.5 326.6,10.5 326.6,4.7 301.6,4.7 "/>
<polygon class="st0" points="331.5,36.2 351.8,36.2 351.8,30.6 338.9,30.6 338.9,23.1 348.8,23.1 348.8,17.7 338.9,17.7 338.9,10.4 
	351.8,10.4 351.8,4.7 331.5,4.7 "/>
<path class="st0" d="M375.8,24c-0.4-0.4-0.9-0.7-1.4-0.9c1-0.4,1.9-0.9,2.7-1.5c0.8-0.6,1.4-1.3,2-2.1c0.5-0.8,0.9-1.6,1.2-2.5
	c0.3-0.9,0.4-1.9,0.4-2.9c0-1.3-0.2-2.5-0.7-3.7c-0.5-1.2-1.2-2.2-2.2-3c-1.2-0.9-2.5-1.6-3.9-2c-1.9-0.5-3.9-0.7-5.8-0.7h-10.3
	v31.5h7.4V24.6h1.9c0.5,0,0.9,0.1,1.3,0.3c0.3,0.2,0.6,0.5,0.8,0.9l5.2,9.1c0.5,0.9,1.6,1.5,2.6,1.4h6.6l-6.7-11
	C376.6,24.8,376.2,24.3,375.8,24z M373.3,16.5c-0.2,0.6-0.5,1.1-1,1.6c-0.5,0.5-1.1,0.8-1.7,1c-0.8,0.3-1.7,0.4-2.5,0.4h-2.9v-9.3
	h2.9c1.5-0.1,3,0.3,4.2,1.2c0.9,0.8,1.4,2,1.3,3.2C373.6,15.3,373.5,15.9,373.3,16.5z"/>
<path class="st0" d="M407.6,22.8c-0.4-0.9-0.9-1.7-1.6-2.4c-0.7-0.7-1.4-1.2-2.2-1.6c-0.8-0.4-1.7-0.8-2.6-1.1
	c-0.9-0.3-1.7-0.6-2.6-0.8c-0.8-0.2-1.5-0.5-2.2-0.8c-0.6-0.3-1.1-0.6-1.6-1.1c-0.4-0.4-0.6-1-0.6-1.6c0-0.9,0.3-1.8,1-2.4
	c0.9-0.7,2-1,3.1-0.9c0.7,0,1.4,0.1,2.1,0.3c0.6,0.2,1.1,0.4,1.7,0.7l1.3,0.7c0.3,0.2,0.7,0.3,1.1,0.3c0.3,0,0.6-0.1,0.9-0.2
	c0.3-0.2,0.5-0.5,0.7-0.8l1.8-3.4c-0.6-0.5-1.2-1-1.9-1.4c-0.7-0.4-1.5-0.8-2.3-1.1c-0.8-0.3-1.7-0.5-2.6-0.7
	c-0.9-0.2-1.9-0.2-2.8-0.2c-1.6,0-3.1,0.2-4.6,0.8c-1.3,0.5-2.4,1.2-3.4,2.1c-0.9,0.8-1.6,1.9-2.1,3c-0.5,1.1-0.7,2.3-0.7,3.5
	c0,1.3,0.2,2.5,0.6,3.7c0.4,0.9,0.9,1.8,1.6,2.5c0.6,0.7,1.4,1.2,2.2,1.6c0.8,0.4,1.7,0.7,2.6,1c0.9,0.3,1.7,0.5,2.6,0.8
	c0.8,0.2,1.5,0.5,2.2,0.8c0.6,0.3,1.1,0.7,1.6,1.1c0.4,0.5,0.6,1.1,0.6,1.8c0.1,1-0.3,2.1-1.1,2.8c-0.9,0.6-2,0.9-3.1,0.9
	c-0.9,0-1.7-0.1-2.6-0.4c-0.7-0.2-1.3-0.5-1.9-0.9l-1.5-0.9c-0.4-0.3-0.8-0.4-1.3-0.4c-0.3,0-0.6,0.1-0.9,0.2
	c-0.3,0.1-0.5,0.4-0.7,0.6l-2.1,3.4c0.7,0.6,1.4,1.2,2.2,1.7c0.9,0.5,1.8,1,2.7,1.3c1,0.4,1.9,0.7,3,0.9c1,0.2,2,0.3,3,0.3
	c1.6,0,3.3-0.2,4.8-0.8c1.3-0.5,2.5-1.2,3.5-2.2c1-0.9,1.7-2.1,2.2-3.3c0.5-1.3,0.8-2.7,0.8-4.1C408.3,25,408.1,23.8,407.6,22.8z"/>
<path class="st1" d="M144.3,7.1c-7.4,3.1-10.9,11.6-7.9,19c3.1,7.4,11.6,10.9,19,7.9c7.4-3.1,10.9-11.6,7.9-19
	C160.3,7.5,151.8,4,144.3,7.1z M160.7,23L160.7,23c-0.1,0.8-1,0.8-1.4,0.6c-0.7-0.2-1.4-0.5-2.1-0.8c-0.4-0.3-0.2-0.5-0.7-0.7
	s-0.6,0.2-1,0s-0.3-0.5-0.6-0.7c-0.2-0.1-0.5-0.2-0.7-0.3l-0.9,2c0.2,0.1,0.5,0.2,0.7,0.3c0.4,0,0.6-0.3,0.9-0.1s0.3,0.6,0.7,0.8
	s0.5-0.1,1,0c0.7,0.2,1.4,0.5,2,0.9c0.4,0.2,1,0.8,0.5,1.4l0,0c-0.9,1.4-2.1,2.6-3.5,3.5l0,0c-0.6,0.5-1.2-0.1-1.4-0.5
	c-0.4-0.6-0.7-1.3-0.9-2c-0.1-0.5,0.2-0.5,0-1s-0.6-0.3-0.8-0.7s0.1-0.5,0.1-0.9c-0.1-0.3-0.1-0.5-0.3-0.7l-2,0.8
	c0.1,0.3,0.2,0.5,0.3,0.7c0.2,0.3,0.6,0.2,0.7,0.6s-0.2,0.7,0,1s0.4,0.2,0.7,0.7c0.3,0.6,0.6,1.3,0.8,2c0.1,0.4,0.2,1.3-0.7,1.4l0,0
	c-1.8,0.4-3.7,0.4-5.5-0.1c-0.3-0.3-0.3-0.8-0.2-1.2c0.2-0.7,0.5-1.4,0.8-2c0.3-0.5,0.5-0.2,0.7-0.7s-0.2-0.6-0.1-1s0.5-0.3,0.7-0.6
	c0.1-0.2,0.2-0.5,0.3-0.7l-2-0.8c-0.1,0.2-0.2,0.5-0.3,0.7c0,0.4,0.2,0.6,0.1,0.9s-0.6,0.3-0.8,0.7s0.1,0.5,0,1
	c-0.2,0.7-0.5,1.4-0.9,2c-0.2,0.4-0.5,0.6-0.9,0.7c-1.8-1-3.2-2.4-4.2-4.2c0-0.5,0.4-0.8,0.7-1c0.6-0.4,1.3-0.7,2-0.9
	c0.5-0.1,0.6,0.2,1,0s0.3-0.6,0.7-0.8s0.5,0.1,0.9,0.1c0.2-0.1,0.5-0.1,0.7-0.3l-0.9-2c-0.2,0.1-0.5,0.2-0.7,0.3
	c-0.3,0.2-0.2,0.6-0.6,0.7s-0.7-0.2-1-0.1s-0.2,0.4-0.7,0.7c-0.6,0.3-1.3,0.6-2,0.8c-0.4,0.1-0.8,0.1-1.2-0.2
	c-0.5-1.8-0.5-3.6-0.1-5.4l0,0c0.1-0.8,1-0.8,1.4-0.6c0.7,0.2,1.4,0.5,2,0.8c0.5,0.3,0.2,0.5,0.7,0.7s0.6-0.2,1,0s0.3,0.5,0.6,0.7
	c0.2,0.1,0.5,0.3,0.7,0.3l0.9-2c-0.2-0.1-0.5-0.2-0.7-0.3c-0.4,0-0.6,0.3-0.9,0.1s-0.3-0.6-0.7-0.8s-0.5,0.1-1,0
	c-0.7-0.2-1.4-0.5-2-0.9c-0.4-0.2-1-0.8-0.5-1.4l0,0c0.9-1.4,2.1-2.6,3.5-3.5l0,0c0.6-0.5,1.2,0.1,1.4,0.5c0.4,0.6,0.7,1.3,0.9,2
	c0.1,0.5-0.2,0.5,0,1s0.6,0.2,0.8,0.7s-0.1,0.5-0.1,0.9c0.1,0.3,0.1,0.5,0.3,0.7l2-0.9c-0.1-0.2-0.2-0.5-0.3-0.7
	c-0.2-0.3-0.6-0.2-0.7-0.6s0.2-0.7,0.1-1s-0.4-0.2-0.7-0.7c-0.3-0.6-0.6-1.3-0.8-2c-0.1-0.4-0.2-1.3,0.7-1.4l0,0
	c1.8-0.4,3.7-0.4,5.5,0.1c0.2,0.3,0.3,0.8,0.2,1.1c-0.2,0.7-0.5,1.4-0.8,2c-0.3,0.5-0.5,0.2-0.7,0.7s0.2,0.6,0,1s-0.5,0.3-0.7,0.6
	c-0.1,0.2-0.2,0.5-0.3,0.7l2,0.8c0.1-0.2,0.2-0.5,0.3-0.7c0-0.4-0.3-0.6-0.1-0.9s0.6-0.3,0.8-0.7s-0.1-0.5,0-1
	c0.2-0.7,0.5-1.4,0.9-2c0.2-0.4,0.5-0.6,0.9-0.7c1.8,1,3.3,2.5,4.2,4.2c-0.1,0.4-0.3,0.7-0.7,0.9c-0.6,0.4-1.3,0.7-2,0.9
	c-0.5,0.1-0.6-0.2-1,0s-0.3,0.6-0.7,0.8s-0.5-0.1-0.9-0.1c-0.3,0-0.5,0.1-0.7,0.3l0.9,2c0.2-0.1,0.5-0.2,0.7-0.3
	c0.3-0.2,0.2-0.6,0.6-0.7s0.7,0.2,1,0.1s0.2-0.4,0.7-0.7c0.6-0.4,1.3-0.6,2-0.8c0.4-0.1,0.8-0.1,1.1,0.2
	C161.1,19.2,161.1,21.1,160.7,23L160.7,23z"/>
<path class="st1" d="M169.6,27.5c-0.6-0.4-1.3-0.6-2-0.7l-0.5-0.1l0,0c-0.8-0.2-1.6-0.6-2.2-1.3c1-3.2,1-6.6,0-9.8
	c0.6-0.6,1.4-1.1,2.2-1.3h0l0.5-0.1c0.7-0.1,1.4-0.3,2-0.7c0.7-0.5,0.8-1.1,0.7-1.5s-0.7-0.8-1.5-0.6c-0.7,0.2-1.3,0.5-1.9,0.9
	l-0.4,0.3h0c-0.7,0.5-1.6,0.7-2.5,0.7c-1.5-3-3.9-5.4-6.8-6.9c0-0.9,0.2-1.8,0.7-2.5l0,0l0.3-0.4c0.4-0.5,0.7-1.2,0.9-1.9
	c0.2-0.9-0.2-1.4-0.6-1.5s-1-0.1-1.5,0.7c-0.4,0.6-0.6,1.3-0.7,2l-0.1,0.5l0,0c-0.2,0.9-0.7,1.7-1.3,2.3c-3.1-1-6.5-1-9.7,0
	c-0.6-0.6-1.1-1.4-1.3-2.3v0l-0.1-0.5c-0.1-0.7-0.3-1.4-0.7-2c-0.5-0.7-1.1-0.8-1.5-0.7s-0.8,0.6-0.6,1.5c0.2,0.7,0.5,1.3,0.9,1.9
	l0.3,0.4v0c0.5,0.8,0.7,1.6,0.7,2.5c-3,1.5-5.5,3.9-7,6.9c-0.9,0-1.8-0.2-2.5-0.7h0l-0.4-0.3c-0.5-0.4-1.2-0.7-1.9-0.9
	c-0.9-0.2-1.4,0.2-1.5,0.6s-0.1,1,0.7,1.5c0.6,0.4,1.3,0.6,2,0.7l0.5,0.1h0c0.9,0.2,1.6,0.7,2.2,1.3c-1.1,3.2-1.1,6.6,0,9.8
	c-0.6,0.6-1.4,1-2.2,1.2l0,0l-0.5,0.1c-0.7,0.1-1.4,0.3-2,0.7c-0.7,0.5-0.8,1.1-0.7,1.5s0.6,0.7,1.5,0.6c0.7-0.2,1.3-0.5,1.9-0.9
	l0.4-0.3l0,0c0.7-0.4,1.6-0.7,2.4-0.7c1.5,3,3.9,5.4,6.9,6.9c0,0.9-0.2,1.8-0.7,2.5v0l-0.3,0.4c-0.4,0.5-0.7,1.2-0.9,1.9
	c-0.1,0.9,0.2,1.4,0.6,1.5s1,0.1,1.5-0.7c0.4-0.6,0.6-1.3,0.7-2l0.1-0.5v0c0.2-0.9,0.7-1.7,1.3-2.3c3.2,1,6.6,1,9.7,0
	c0.6,0.6,1.1,1.4,1.3,2.2l0,0l0.1,0.5c0.1,0.7,0.3,1.4,0.7,2c0.5,0.7,1.1,0.8,1.5,0.7s0.8-0.6,0.6-1.5c-0.2-0.7-0.5-1.3-0.9-1.9
	l-0.3-0.4l0,0c-0.5-0.7-0.7-1.6-0.7-2.5c3-1.5,5.4-3.9,6.9-6.9c0.9,0,1.7,0.2,2.5,0.7l0,0l0.4,0.3c0.5,0.4,1.2,0.7,1.9,0.9
	c0.9,0.2,1.4-0.2,1.5-0.6S170.3,28,169.6,27.5z M157,33l-1.5,0.7h-0.1c-0.4,0.1-1.1,0.4-1.6,0.6c-6.2,1.7-12.8-0.9-16.1-6.4
	c-0.1-0.2-0.9-1.9-0.9-2v-0.1c0,0-0.7-2-0.8-2.1l0,0c-0.6-2.5-0.5-5.1,0.2-7.5c0.2-0.6,0.5-1.3,0.5-1.4v-0.1c0,0,0.3-0.7,0.6-1.3
	c1.3-2.5,3.3-4.5,5.8-5.8l1.4-0.7l0.2-0.1l1-0.3c6.5-2,13.5,0.7,16.9,6.6c0.3,0.6,0.7,1.5,0.7,1.6V15c0.1,0.3,0.4,1,0.5,1.5
	c0.7,2.5,0.7,5.1,0,7.6c-0.2,0.5-0.5,1.4-0.6,1.8l0,0l0,0c-0.2,0.3-0.6,1.2-0.8,1.6C161.1,29.9,159.2,31.8,157,33L157,33z"/>
<g>
	<defs>
		<path id="SVGID_1_" d="M163.6,14.9c-3.1-7.6-11.8-11.1-19.4-8c-7.6,3.1-11.1,11.8-8,19.4c3.1,7.6,11.8,11.1,19.4,8c0,0,0,0,0,0
			C163.2,31.1,166.7,22.4,163.6,14.9z M154.6,31.9c-6.3,2.6-13.4-0.4-16-6.6c-2.6-6.3,0.4-13.4,6.6-16c6.3-2.6,13.4,0.4,16,6.6
			c0,0,0,0,0,0C163.8,22.1,160.8,29.3,154.6,31.9C154.6,31.9,154.6,31.9,154.6,31.9L154.6,31.9z"/>
	</defs>
	<clipPath id="SVGID_2_">
		<use xlink:href="#SVGID_1_"  style="overflow:visible;"/>
	</clipPath>
	<g class="st2">
		<polyline class="st3" points="141.4,3.7 141.4,37.3 133.1,37.3 133.1,3.7 141.4,3.7 		"/>
		<polyline class="st3" points="141.5,3.7 141.5,37.3 141.4,37.3 141.4,3.7 141.5,3.7 		"/>
		<polyline class="st3" points="141.5,3.7 141.5,37.3 141.5,37.3 141.5,3.7 141.5,3.7 		"/>
		<polyline class="st3" points="141.6,3.7 141.6,37.3 141.5,37.3 141.5,3.7 141.6,3.7 		"/>
		<polyline class="st3" points="141.7,3.7 141.7,37.3 141.6,37.3 141.6,3.7 141.7,3.7 		"/>
		<polyline class="st3" points="141.8,3.7 141.8,37.3 141.7,37.3 141.7,3.7 141.8,3.7 		"/>
		<polyline class="st3" points="141.8,3.7 141.8,37.3 141.8,37.3 141.8,3.7 141.8,3.7 		"/>
		<polyline class="st3" points="141.9,3.7 141.9,37.3 141.8,37.3 141.8,3.7 141.9,3.7 		"/>
		<polyline class="st3" points="142,3.7 142,37.3 141.9,37.3 141.9,3.7 142,3.7 		"/>
		<polyline class="st4" points="142,3.7 142,37.3 142,37.3 142,3.7 142,3.7 		"/>
		<polyline class="st4" points="142.1,3.7 142.1,37.3 142,37.3 142,3.7 142.1,3.7 		"/>
		<polyline class="st4" points="142.2,3.7 142.2,37.3 142.1,37.3 142.1,3.7 142.2,3.7 		"/>
		<polyline class="st5" points="142.2,3.7 142.2,37.3 142.2,37.3 142.2,3.7 142.2,3.7 		"/>
		<polyline class="st5" points="142.3,3.7 142.3,37.3 142.2,37.3 142.2,3.7 142.3,3.7 		"/>
		<polyline class="st5" points="142.4,3.7 142.4,37.3 142.3,37.3 142.3,3.7 142.4,3.7 		"/>
		<polyline class="st5" points="142.4,3.7 142.4,37.3 142.4,37.3 142.4,3.7 142.4,3.7 		"/>
		<polyline class="st5" points="142.5,3.7 142.5,37.3 142.4,37.3 142.4,3.7 142.5,3.7 		"/>
		<polyline class="st5" points="142.6,3.7 142.6,37.3 142.5,37.3 142.5,3.7 142.6,3.7 		"/>
		<polyline class="st5" points="142.6,3.7 142.6,37.3 142.6,37.3 142.6,3.7 142.6,3.7 		"/>
		<polyline class="st5" points="142.7,3.7 142.7,37.3 142.6,37.3 142.6,3.7 142.7,3.7 		"/>
		<polyline class="st5" points="142.8,37.3 142.8,3.7 142.7,3.7 142.7,37.3 142.8,37.3 		"/>
		<polyline class="st6" points="142.9,3.7 142.9,37.3 142.8,37.3 142.8,3.7 142.9,3.7 		"/>
		<polyline class="st6" points="142.9,3.7 142.9,37.3 142.9,37.3 142.9,3.7 142.9,3.7 		"/>
		<polyline class="st6" points="143,37.3 143,3.7 142.9,3.7 142.9,37.3 143,37.3 		"/>
		<polyline class="st7" points="143.1,37.3 143.1,3.7 143,3.7 143,37.3 143.1,37.3 		"/>
		<polyline class="st7" points="143.1,37.3 143.1,3.7 143.1,3.7 143.1,37.3 143.1,37.3 		"/>
		<polyline class="st8" points="143.2,37.3 143.2,3.7 143.1,3.7 143.1,37.3 143.2,37.3 		"/>
		<polyline class="st9" points="143.3,3.7 143.3,37.3 143.2,37.3 143.2,3.7 143.3,3.7 		"/>
		<polyline class="st9" points="143.3,3.7 143.3,37.3 143.3,37.3 143.3,3.7 143.3,3.7 		"/>
		<polyline class="st9" points="143.4,3.7 143.4,37.3 143.3,37.3 143.3,3.7 143.4,3.7 		"/>
		<polyline class="st10" points="143.5,37.3 143.5,3.7 143.4,3.7 143.4,37.3 143.5,37.3 		"/>
		<polyline class="st10" points="143.5,37.3 143.5,3.7 143.5,3.7 143.5,37.3 143.5,37.3 		"/>
		<polyline class="st11" points="143.6,37.3 143.6,3.7 143.5,3.7 143.5,37.3 143.6,37.3 		"/>
		<polyline class="st11" points="143.7,37.3 143.7,3.7 143.6,3.7 143.6,37.3 143.7,37.3 		"/>
		<polyline class="st12" points="143.7,3.7 143.7,37.3 143.7,37.3 143.7,3.7 143.7,3.7 		"/>
		<polyline class="st13" points="143.8,3.7 143.8,37.3 143.7,37.3 143.7,3.7 143.8,3.7 		"/>
		<polyline class="st13" points="143.9,37.3 143.9,3.7 143.8,3.7 143.8,37.3 143.9,37.3 		"/>
		<polyline class="st14" points="143.9,37.3 143.9,3.7 143.9,3.7 143.9,37.3 143.9,37.3 		"/>
		<polyline class="st15" points="144,37.3 144,3.7 143.9,3.7 143.9,37.3 144,37.3 		"/>
		<polyline class="st16" points="144.1,37.3 144.1,3.7 144,3.7 144,37.3 144.1,37.3 		"/>
		<polyline class="st16" points="144.1,3.7 144.1,37.3 144.1,37.3 144.1,3.7 144.1,3.7 		"/>
		<polyline class="st16" points="144.2,3.7 144.2,37.3 144.1,37.3 144.1,3.7 144.2,3.7 		"/>
		<polyline class="st17" points="144.3,3.7 144.3,37.3 144.2,37.3 144.2,3.7 144.3,3.7 		"/>
		<polyline class="st18" points="144.4,37.3 144.4,3.7 144.3,3.7 144.3,37.3 144.4,37.3 		"/>
		<polyline class="st19" points="144.4,37.3 144.4,3.7 144.4,3.7 144.4,37.3 144.4,37.3 		"/>
		<polyline class="st19" points="144.5,37.3 144.5,3.7 144.4,3.7 144.4,37.3 144.5,37.3 		"/>
		<polyline class="st20" points="144.6,3.7 144.6,37.3 144.5,37.3 144.5,3.7 144.6,3.7 		"/>
		<polyline class="st21" points="144.6,3.7 144.6,37.3 144.6,37.3 144.6,3.7 144.6,3.7 		"/>
		<polyline class="st22" points="144.7,3.7 144.7,37.3 144.6,37.3 144.6,3.7 144.7,3.7 		"/>
		<polyline class="st22" points="144.8,3.7 144.8,37.3 144.7,37.3 144.7,3.7 144.8,3.7 		"/>
		<polyline class="st23" points="144.8,37.3 144.8,3.7 144.8,3.7 144.8,37.3 144.8,37.3 		"/>
		<polyline class="st24" points="144.9,37.3 144.9,3.7 144.8,3.7 144.8,37.3 144.9,37.3 		"/>
		<polyline class="st25" points="145,3.7 145,37.3 144.9,37.3 144.9,3.7 145,3.7 		"/>
		<polyline class="st25" points="145,3.7 145,37.3 145,37.3 145,3.7 145,3.7 		"/>
		<polyline class="st26" points="145.1,3.7 145.1,37.3 145,37.3 145,3.7 145.1,3.7 		"/>
		<polyline class="st27" points="145.2,3.7 145.2,37.3 145.1,37.3 145.1,3.7 145.2,3.7 		"/>
		<polyline class="st28" points="145.2,37.3 145.2,3.7 145.2,3.7 145.2,37.3 145.2,37.3 		"/>
		<polyline class="st29" points="145.3,37.3 145.3,3.7 145.2,3.7 145.2,37.3 145.3,37.3 		"/>
		<polyline class="st30" points="145.4,3.7 145.4,37.3 145.3,37.3 145.3,3.7 145.4,3.7 		"/>
		<polyline class="st31" points="145.5,3.7 145.5,37.3 145.4,37.3 145.4,3.7 145.5,3.7 		"/>
		<polyline class="st32" points="145.5,3.7 145.5,37.3 145.5,37.3 145.5,3.7 145.5,3.7 		"/>
		<polyline class="st33" points="145.6,3.7 145.6,37.3 145.5,37.3 145.5,3.7 145.6,3.7 		"/>
		<polyline class="st34" points="145.7,3.7 145.7,37.3 145.6,37.3 145.6,3.7 145.7,3.7 		"/>
		<polyline class="st35" points="145.7,37.3 145.7,3.7 145.7,3.7 145.7,37.3 145.7,37.3 		"/>
		<polyline class="st36" points="145.8,37.3 145.8,3.7 145.7,3.7 145.7,37.3 145.8,37.3 		"/>
		<polyline class="st37" points="145.9,3.7 145.9,37.3 145.8,37.3 145.8,3.7 145.9,3.7 		"/>
		<polyline class="st38" points="145.9,3.7 145.9,37.3 145.9,37.3 145.9,3.7 145.9,3.7 		"/>
		<polyline class="st39" points="146,3.7 146,37.3 145.9,37.3 145.9,3.7 146,3.7 		"/>
		<polyline class="st39" points="146.1,3.7 146.1,37.3 146,37.3 146,3.7 146.1,3.7 		"/>
		<polyline class="st40" points="146.1,3.7 146.1,37.3 146.1,37.3 146.1,3.7 146.1,3.7 		"/>
		<polyline class="st41" points="146.2,37.3 146.2,3.7 146.1,3.7 146.1,37.3 146.2,37.3 		"/>
		<polyline class="st42" points="146.3,3.7 146.3,37.3 146.2,37.3 146.2,3.7 146.3,3.7 		"/>
		<polyline class="st43" points="146.4,3.7 146.4,37.3 146.3,37.3 146.3,3.7 146.4,3.7 		"/>
		<polyline class="st44" points="146.4,3.7 146.4,37.3 146.4,37.3 146.4,3.7 146.4,3.7 		"/>
		<polyline class="st45" points="146.5,3.7 146.5,37.3 146.4,37.3 146.4,3.7 146.5,3.7 		"/>
		<polyline class="st46" points="146.6,3.7 146.6,37.3 146.5,37.3 146.5,3.7 146.6,3.7 		"/>
		<polyline class="st47" points="146.6,37.3 146.6,3.7 146.6,3.7 146.6,37.3 146.6,37.3 		"/>
		<polyline class="st48" points="146.7,3.7 146.7,37.3 146.6,37.3 146.6,3.7 146.7,3.7 		"/>
		<polyline class="st49" points="146.8,3.7 146.8,37.3 146.7,37.3 146.7,3.7 146.8,3.7 		"/>
		<polyline class="st49" points="146.8,3.7 146.8,37.3 146.8,37.3 146.8,3.7 146.8,3.7 		"/>
		<polyline class="st50" points="146.9,3.7 146.9,37.3 146.8,37.3 146.8,3.7 146.9,3.7 		"/>
		<polyline class="st51" points="147,3.7 147,37.3 146.9,37.3 146.9,3.7 147,3.7 		"/>
		<polyline class="st52" points="147,3.7 147,37.3 147,37.3 147,3.7 147,3.7 		"/>
		<polyline class="st53" points="147.1,3.7 147.1,37.3 147,37.3 147,3.7 147.1,3.7 		"/>
		<polyline class="st54" points="147.2,3.7 147.2,37.3 147.1,37.3 147.1,3.7 147.2,3.7 		"/>
		<polyline class="st55" points="147.2,3.7 147.2,37.3 147.2,37.3 147.2,3.7 147.2,3.7 		"/>
		<polyline class="st56" points="147.3,3.7 147.3,37.3 147.2,37.3 147.2,3.7 147.3,3.7 		"/>
		<polyline class="st57" points="147.4,3.7 147.4,37.3 147.3,37.3 147.3,3.7 147.4,3.7 		"/>
		<polyline class="st58" points="147.4,3.7 147.4,37.3 147.4,37.3 147.4,3.7 147.4,3.7 		"/>
		<polyline class="st59" points="147.5,3.7 147.5,37.3 147.4,37.3 147.4,3.7 147.5,3.7 		"/>
		<polyline class="st60" points="147.6,3.7 147.6,37.3 147.5,37.3 147.5,3.7 147.6,3.7 		"/>
		<polyline class="st61" points="147.6,3.7 147.6,37.3 147.6,37.3 147.6,3.7 147.6,3.7 		"/>
		<polyline class="st62" points="147.7,3.7 147.7,37.3 147.6,37.3 147.6,3.7 147.7,3.7 		"/>
		<polyline class="st63" points="147.8,3.7 147.8,37.3 147.7,37.3 147.7,3.7 147.8,3.7 		"/>
		<polyline class="st64" points="147.9,3.7 147.9,37.3 147.8,37.3 147.8,3.7 147.9,3.7 		"/>
		<polyline class="st65" points="147.9,3.7 147.9,37.3 147.9,37.3 147.9,3.7 147.9,3.7 		"/>
		<polyline class="st66" points="148,3.7 148,37.3 147.9,37.3 147.9,3.7 148,3.7 		"/>
		<polyline class="st67" points="148.1,3.7 148.1,37.3 148,37.3 148,3.7 148.1,3.7 		"/>
		<polyline class="st68" points="148.1,3.7 148.1,37.3 148.1,37.3 148.1,3.7 148.1,3.7 		"/>
		<polyline class="st69" points="148.2,3.7 148.2,37.3 148.1,37.3 148.1,3.7 148.2,3.7 		"/>
		<polyline class="st70" points="148.3,3.7 148.3,37.3 148.2,37.3 148.2,3.7 148.3,3.7 		"/>
		<polyline class="st71" points="148.3,3.7 148.3,37.3 148.3,37.3 148.3,3.7 148.3,3.7 		"/>
		<polyline class="st72" points="148.4,3.7 148.4,37.3 148.3,37.3 148.3,3.7 148.4,3.7 		"/>
		<polyline class="st73" points="148.5,3.7 148.5,37.3 148.4,37.3 148.4,3.7 148.5,3.7 		"/>
		<polyline class="st74" points="148.6,3.7 148.6,37.3 148.5,37.3 148.5,3.7 148.6,3.7 		"/>
		<polyline class="st75" points="148.6,3.7 148.6,37.3 148.6,37.3 148.6,3.7 148.6,3.7 		"/>
		<polyline class="st76" points="148.7,3.7 148.7,37.3 148.6,37.3 148.6,3.7 148.7,3.7 		"/>
		<polyline class="st77" points="148.8,3.7 148.8,37.3 148.7,37.3 148.7,3.7 148.8,3.7 		"/>
		<polyline class="st78" points="148.8,3.7 148.8,37.3 148.8,37.3 148.8,3.7 148.8,3.7 		"/>
		<polyline class="st79" points="148.9,3.7 148.9,37.3 148.8,37.3 148.8,3.7 148.9,3.7 		"/>
		<polyline class="st80" points="149,3.7 149,37.3 148.9,37.3 148.9,3.7 149,3.7 		"/>
		<polyline class="st81" points="149,3.7 149,37.3 149,37.3 149,3.7 149,3.7 		"/>
		<polyline class="st82" points="149.1,3.7 149.1,37.3 149,37.3 149,3.7 149.1,3.7 		"/>
		<polyline class="st83" points="149.2,3.7 149.2,37.3 149.1,37.3 149.1,3.7 149.2,3.7 		"/>
		<polyline class="st84" points="149.2,3.7 149.2,37.3 149.2,37.3 149.2,3.7 149.2,3.7 		"/>
		<polyline class="st85" points="149.3,3.7 149.3,37.3 149.2,37.3 149.2,3.7 149.3,3.7 		"/>
		<polyline class="st86" points="149.4,3.7 149.4,37.3 149.3,37.3 149.3,3.7 149.4,3.7 		"/>
		<polyline class="st87" points="149.4,3.7 149.4,37.3 149.4,37.3 149.4,3.7 149.4,3.7 		"/>
		<polyline class="st88" points="149.5,3.7 149.5,37.3 149.4,37.3 149.4,3.7 149.5,3.7 		"/>
		<polyline class="st89" points="149.6,3.7 149.6,37.3 149.5,37.3 149.5,3.7 149.6,3.7 		"/>
		<polyline class="st90" points="149.6,3.7 149.6,37.3 149.6,37.3 149.6,3.7 149.6,3.7 		"/>
		<polyline class="st91" points="149.7,3.7 149.7,37.3 149.6,37.3 149.6,3.7 149.7,3.7 		"/>
		<polyline class="st92" points="149.8,3.7 149.8,37.3 149.7,37.3 149.7,3.7 149.8,3.7 		"/>
		<polyline class="st93" points="149.9,37.3 149.9,3.7 149.8,3.7 149.8,37.3 149.9,37.3 		"/>
		<polyline class="st94" points="149.9,37.3 149.9,3.7 149.9,3.7 149.9,37.3 149.9,37.3 		"/>
		<polyline class="st95" points="150,37.3 150,3.7 149.9,3.7 149.9,37.3 150,37.3 		"/>
		<polyline class="st96" points="150.1,37.3 150.1,3.7 150,3.7 150,37.3 150.1,37.3 		"/>
		<polyline class="st97" points="150.1,3.7 150.1,37.3 150.1,37.3 150.1,3.7 150.1,3.7 		"/>
		<polyline class="st98" points="150.2,3.7 150.2,37.3 150.1,37.3 150.1,3.7 150.2,3.7 		"/>
		<polyline class="st99" points="150.3,3.7 150.3,37.3 150.2,37.3 150.2,3.7 150.3,3.7 		"/>
		<polyline class="st100" points="150.3,37.3 150.3,3.7 150.3,3.7 150.3,37.3 150.3,37.3 		"/>
		<polyline class="st101" points="150.4,37.3 150.4,3.7 150.3,3.7 150.3,37.3 150.4,37.3 		"/>
		<polyline class="st101" points="150.5,37.3 150.5,3.7 150.4,3.7 150.4,37.3 150.5,37.3 		"/>
		<polyline class="st100" points="150.6,3.7 150.6,37.3 150.5,37.3 150.5,3.7 150.6,3.7 		"/>
		<polyline class="st99" points="150.6,3.7 150.6,37.3 150.6,37.3 150.6,3.7 150.6,3.7 		"/>
		<polyline class="st98" points="150.7,3.7 150.7,37.3 150.6,37.3 150.6,3.7 150.7,3.7 		"/>
		<polyline class="st97" points="150.8,37.3 150.8,3.7 150.7,3.7 150.7,37.3 150.8,37.3 		"/>
		<polyline class="st96" points="150.8,37.3 150.8,3.7 150.8,3.7 150.8,37.3 150.8,37.3 		"/>
		<polyline class="st102" points="150.9,37.3 150.9,3.7 150.8,3.7 150.8,37.3 150.9,37.3 		"/>
		<polyline class="st94" points="151,3.7 151,37.3 150.9,37.3 150.9,3.7 151,3.7 		"/>
		<polyline class="st93" points="151.1,3.7 151.1,37.3 151,37.3 151,3.7 151.1,3.7 		"/>
		<polyline class="st103" points="151.1,3.7 151.1,37.3 151.1,37.3 151.1,3.7 151.1,3.7 		"/>
		<polyline class="st91" points="151.2,37.3 151.2,3.7 151.1,3.7 151.1,37.3 151.2,37.3 		"/>
		<polyline class="st90" points="151.3,37.3 151.3,3.7 151.2,3.7 151.2,37.3 151.3,37.3 		"/>
		<polyline class="st104" points="151.4,37.3 151.4,3.7 151.3,3.7 151.3,37.3 151.4,37.3 		"/>
		<polyline class="st88" points="151.4,3.7 151.4,37.3 151.4,37.3 151.4,3.7 151.4,3.7 		"/>
		<polyline class="st105" points="151.5,3.7 151.5,37.3 151.4,37.3 151.4,3.7 151.5,3.7 		"/>
		<polyline class="st86" points="151.6,3.7 151.6,37.3 151.5,37.3 151.5,3.7 151.6,3.7 		"/>
		<polyline class="st85" points="151.6,3.7 151.6,37.3 151.6,37.3 151.6,3.7 151.6,3.7 		"/>
		<polyline class="st106" points="151.7,37.3 151.7,3.7 151.6,3.7 151.6,37.3 151.7,37.3 		"/>
		<polyline class="st83" points="151.8,37.3 151.8,3.7 151.7,3.7 151.7,37.3 151.8,37.3 		"/>
		<polyline class="st107" points="151.9,3.7 151.9,37.3 151.8,37.3 151.8,3.7 151.9,3.7 		"/>
		<polyline class="st81" points="151.9,3.7 151.9,37.3 151.9,37.3 151.9,3.7 151.9,3.7 		"/>
		<polyline class="st108" points="152,3.7 152,37.3 151.9,37.3 151.9,3.7 152,3.7 		"/>
		<polyline class="st79" points="152.1,3.7 152.1,37.3 152,37.3 152,3.7 152.1,3.7 		"/>
		<polyline class="st78" points="152.1,37.3 152.1,3.7 152.1,3.7 152.1,37.3 152.1,37.3 		"/>
		<polyline class="st109" points="152.2,37.3 152.2,3.7 152.1,3.7 152.1,37.3 152.2,37.3 		"/>
		<polyline class="st76" points="152.3,3.7 152.3,37.3 152.2,37.3 152.2,3.7 152.3,3.7 		"/>
		<polyline class="st110" points="152.4,3.7 152.4,37.3 152.3,37.3 152.3,3.7 152.4,3.7 		"/>
		<polyline class="st74" points="152.4,3.7 152.4,37.3 152.4,37.3 152.4,3.7 152.4,3.7 		"/>
		<polyline class="st111" points="152.5,3.7 152.5,37.3 152.4,37.3 152.4,3.7 152.5,3.7 		"/>
		<polyline class="st72" points="152.6,37.3 152.6,3.7 152.5,3.7 152.5,37.3 152.6,37.3 		"/>
		<polyline class="st112" points="152.6,37.3 152.6,3.7 152.6,3.7 152.6,37.3 152.6,37.3 		"/>
		<polyline class="st70" points="152.7,3.7 152.7,37.3 152.6,37.3 152.6,3.7 152.7,3.7 		"/>
		<polyline class="st113" points="152.8,3.7 152.8,37.3 152.7,37.3 152.7,3.7 152.8,3.7 		"/>
		<polyline class="st67" points="152.9,3.7 152.9,37.3 152.8,37.3 152.8,3.7 152.9,3.7 		"/>
		<polyline class="st114" points="152.9,3.7 152.9,37.3 152.9,37.3 152.9,3.7 152.9,3.7 		"/>
		<polyline class="st66" points="153,37.3 153,3.7 152.9,3.7 152.9,37.3 153,37.3 		"/>
		<polyline class="st115" points="153.1,37.3 153.1,3.7 153,3.7 153,37.3 153.1,37.3 		"/>
		<polyline class="st116" points="153.2,3.7 153.2,37.3 153.1,37.3 153.1,3.7 153.2,3.7 		"/>
		<polyline class="st63" points="153.2,3.7 153.2,37.3 153.2,37.3 153.2,3.7 153.2,3.7 		"/>
		<polyline class="st62" points="153.3,3.7 153.3,37.3 153.2,37.3 153.2,3.7 153.3,3.7 		"/>
		<polyline class="st61" points="153.4,3.7 153.4,37.3 153.3,37.3 153.3,3.7 153.4,3.7 		"/>
		<polyline class="st60" points="153.4,3.7 153.4,37.3 153.4,37.3 153.4,3.7 153.4,3.7 		"/>
		<polyline class="st58" points="153.5,37.3 153.5,3.7 153.4,3.7 153.4,37.3 153.5,37.3 		"/>
		<polyline class="st117" points="153.6,3.7 153.6,37.3 153.5,37.3 153.5,3.7 153.6,3.7 		"/>
		<polyline class="st56" points="153.7,3.7 153.7,37.3 153.6,37.3 153.6,3.7 153.7,3.7 		"/>
		<polyline class="st118" points="153.7,3.7 153.7,37.3 153.7,37.3 153.7,3.7 153.7,3.7 		"/>
		<polyline class="st54" points="153.8,3.7 153.8,37.3 153.7,37.3 153.7,3.7 153.8,3.7 		"/>
		<polyline class="st54" points="153.9,3.7 153.9,37.3 153.8,37.3 153.8,3.7 153.9,3.7 		"/>
		<polyline class="st53" points="153.9,3.7 153.9,37.3 153.9,37.3 153.9,3.7 153.9,3.7 		"/>
		<polyline class="st119" points="154,3.7 154,37.3 153.9,37.3 153.9,3.7 154,3.7 		"/>
		<polyline class="st51" points="154.1,3.7 154.1,37.3 154,37.3 154,3.7 154.1,3.7 		"/>
		<polyline class="st120" points="154.2,3.7 154.2,37.3 154.1,37.3 154.1,3.7 154.2,3.7 		"/>
		<polyline class="st49" points="154.2,3.7 154.2,37.3 154.2,37.3 154.2,3.7 154.2,3.7 		"/>
		<polyline class="st121" points="154.3,3.7 154.3,37.3 154.2,37.3 154.2,3.7 154.3,3.7 		"/>
		<polyline class="st47" points="154.4,3.7 154.4,37.3 154.3,37.3 154.3,3.7 154.4,3.7 		"/>
		<polyline class="st122" points="154.5,3.7 154.5,37.3 154.4,37.3 154.4,3.7 154.5,3.7 		"/>
		<polyline class="st45" points="154.5,3.7 154.5,37.3 154.5,37.3 154.5,3.7 154.5,3.7 		"/>
		<polyline class="st45" points="154.6,3.7 154.6,37.3 154.5,37.3 154.5,3.7 154.6,3.7 		"/>
		<polyline class="st44" points="154.7,3.7 154.7,37.3 154.6,37.3 154.6,3.7 154.7,3.7 		"/>
		<polyline class="st123" points="154.8,3.7 154.8,37.3 154.7,37.3 154.7,3.7 154.8,3.7 		"/>
		<polyline class="st41" points="154.8,3.7 154.8,37.3 154.8,37.3 154.8,3.7 154.8,3.7 		"/>
		<polyline class="st124" points="154.9,3.7 154.9,37.3 154.8,37.3 154.8,3.7 154.9,3.7 		"/>
		<polyline class="st125" points="155,3.7 155,37.3 154.9,37.3 154.9,3.7 155,3.7 		"/>
		<polyline class="st39" points="155,3.7 155,37.3 155,37.3 155,3.7 155,3.7 		"/>
		<polyline class="st126" points="155.1,3.7 155.1,37.3 155,37.3 155,3.7 155.1,3.7 		"/>
		<polyline class="st37" points="155.2,3.7 155.2,37.3 155.1,37.3 155.1,3.7 155.2,3.7 		"/>
		<polyline class="st37" points="155.3,3.7 155.3,37.3 155.2,37.3 155.2,3.7 155.3,3.7 		"/>
		<polyline class="st35" points="155.3,3.7 155.3,37.3 155.3,37.3 155.3,3.7 155.3,3.7 		"/>
		<polyline class="st34" points="155.4,3.7 155.4,37.3 155.3,37.3 155.3,3.7 155.4,3.7 		"/>
		<polyline class="st33" points="155.5,3.7 155.5,37.3 155.4,37.3 155.4,3.7 155.5,3.7 		"/>
		<polyline class="st32" points="155.6,3.7 155.6,37.3 155.5,37.3 155.5,3.7 155.6,3.7 		"/>
		<polyline class="st127" points="155.6,3.7 155.6,37.3 155.6,37.3 155.6,3.7 155.6,3.7 		"/>
		<polyline class="st30" points="155.7,3.7 155.7,37.3 155.6,37.3 155.6,3.7 155.7,3.7 		"/>
		<polyline class="st29" points="155.8,3.7 155.8,37.3 155.7,37.3 155.7,3.7 155.8,3.7 		"/>
		<polyline class="st28" points="155.8,3.7 155.8,37.3 155.8,37.3 155.8,3.7 155.8,3.7 		"/>
		<polyline class="st128" points="155.9,3.7 155.9,37.3 155.8,37.3 155.8,3.7 155.9,3.7 		"/>
		<polyline class="st26" points="156,3.7 156,37.3 155.9,37.3 155.9,3.7 156,3.7 		"/>
		<polyline class="st25" points="156.1,3.7 156.1,37.3 156,37.3 156,3.7 156.1,3.7 		"/>
		<polyline class="st25" points="156.1,3.7 156.1,37.3 156.1,37.3 156.1,3.7 156.1,3.7 		"/>
		<polyline class="st129" points="156.2,3.7 156.2,37.3 156.1,37.3 156.1,3.7 156.2,3.7 		"/>
		<polyline class="st23" points="156.3,3.7 156.3,37.3 156.2,37.3 156.2,3.7 156.3,3.7 		"/>
		<polyline class="st22" points="156.4,3.7 156.4,37.3 156.3,37.3 156.3,3.7 156.4,3.7 		"/>
		<polyline class="st22" points="156.4,3.7 156.4,37.3 156.4,37.3 156.4,3.7 156.4,3.7 		"/>
		<polyline class="st21" points="156.5,3.7 156.5,37.3 156.4,37.3 156.4,3.7 156.5,3.7 		"/>
		<polyline class="st20" points="156.6,3.7 156.6,37.3 156.5,37.3 156.5,3.7 156.6,3.7 		"/>
		<polyline class="st19" points="156.6,3.7 156.6,37.3 156.6,37.3 156.6,3.7 156.6,3.7 		"/>
		<polyline class="st19" points="156.7,3.7 156.7,37.3 156.6,37.3 156.6,3.7 156.7,3.7 		"/>
		<polyline class="st18" points="156.8,37.3 156.8,3.7 156.7,3.7 156.7,37.3 156.8,37.3 		"/>
		<polyline class="st17" points="156.9,37.3 156.9,3.7 156.8,3.7 156.8,37.3 156.9,37.3 		"/>
		<polyline class="st17" points="156.9,37.3 156.9,3.7 156.9,3.7 156.9,37.3 156.9,37.3 		"/>
		<polyline class="st16" points="157,3.7 157,37.3 156.9,37.3 156.9,3.7 157,3.7 		"/>
		<polyline class="st16" points="157.1,3.7 157.1,37.3 157,37.3 157,3.7 157.1,3.7 		"/>
		<polyline class="st15" points="157.1,37.3 157.1,3.7 157.1,3.7 157.1,37.3 157.1,37.3 		"/>
		<polyline class="st14" points="157.2,37.3 157.2,3.7 157.1,3.7 157.1,37.3 157.2,37.3 		"/>
		<polyline class="st14" points="157.3,37.3 157.3,3.7 157.2,3.7 157.2,37.3 157.3,37.3 		"/>
		<polyline class="st13" points="157.4,37.3 157.4,3.7 157.3,3.7 157.3,37.3 157.4,37.3 		"/>
		<polyline class="st12" points="157.4,3.7 157.4,37.3 157.4,37.3 157.4,3.7 157.4,3.7 		"/>
		<polyline class="st12" points="157.5,3.7 157.5,37.3 157.4,37.3 157.4,3.7 157.5,3.7 		"/>
		<polyline class="st11" points="157.6,37.3 157.6,3.7 157.5,3.7 157.5,37.3 157.6,37.3 		"/>
		<polyline class="st10" points="157.6,37.3 157.6,3.7 157.6,3.7 157.6,37.3 157.6,37.3 		"/>
		<polyline class="st10" points="157.7,37.3 157.7,3.7 157.6,3.7 157.6,37.3 157.7,37.3 		"/>
		<polyline class="st9" points="157.8,37.3 157.8,3.7 157.7,3.7 157.7,37.3 157.8,37.3 		"/>
		<polyline class="st9" points="157.9,3.7 157.9,37.3 157.8,37.3 157.8,3.7 157.9,3.7 		"/>
		<polyline class="st9" points="157.9,3.7 157.9,37.3 157.9,37.3 157.9,3.7 157.9,3.7 		"/>
		<polyline class="st9" points="158,3.7 158,37.3 157.9,37.3 157.9,3.7 158,3.7 		"/>
		<polyline class="st8" points="158.1,37.3 158.1,3.7 158,3.7 158,37.3 158.1,37.3 		"/>
		<polyline class="st7" points="158.2,37.3 158.2,3.7 158.1,3.7 158.1,37.3 158.2,37.3 		"/>
		<polyline class="st7" points="158.2,37.3 158.2,3.7 158.2,3.7 158.2,37.3 158.2,37.3 		"/>
		<polyline class="st6" points="158.3,3.7 158.3,37.3 158.2,37.3 158.2,3.7 158.3,3.7 		"/>
		<polyline class="st6" points="158.4,3.7 158.4,37.3 158.3,37.3 158.3,3.7 158.4,3.7 		"/>
		<polyline class="st6" points="158.4,3.7 158.4,37.3 158.4,37.3 158.4,3.7 158.4,3.7 		"/>
		<polyline class="st5" points="158.5,37.3 158.5,3.7 158.4,3.7 158.4,37.3 158.5,37.3 		"/>
		<polyline class="st5" points="158.6,37.3 158.6,3.7 158.5,3.7 158.5,37.3 158.6,37.3 		"/>
		<polyline class="st5" points="158.7,3.7 158.7,37.3 158.6,37.3 158.6,3.7 158.7,3.7 		"/>
		<polyline class="st5" points="158.7,3.7 158.7,37.3 158.7,37.3 158.7,3.7 158.7,3.7 		"/>
		<polyline class="st5" points="158.8,3.7 158.8,37.3 158.7,37.3 158.7,3.7 158.8,3.7 		"/>
		<polyline class="st5" points="158.9,3.7 158.9,37.3 158.8,37.3 158.8,3.7 158.9,3.7 		"/>
		<polyline class="st5" points="158.9,37.3 158.9,3.7 158.9,3.7 158.9,37.3 158.9,37.3 		"/>
		<polyline class="st5" points="159,37.3 159,3.7 158.9,3.7 158.9,37.3 159,37.3 		"/>
		<polyline class="st4" points="159.1,3.7 159.1,37.3 159,37.3 159,3.7 159.1,3.7 		"/>
		<polyline class="st4" points="159.2,3.7 159.2,37.3 159.1,37.3 159.1,3.7 159.2,3.7 		"/>
		<polyline class="st4" points="159.2,3.7 159.2,37.3 159.2,37.3 159.2,3.7 159.2,3.7 		"/>
		<polyline class="st3" points="159.3,3.7 159.3,37.3 159.2,37.3 159.2,3.7 159.3,3.7 		"/>
		<polyline class="st3" points="159.4,3.7 159.4,37.3 159.3,37.3 159.3,3.7 159.4,3.7 		"/>
		<polyline class="st3" points="159.5,37.3 159.5,3.7 159.4,3.7 159.4,37.3 159.5,37.3 		"/>
		<polyline class="st3" points="159.5,3.7 159.5,37.3 159.5,37.3 159.5,3.7 159.5,3.7 		"/>
		<polyline class="st3" points="159.6,3.7 159.6,37.3 159.5,37.3 159.5,3.7 159.6,3.7 		"/>
		<polyline class="st3" points="159.7,3.7 159.7,37.3 159.6,37.3 159.6,3.7 159.7,3.7 		"/>
		<polyline class="st3" points="159.8,3.7 159.8,37.3 159.7,37.3 159.7,3.7 159.8,3.7 		"/>
		<polyline class="st3" points="159.8,3.7 159.8,37.3 159.8,37.3 159.8,3.7 159.8,3.7 		"/>
		<polyline class="st3" points="159.9,37.3 159.9,3.7 159.8,3.7 159.8,37.3 159.9,37.3 		"/>
		<polyline class="st3" points="159.9,37.3 159.9,3.7 166.7,3.7 166.7,37.3 159.9,37.3 		"/>
	</g>
</g>
<path class="st1" d="M155.2,18.3c1.2,2.9-0.2,6.3-3.1,7.5c-2.9,1.2-6.3-0.2-7.5-3.1c-1.2-2.9,0.2-6.3,3.1-7.5
	C150.6,14,154,15.4,155.2,18.3C155.2,18.3,155.2,18.3,155.2,18.3z"/>
<g>
	<defs>
		<path id="SVGID_3_" d="M153.8,18.9c0.9,2.1-0.1,4.6-2.3,5.5c-2.1,0.9-4.6-0.1-5.5-2.3c-0.9-2.1,0.1-4.6,2.3-5.5
			C150.4,15.7,152.9,16.7,153.8,18.9C153.8,18.9,153.8,18.9,153.8,18.9z"/>
	</defs>
	<clipPath id="SVGID_4_">
		<use xlink:href="#SVGID_3_"  style="overflow:visible;"/>
	</clipPath>
	<g class="st130">
		<polyline class="st3" points="147.5,15.7 147.5,25.3 145.1,25.3 145.1,15.7 147.5,15.7 		"/>
		<polyline class="st3" points="147.5,15.7 147.5,25.3 147.5,25.3 147.5,15.7 147.5,15.7 		"/>
		<polyline class="st3" points="147.5,15.7 147.5,25.3 147.5,25.3 147.5,15.7 147.5,15.7 		"/>
		<polyline class="st3" points="147.6,15.7 147.6,25.3 147.5,25.3 147.5,15.7 147.6,15.7 		"/>
		<polyline class="st3" points="147.6,15.7 147.6,25.3 147.6,25.3 147.6,15.7 147.6,15.7 		"/>
		<polyline class="st3" points="147.6,15.7 147.6,25.3 147.6,25.3 147.6,15.7 147.6,15.7 		"/>
		<polyline class="st3" points="147.6,15.7 147.6,25.3 147.6,25.3 147.6,15.7 147.6,15.7 		"/>
		<polyline class="st3" points="147.6,15.7 147.6,25.3 147.6,25.3 147.6,15.7 147.6,15.7 		"/>
		<polyline class="st3" points="147.6,15.7 147.6,25.3 147.6,25.3 147.6,15.7 147.6,15.7 		"/>
		<polyline class="st4" points="147.7,25.3 147.7,15.7 147.6,15.7 147.6,25.3 147.7,25.3 		"/>
		<polyline class="st4" points="147.7,25.3 147.7,15.7 147.7,15.7 147.7,25.3 147.7,25.3 		"/>
		<polyline class="st4" points="147.7,25.3 147.7,15.7 147.7,15.7 147.7,25.3 147.7,25.3 		"/>
		<polyline class="st5" points="147.7,25.3 147.7,15.7 147.7,15.7 147.7,25.3 147.7,25.3 		"/>
		<polyline class="st5" points="147.8,25.3 147.8,15.7 147.7,15.7 147.7,25.3 147.8,25.3 		"/>
		<polyline class="st5" points="147.8,25.3 147.8,15.7 147.8,15.7 147.8,25.3 147.8,25.3 		"/>
		<polyline class="st5" points="147.8,25.3 147.8,15.7 147.8,15.7 147.8,25.3 147.8,25.3 		"/>
		<polyline class="st5" points="147.8,15.7 147.8,25.3 147.8,25.3 147.8,15.7 147.8,15.7 		"/>
		<polyline class="st5" points="147.8,15.7 147.8,25.3 147.8,25.3 147.8,15.7 147.8,15.7 		"/>
		<polyline class="st5" points="147.8,15.7 147.8,25.3 147.8,25.3 147.8,15.7 147.8,15.7 		"/>
		<polyline class="st5" points="147.9,15.7 147.9,25.3 147.8,25.3 147.8,15.7 147.9,15.7 		"/>
		<polyline class="st5" points="147.9,15.7 147.9,25.3 147.9,25.3 147.9,15.7 147.9,15.7 		"/>
		<polyline class="st6" points="147.9,15.7 147.9,25.3 147.9,25.3 147.9,15.7 147.9,15.7 		"/>
		<polyline class="st6" points="147.9,15.7 147.9,25.3 147.9,25.3 147.9,15.7 147.9,15.7 		"/>
		<polyline class="st6" points="147.9,15.7 147.9,25.3 147.9,25.3 147.9,15.7 147.9,15.7 		"/>
		<polyline class="st7" points="148,15.7 148,25.3 147.9,25.3 147.9,15.7 148,15.7 		"/>
		<polyline class="st7" points="148,15.7 148,25.3 148,25.3 148,15.7 148,15.7 		"/>
		<polyline class="st8" points="148,15.7 148,25.3 148,25.3 148,15.7 148,15.7 		"/>
		<polyline class="st9" points="148,15.7 148,25.3 148,25.3 148,15.7 148,15.7 		"/>
		<polyline class="st9" points="148,15.7 148,25.3 148,25.3 148,15.7 148,15.7 		"/>
		<polyline class="st9" points="148.1,15.7 148.1,25.3 148,25.3 148,15.7 148.1,15.7 		"/>
		<polyline class="st10" points="148.1,15.7 148.1,25.3 148.1,25.3 148.1,15.7 148.1,15.7 		"/>
		<polyline class="st10" points="148.1,15.7 148.1,25.3 148.1,25.3 148.1,15.7 148.1,15.7 		"/>
		<polyline class="st11" points="148.1,15.7 148.1,25.3 148.1,25.3 148.1,15.7 148.1,15.7 		"/>
		<polyline class="st11" points="148.1,15.7 148.1,25.3 148.1,25.3 148.1,15.7 148.1,15.7 		"/>
		<polyline class="st12" points="148.2,15.7 148.2,25.3 148.1,25.3 148.1,15.7 148.2,15.7 		"/>
		<polyline class="st13" points="148.2,15.7 148.2,25.3 148.2,25.3 148.2,15.7 148.2,15.7 		"/>
		<polyline class="st13" points="148.2,15.7 148.2,25.3 148.2,25.3 148.2,15.7 148.2,15.7 		"/>
		<polyline class="st14" points="148.2,15.7 148.2,25.3 148.2,25.3 148.2,15.7 148.2,15.7 		"/>
		<polyline class="st15" points="148.2,15.7 148.2,25.3 148.2,25.3 148.2,15.7 148.2,15.7 		"/>
		<polyline class="st16" points="148.2,15.7 148.2,25.3 148.2,25.3 148.2,15.7 148.2,15.7 		"/>
		<polyline class="st16" points="148.3,15.7 148.3,25.3 148.2,25.3 148.2,15.7 148.3,15.7 		"/>
		<polyline class="st16" points="148.3,15.7 148.3,25.3 148.3,25.3 148.3,15.7 148.3,15.7 		"/>
		<polyline class="st17" points="148.3,15.7 148.3,25.3 148.3,25.3 148.3,15.7 148.3,15.7 		"/>
		<polyline class="st18" points="148.3,15.7 148.3,25.3 148.3,25.3 148.3,15.7 148.3,15.7 		"/>
		<polyline class="st19" points="148.4,15.7 148.4,25.3 148.3,25.3 148.3,15.7 148.4,15.7 		"/>
		<polyline class="st19" points="148.4,15.7 148.4,25.3 148.4,25.3 148.4,15.7 148.4,15.7 		"/>
		<polyline class="st20" points="148.4,15.7 148.4,25.3 148.4,25.3 148.4,15.7 148.4,15.7 		"/>
		<polyline class="st21" points="148.4,15.7 148.4,25.3 148.4,25.3 148.4,15.7 148.4,15.7 		"/>
		<polyline class="st22" points="148.4,15.7 148.4,25.3 148.4,25.3 148.4,15.7 148.4,15.7 		"/>
		<polyline class="st22" points="148.4,15.7 148.4,25.3 148.4,25.3 148.4,15.7 148.4,15.7 		"/>
		<polyline class="st23" points="148.5,15.7 148.5,25.3 148.4,25.3 148.4,15.7 148.5,15.7 		"/>
		<polyline class="st24" points="148.5,15.7 148.5,25.3 148.5,25.3 148.5,15.7 148.5,15.7 		"/>
		<polyline class="st25" points="148.5,15.7 148.5,25.3 148.5,25.3 148.5,15.7 148.5,15.7 		"/>
		<polyline class="st25" points="148.5,15.7 148.5,25.3 148.5,25.3 148.5,15.7 148.5,15.7 		"/>
		<polyline class="st26" points="148.6,15.7 148.6,25.3 148.5,25.3 148.5,15.7 148.6,15.7 		"/>
		<polyline class="st27" points="148.6,15.7 148.6,25.3 148.6,25.3 148.6,15.7 148.6,15.7 		"/>
		<polyline class="st28" points="148.6,15.7 148.6,25.3 148.6,25.3 148.6,15.7 148.6,15.7 		"/>
		<polyline class="st29" points="148.6,15.7 148.6,25.3 148.6,25.3 148.6,15.7 148.6,15.7 		"/>
		<polyline class="st30" points="148.6,15.7 148.6,25.3 148.6,25.3 148.6,15.7 148.6,15.7 		"/>
		<polyline class="st31" points="148.6,15.7 148.6,25.3 148.6,25.3 148.6,15.7 148.6,15.7 		"/>
		<polyline class="st32" points="148.7,15.7 148.7,25.3 148.6,25.3 148.6,15.7 148.7,15.7 		"/>
		<polyline class="st33" points="148.7,15.7 148.7,25.3 148.7,25.3 148.7,15.7 148.7,15.7 		"/>
		<polyline class="st34" points="148.7,15.7 148.7,25.3 148.7,25.3 148.7,15.7 148.7,15.7 		"/>
		<polyline class="st35" points="148.7,15.7 148.7,25.3 148.7,25.3 148.7,15.7 148.7,15.7 		"/>
		<polyline class="st36" points="148.7,25.3 148.7,15.7 148.7,15.7 148.7,25.3 148.7,25.3 		"/>
		<polyline class="st37" points="148.8,25.3 148.8,15.7 148.7,15.7 148.7,25.3 148.8,25.3 		"/>
		<polyline class="st38" points="148.8,25.3 148.8,15.7 148.8,15.7 148.8,25.3 148.8,25.3 		"/>
		<polyline class="st39" points="148.8,25.3 148.8,15.7 148.8,15.7 148.8,25.3 148.8,25.3 		"/>
		<polyline class="st39" points="148.8,25.3 148.8,15.7 148.8,15.7 148.8,25.3 148.8,25.3 		"/>
		<polyline class="st40" points="148.8,25.3 148.8,15.7 148.8,15.7 148.8,25.3 148.8,25.3 		"/>
		<polyline class="st41" points="148.9,25.3 148.9,15.7 148.8,15.7 148.8,25.3 148.9,25.3 		"/>
		<polyline class="st42" points="148.9,25.3 148.9,15.7 148.9,15.7 148.9,25.3 148.9,25.3 		"/>
		<polyline class="st43" points="148.9,25.3 148.9,15.7 148.9,15.7 148.9,25.3 148.9,25.3 		"/>
		<polyline class="st44" points="148.9,15.7 148.9,25.3 148.9,25.3 148.9,15.7 148.9,15.7 		"/>
		<polyline class="st45" points="148.9,15.7 148.9,25.3 148.9,25.3 148.9,15.7 148.9,15.7 		"/>
		<polyline class="st46" points="148.9,15.7 148.9,25.3 148.9,25.3 148.9,15.7 148.9,15.7 		"/>
		<polyline class="st47" points="149,15.7 149,25.3 148.9,25.3 148.9,15.7 149,15.7 		"/>
		<polyline class="st48" points="149,25.3 149,15.7 149,15.7 149,25.3 149,25.3 		"/>
		<polyline class="st49" points="149,25.3 149,15.7 149,15.7 149,25.3 149,25.3 		"/>
		<polyline class="st49" points="149,25.3 149,15.7 149,15.7 149,25.3 149,25.3 		"/>
		<polyline class="st50" points="149.1,25.3 149.1,15.7 149,15.7 149,25.3 149.1,25.3 		"/>
		<polyline class="st51" points="149.1,25.3 149.1,15.7 149.1,15.7 149.1,25.3 149.1,25.3 		"/>
		<polyline class="st52" points="149.1,25.3 149.1,15.7 149.1,15.7 149.1,25.3 149.1,25.3 		"/>
		<polyline class="st53" points="149.1,25.3 149.1,15.7 149.1,15.7 149.1,25.3 149.1,25.3 		"/>
		<polyline class="st54" points="149.1,25.3 149.1,15.7 149.1,15.7 149.1,25.3 149.1,25.3 		"/>
		<polyline class="st55" points="149.1,25.3 149.1,15.7 149.1,15.7 149.1,25.3 149.1,25.3 		"/>
		<polyline class="st56" points="149.2,25.3 149.2,15.7 149.1,15.7 149.1,25.3 149.2,25.3 		"/>
		<polyline class="st57" points="149.2,25.3 149.2,15.7 149.2,15.7 149.2,25.3 149.2,25.3 		"/>
		<polyline class="st58" points="149.2,25.3 149.2,15.7 149.2,15.7 149.2,25.3 149.2,25.3 		"/>
		<polyline class="st59" points="149.2,25.3 149.2,15.7 149.2,15.7 149.2,25.3 149.2,25.3 		"/>
		<polyline class="st60" points="149.2,25.3 149.2,15.7 149.2,15.7 149.2,25.3 149.2,25.3 		"/>
		<polyline class="st61" points="149.3,25.3 149.3,15.7 149.2,15.7 149.2,25.3 149.3,25.3 		"/>
		<polyline class="st62" points="149.3,25.3 149.3,15.7 149.3,15.7 149.3,25.3 149.3,25.3 		"/>
		<polyline class="st63" points="149.3,25.3 149.3,15.7 149.3,15.7 149.3,25.3 149.3,25.3 		"/>
		<polyline class="st64" points="149.3,25.3 149.3,15.7 149.3,15.7 149.3,25.3 149.3,25.3 		"/>
		<polyline class="st65" points="149.3,25.3 149.3,15.7 149.3,15.7 149.3,25.3 149.3,25.3 		"/>
		<polyline class="st66" points="149.4,25.3 149.4,15.7 149.3,15.7 149.3,25.3 149.4,25.3 		"/>
		<polyline class="st67" points="149.4,25.3 149.4,15.7 149.4,15.7 149.4,25.3 149.4,25.3 		"/>
		<polyline class="st68" points="149.4,25.3 149.4,15.7 149.4,15.7 149.4,25.3 149.4,25.3 		"/>
		<polyline class="st69" points="149.4,25.3 149.4,15.7 149.4,15.7 149.4,25.3 149.4,25.3 		"/>
		<polyline class="st70" points="149.4,25.3 149.4,15.7 149.4,15.7 149.4,25.3 149.4,25.3 		"/>
		<polyline class="st71" points="149.5,25.3 149.5,15.7 149.4,15.7 149.4,25.3 149.5,25.3 		"/>
		<polyline class="st72" points="149.5,25.3 149.5,15.7 149.5,15.7 149.5,25.3 149.5,25.3 		"/>
		<polyline class="st73" points="149.5,25.3 149.5,15.7 149.5,15.7 149.5,25.3 149.5,25.3 		"/>
		<polyline class="st74" points="149.5,25.3 149.5,15.7 149.5,15.7 149.5,25.3 149.5,25.3 		"/>
		<polyline class="st75" points="149.5,25.3 149.5,15.7 149.5,15.7 149.5,25.3 149.5,25.3 		"/>
		<polyline class="st76" points="149.6,25.3 149.6,15.7 149.5,15.7 149.5,25.3 149.6,25.3 		"/>
		<polyline class="st77" points="149.6,25.3 149.6,15.7 149.6,15.7 149.6,25.3 149.6,25.3 		"/>
		<polyline class="st78" points="149.6,25.3 149.6,15.7 149.6,15.7 149.6,25.3 149.6,25.3 		"/>
		<polyline class="st79" points="149.6,25.3 149.6,15.7 149.6,15.7 149.6,25.3 149.6,25.3 		"/>
		<polyline class="st80" points="149.6,25.3 149.6,15.7 149.6,15.7 149.6,25.3 149.6,25.3 		"/>
		<polyline class="st81" points="149.7,25.3 149.7,15.7 149.6,15.7 149.6,25.3 149.7,25.3 		"/>
		<polyline class="st82" points="149.7,25.3 149.7,15.7 149.7,15.7 149.7,25.3 149.7,25.3 		"/>
		<polyline class="st83" points="149.7,25.3 149.7,15.7 149.7,15.7 149.7,25.3 149.7,25.3 		"/>
		<polyline class="st84" points="149.7,25.3 149.7,15.7 149.7,15.7 149.7,25.3 149.7,25.3 		"/>
		<polyline class="st85" points="149.7,25.3 149.7,15.7 149.7,15.7 149.7,25.3 149.7,25.3 		"/>
		<polyline class="st86" points="149.8,25.3 149.8,15.7 149.7,15.7 149.7,25.3 149.8,25.3 		"/>
		<polyline class="st87" points="149.8,25.3 149.8,15.7 149.8,15.7 149.8,25.3 149.8,25.3 		"/>
		<polyline class="st88" points="149.8,25.3 149.8,15.7 149.8,15.7 149.8,25.3 149.8,25.3 		"/>
		<polyline class="st89" points="149.8,25.3 149.8,15.7 149.8,15.7 149.8,25.3 149.8,25.3 		"/>
		<polyline class="st90" points="149.8,25.3 149.8,15.7 149.8,15.7 149.8,25.3 149.8,25.3 		"/>
		<polyline class="st91" points="149.9,25.3 149.9,15.7 149.8,15.7 149.8,25.3 149.9,25.3 		"/>
		<polyline class="st92" points="149.9,25.3 149.9,15.7 149.9,15.7 149.9,25.3 149.9,25.3 		"/>
		<polyline class="st93" points="149.9,25.3 149.9,15.7 149.9,15.7 149.9,25.3 149.9,25.3 		"/>
		<polyline class="st94" points="149.9,25.3 149.9,15.7 149.9,15.7 149.9,25.3 149.9,25.3 		"/>
		<polyline class="st95" points="149.9,25.3 149.9,15.7 149.9,15.7 149.9,25.3 149.9,25.3 		"/>
		<polyline class="st96" points="149.9,25.3 149.9,15.7 149.9,15.7 149.9,25.3 149.9,25.3 		"/>
		<polyline class="st97" points="150,25.3 150,15.7 149.9,15.7 149.9,25.3 150,25.3 		"/>
		<polyline class="st98" points="150,25.3 150,15.7 150,15.7 150,25.3 150,25.3 		"/>
		<polyline class="st99" points="150,25.3 150,15.7 150,15.7 150,25.3 150,25.3 		"/>
		<polyline class="st100" points="150,25.3 150,15.7 150,15.7 150,25.3 150,25.3 		"/>
		<polyline class="st101" points="150.1,15.7 150.1,25.3 150,25.3 150,15.7 150.1,15.7 		"/>
		<polyline class="st101" points="150.1,15.7 150.1,25.3 150.1,25.3 150.1,15.7 150.1,15.7 		"/>
		<polyline class="st100" points="150.1,15.7 150.1,25.3 150.1,25.3 150.1,15.7 150.1,15.7 		"/>
		<polyline class="st99" points="150.1,15.7 150.1,25.3 150.1,25.3 150.1,15.7 150.1,15.7 		"/>
		<polyline class="st98" points="150.1,15.7 150.1,25.3 150.1,25.3 150.1,15.7 150.1,15.7 		"/>
		<polyline class="st97" points="150.1,15.7 150.1,25.3 150.1,25.3 150.1,15.7 150.1,15.7 		"/>
		<polyline class="st96" points="150.2,15.7 150.2,25.3 150.1,25.3 150.1,15.7 150.2,15.7 		"/>
		<polyline class="st102" points="150.2,15.7 150.2,25.3 150.2,25.3 150.2,15.7 150.2,15.7 		"/>
		<polyline class="st94" points="150.2,15.7 150.2,25.3 150.2,25.3 150.2,15.7 150.2,15.7 		"/>
		<polyline class="st93" points="150.2,15.7 150.2,25.3 150.2,25.3 150.2,15.7 150.2,15.7 		"/>
		<polyline class="st103" points="150.2,15.7 150.2,25.3 150.2,25.3 150.2,15.7 150.2,15.7 		"/>
		<polyline class="st91" points="150.3,15.7 150.3,25.3 150.2,25.3 150.2,15.7 150.3,15.7 		"/>
		<polyline class="st90" points="150.3,15.7 150.3,25.3 150.3,25.3 150.3,15.7 150.3,15.7 		"/>
		<polyline class="st104" points="150.3,15.7 150.3,25.3 150.3,25.3 150.3,15.7 150.3,15.7 		"/>
		<polyline class="st88" points="150.3,25.3 150.3,15.7 150.3,15.7 150.3,25.3 150.3,25.3 		"/>
		<polyline class="st105" points="150.4,25.3 150.4,15.7 150.3,15.7 150.3,25.3 150.4,25.3 		"/>
		<polyline class="st86" points="150.4,25.3 150.4,15.7 150.4,15.7 150.4,25.3 150.4,25.3 		"/>
		<polyline class="st85" points="150.4,25.3 150.4,15.7 150.4,15.7 150.4,25.3 150.4,25.3 		"/>
		<polyline class="st106" points="150.4,25.3 150.4,15.7 150.4,15.7 150.4,25.3 150.4,25.3 		"/>
		<polyline class="st83" points="150.4,25.3 150.4,15.7 150.4,15.7 150.4,25.3 150.4,25.3 		"/>
		<polyline class="st107" points="150.5,25.3 150.5,15.7 150.4,15.7 150.4,25.3 150.5,25.3 		"/>
		<polyline class="st81" points="150.5,25.3 150.5,15.7 150.5,15.7 150.5,25.3 150.5,25.3 		"/>
		<polyline class="st108" points="150.5,25.3 150.5,15.7 150.5,15.7 150.5,25.3 150.5,25.3 		"/>
		<polyline class="st79" points="150.5,25.3 150.5,15.7 150.5,15.7 150.5,25.3 150.5,25.3 		"/>
		<polyline class="st78" points="150.5,25.3 150.5,15.7 150.5,15.7 150.5,25.3 150.5,25.3 		"/>
		<polyline class="st109" points="150.6,25.3 150.6,15.7 150.5,15.7 150.5,25.3 150.6,25.3 		"/>
		<polyline class="st76" points="150.6,25.3 150.6,15.7 150.6,15.7 150.6,25.3 150.6,25.3 		"/>
		<polyline class="st110" points="150.6,25.3 150.6,15.7 150.6,15.7 150.6,25.3 150.6,25.3 		"/>
		<polyline class="st74" points="150.6,25.3 150.6,15.7 150.6,15.7 150.6,25.3 150.6,25.3 		"/>
		<polyline class="st111" points="150.6,25.3 150.6,15.7 150.6,15.7 150.6,25.3 150.6,25.3 		"/>
		<polyline class="st72" points="150.7,25.3 150.7,15.7 150.6,15.7 150.6,25.3 150.7,25.3 		"/>
		<polyline class="st112" points="150.7,25.3 150.7,15.7 150.7,15.7 150.7,25.3 150.7,25.3 		"/>
		<polyline class="st70" points="150.7,25.3 150.7,15.7 150.7,15.7 150.7,25.3 150.7,25.3 		"/>
		<polyline class="st113" points="150.7,25.3 150.7,15.7 150.7,15.7 150.7,25.3 150.7,25.3 		"/>
		<polyline class="st67" points="150.8,25.3 150.8,15.7 150.7,15.7 150.7,25.3 150.8,25.3 		"/>
		<polyline class="st114" points="150.8,25.3 150.8,15.7 150.8,15.7 150.8,25.3 150.8,25.3 		"/>
		<polyline class="st66" points="150.8,25.3 150.8,15.7 150.8,15.7 150.8,25.3 150.8,25.3 		"/>
		<polyline class="st115" points="150.8,25.3 150.8,15.7 150.8,15.7 150.8,25.3 150.8,25.3 		"/>
		<polyline class="st116" points="150.8,25.3 150.8,15.7 150.8,15.7 150.8,25.3 150.8,25.3 		"/>
		<polyline class="st63" points="150.9,25.3 150.9,15.7 150.8,15.7 150.8,25.3 150.9,25.3 		"/>
		<polyline class="st62" points="150.9,25.3 150.9,15.7 150.9,15.7 150.9,25.3 150.9,25.3 		"/>
		<polyline class="st61" points="150.9,25.3 150.9,15.7 150.9,15.7 150.9,25.3 150.9,25.3 		"/>
		<polyline class="st60" points="150.9,25.3 150.9,15.7 150.9,15.7 150.9,25.3 150.9,25.3 		"/>
		<polyline class="st58" points="150.9,25.3 150.9,15.7 150.9,15.7 150.9,25.3 150.9,25.3 		"/>
		<polyline class="st117" points="151,25.3 151,15.7 150.9,15.7 150.9,25.3 151,25.3 		"/>
		<polyline class="st56" points="151,25.3 151,15.7 151,15.7 151,25.3 151,25.3 		"/>
		<polyline class="st118" points="151,25.3 151,15.7 151,15.7 151,25.3 151,25.3 		"/>
		<polyline class="st54" points="151,25.3 151,15.7 151,15.7 151,25.3 151,25.3 		"/>
		<polyline class="st54" points="151,25.3 151,15.7 151,15.7 151,25.3 151,25.3 		"/>
		<polyline class="st53" points="151.1,25.3 151.1,15.7 151,15.7 151,25.3 151.1,25.3 		"/>
		<polyline class="st119" points="151.1,25.3 151.1,15.7 151.1,15.7 151.1,25.3 151.1,25.3 		"/>
		<polyline class="st51" points="151.1,25.3 151.1,15.7 151.1,15.7 151.1,25.3 151.1,25.3 		"/>
		<polyline class="st120" points="151.1,25.3 151.1,15.7 151.1,15.7 151.1,25.3 151.1,25.3 		"/>
		<polyline class="st49" points="151.1,25.3 151.1,15.7 151.1,15.7 151.1,25.3 151.1,25.3 		"/>
		<polyline class="st121" points="151.2,15.7 151.2,25.3 151.1,25.3 151.1,15.7 151.2,15.7 		"/>
		<polyline class="st47" points="151.2,15.7 151.2,25.3 151.2,25.3 151.2,15.7 151.2,15.7 		"/>
		<polyline class="st122" points="151.2,15.7 151.2,25.3 151.2,25.3 151.2,15.7 151.2,15.7 		"/>
		<polyline class="st45" points="151.2,15.7 151.2,25.3 151.2,25.3 151.2,15.7 151.2,15.7 		"/>
		<polyline class="st45" points="151.2,15.7 151.2,25.3 151.2,25.3 151.2,15.7 151.2,15.7 		"/>
		<polyline class="st44" points="151.3,15.7 151.3,25.3 151.2,25.3 151.2,15.7 151.3,15.7 		"/>
		<polyline class="st123" points="151.3,15.7 151.3,25.3 151.3,25.3 151.3,15.7 151.3,15.7 		"/>
		<polyline class="st41" points="151.3,15.7 151.3,25.3 151.3,25.3 151.3,15.7 151.3,15.7 		"/>
		<polyline class="st124" points="151.3,15.7 151.3,25.3 151.3,25.3 151.3,15.7 151.3,15.7 		"/>
		<polyline class="st125" points="151.4,15.7 151.4,25.3 151.3,25.3 151.3,15.7 151.4,15.7 		"/>
		<polyline class="st39" points="151.4,15.7 151.4,25.3 151.4,25.3 151.4,15.7 151.4,15.7 		"/>
		<polyline class="st126" points="151.4,15.7 151.4,25.3 151.4,25.3 151.4,15.7 151.4,15.7 		"/>
		<polyline class="st37" points="151.4,15.7 151.4,25.3 151.4,25.3 151.4,15.7 151.4,15.7 		"/>
		<polyline class="st37" points="151.4,15.7 151.4,25.3 151.4,25.3 151.4,15.7 151.4,15.7 		"/>
		<polyline class="st35" points="151.4,15.7 151.4,25.3 151.4,25.3 151.4,15.7 151.4,15.7 		"/>
		<polyline class="st34" points="151.5,15.7 151.5,25.3 151.4,25.3 151.4,15.7 151.5,15.7 		"/>
		<polyline class="st33" points="151.5,15.7 151.5,25.3 151.5,25.3 151.5,15.7 151.5,15.7 		"/>
		<polyline class="st32" points="151.5,15.7 151.5,25.3 151.5,25.3 151.5,15.7 151.5,15.7 		"/>
		<polyline class="st127" points="151.5,15.7 151.5,25.3 151.5,25.3 151.5,15.7 151.5,15.7 		"/>
		<polyline class="st30" points="151.6,15.7 151.6,25.3 151.5,25.3 151.5,15.7 151.6,15.7 		"/>
		<polyline class="st29" points="151.6,15.7 151.6,25.3 151.6,25.3 151.6,15.7 151.6,15.7 		"/>
		<polyline class="st28" points="151.6,15.7 151.6,25.3 151.6,25.3 151.6,15.7 151.6,15.7 		"/>
		<polyline class="st128" points="151.6,15.7 151.6,25.3 151.6,25.3 151.6,15.7 151.6,15.7 		"/>
		<polyline class="st26" points="151.6,15.7 151.6,25.3 151.6,25.3 151.6,15.7 151.6,15.7 		"/>
		<polyline class="st25" points="151.6,15.7 151.6,25.3 151.6,25.3 151.6,15.7 151.6,15.7 		"/>
		<polyline class="st25" points="151.7,25.3 151.7,15.7 151.6,15.7 151.6,25.3 151.7,25.3 		"/>
		<polyline class="st129" points="151.7,25.3 151.7,15.7 151.7,15.7 151.7,25.3 151.7,25.3 		"/>
		<polyline class="st23" points="151.7,25.3 151.7,15.7 151.7,15.7 151.7,25.3 151.7,25.3 		"/>
		<polyline class="st22" points="151.7,25.3 151.7,15.7 151.7,15.7 151.7,25.3 151.7,25.3 		"/>
		<polyline class="st22" points="151.8,25.3 151.8,15.7 151.7,15.7 151.7,25.3 151.8,25.3 		"/>
		<polyline class="st21" points="151.8,25.3 151.8,15.7 151.8,15.7 151.8,25.3 151.8,25.3 		"/>
		<polyline class="st20" points="151.8,25.3 151.8,15.7 151.8,15.7 151.8,25.3 151.8,25.3 		"/>
		<polyline class="st19" points="151.8,25.3 151.8,15.7 151.8,15.7 151.8,25.3 151.8,25.3 		"/>
		<polyline class="st19" points="151.8,25.3 151.8,15.7 151.8,15.7 151.8,25.3 151.8,25.3 		"/>
		<polyline class="st18" points="151.9,25.3 151.9,15.7 151.8,15.7 151.8,25.3 151.9,25.3 		"/>
		<polyline class="st17" points="151.9,25.3 151.9,15.7 151.9,15.7 151.9,25.3 151.9,25.3 		"/>
		<polyline class="st17" points="151.9,25.3 151.9,15.7 151.9,15.7 151.9,25.3 151.9,25.3 		"/>
		<polyline class="st16" points="151.9,25.3 151.9,15.7 151.9,15.7 151.9,25.3 151.9,25.3 		"/>
		<polyline class="st16" points="151.9,25.3 151.9,15.7 151.9,15.7 151.9,25.3 151.9,25.3 		"/>
		<polyline class="st15" points="152,25.3 152,15.7 151.9,15.7 151.9,25.3 152,25.3 		"/>
		<polyline class="st14" points="152,25.3 152,15.7 152,15.7 152,25.3 152,25.3 		"/>
		<polyline class="st14" points="152,25.3 152,15.7 152,15.7 152,25.3 152,25.3 		"/>
		<polyline class="st13" points="152,25.3 152,15.7 152,15.7 152,25.3 152,25.3 		"/>
		<polyline class="st12" points="152,25.3 152,15.7 152,15.7 152,25.3 152,25.3 		"/>
		<polyline class="st12" points="152.1,25.3 152.1,15.7 152,15.7 152,25.3 152.1,25.3 		"/>
		<polyline class="st11" points="152.1,25.3 152.1,15.7 152.1,15.7 152.1,25.3 152.1,25.3 		"/>
		<polyline class="st10" points="152.1,25.3 152.1,15.7 152.1,15.7 152.1,25.3 152.1,25.3 		"/>
		<polyline class="st10" points="152.1,25.3 152.1,15.7 152.1,15.7 152.1,25.3 152.1,25.3 		"/>
		<polyline class="st9" points="152.1,25.3 152.1,15.7 152.1,15.7 152.1,25.3 152.1,25.3 		"/>
		<polyline class="st9" points="152.2,25.3 152.2,15.7 152.1,15.7 152.1,25.3 152.2,25.3 		"/>
		<polyline class="st9" points="152.2,25.3 152.2,15.7 152.2,15.7 152.2,25.3 152.2,25.3 		"/>
		<polyline class="st9" points="152.2,25.3 152.2,15.7 152.2,15.7 152.2,25.3 152.2,25.3 		"/>
		<polyline class="st8" points="152.2,25.3 152.2,15.7 152.2,15.7 152.2,25.3 152.2,25.3 		"/>
		<polyline class="st7" points="152.2,25.3 152.2,15.7 152.2,15.7 152.2,25.3 152.2,25.3 		"/>
		<polyline class="st7" points="152.3,25.3 152.3,15.7 152.2,15.7 152.2,25.3 152.3,25.3 		"/>
		<polyline class="st6" points="152.3,15.7 152.3,25.3 152.3,25.3 152.3,15.7 152.3,15.7 		"/>
		<polyline class="st6" points="152.3,15.7 152.3,25.3 152.3,25.3 152.3,15.7 152.3,15.7 		"/>
		<polyline class="st6" points="152.3,15.7 152.3,25.3 152.3,25.3 152.3,15.7 152.3,15.7 		"/>
		<polyline class="st5" points="152.4,15.7 152.4,25.3 152.3,25.3 152.3,15.7 152.4,15.7 		"/>
		<polyline class="st5" points="152.4,15.7 152.4,25.3 152.4,25.3 152.4,15.7 152.4,15.7 		"/>
		<polyline class="st5" points="152.4,15.7 152.4,25.3 152.4,25.3 152.4,15.7 152.4,15.7 		"/>
		<polyline class="st5" points="152.4,15.7 152.4,25.3 152.4,25.3 152.4,15.7 152.4,15.7 		"/>
		<polyline class="st5" points="152.4,15.7 152.4,25.3 152.4,25.3 152.4,15.7 152.4,15.7 		"/>
		<polyline class="st5" points="152.4,15.7 152.4,25.3 152.4,25.3 152.4,15.7 152.4,15.7 		"/>
		<polyline class="st5" points="152.5,15.7 152.5,25.3 152.4,25.3 152.4,15.7 152.5,15.7 		"/>
		<polyline class="st5" points="152.5,15.7 152.5,25.3 152.5,25.3 152.5,15.7 152.5,15.7 		"/>
		<polyline class="st4" points="152.5,15.7 152.5,25.3 152.5,25.3 152.5,15.7 152.5,15.7 		"/>
		<polyline class="st4" points="152.5,15.7 152.5,25.3 152.5,25.3 152.5,15.7 152.5,15.7 		"/>
		<polyline class="st4" points="152.6,15.7 152.6,25.3 152.5,25.3 152.5,15.7 152.6,15.7 		"/>
		<polyline class="st3" points="152.6,15.7 152.6,25.3 152.6,25.3 152.6,15.7 152.6,15.7 		"/>
		<polyline class="st3" points="152.6,15.7 152.6,25.3 152.6,25.3 152.6,15.7 152.6,15.7 		"/>
		<polyline class="st3" points="152.6,15.7 152.6,25.3 152.6,25.3 152.6,15.7 152.6,15.7 		"/>
		<polyline class="st3" points="152.6,15.7 152.6,25.3 152.6,25.3 152.6,15.7 152.6,15.7 		"/>
		<polyline class="st3" points="152.7,15.7 152.7,25.3 152.6,25.3 152.6,15.7 152.7,15.7 		"/>
		<polyline class="st3" points="152.7,15.7 152.7,25.3 152.7,25.3 152.7,15.7 152.7,15.7 		"/>
		<polyline class="st3" points="152.7,15.7 152.7,25.3 152.7,25.3 152.7,15.7 152.7,15.7 		"/>
		<polyline class="st3" points="152.7,15.7 152.7,25.3 152.7,25.3 152.7,15.7 152.7,15.7 		"/>
		<polyline class="st3" points="152.8,15.7 152.8,25.3 152.7,25.3 152.7,15.7 152.8,15.7 		"/>
		<polyline class="st3" points="152.8,25.3 152.8,15.7 154.7,15.7 154.7,25.3 152.8,25.3 		"/>
	</g>
</g>
</svg>
