<svg width="17" height="21" viewBox="0 0 17 21" fill="none" xmlns="http://www.w3.org/2000/svg">
<path d="M8.5 4.25C7.45833 4.25 6.57292 4.61458 5.84375 5.34375C5.11458 6.07292 4.75 6.95833 4.75 8C4.75 9.04167 5.11458 9.92708 5.84375 10.6562C6.57292 11.3854 7.45833 11.75 8.5 11.75C9.54167 11.75 10.4271 11.3854 11.1562 10.6562C11.8854 9.92708 12.25 9.04167 12.25 8C12.25 6.95833 11.8854 6.07292 11.1562 5.34375C10.4271 4.61458 9.54167 4.25 8.5 4.25ZM8.5 10.5C7.82292 10.5 7.23698 10.2526 6.74219 9.75781C6.2474 9.26302 6 8.67708 6 8C6 7.32292 6.2474 6.73698 6.74219 6.24219C7.23698 5.7474 7.82292 5.5 8.5 5.5C9.17708 5.5 9.76302 5.7474 10.2578 6.24219C10.7526 6.73698 11 7.32292 11 8C11 8.67708 10.7526 9.26302 10.2578 9.75781C9.76302 10.2526 9.17708 10.5 8.5 10.5ZM8.5 0.5C7.14583 0.5 5.89583 0.838542 4.75 1.51562C3.60417 2.19271 2.69271 3.10417 2.01562 4.25C1.33854 5.39583 1 6.64583 1 8C1 8.83333 1.10417 9.57552 1.3125 10.2266C1.52083 10.8516 1.92448 11.6328 2.52344 12.5703C2.9401 13.2214 3.79948 14.4844 5.10156 16.3594L7.71875 20.1094C7.90104 20.3698 8.16146 20.5 8.5 20.5C8.83854 20.5 9.09896 20.3698 9.28125 20.1094L11.8984 16.3594C13.2005 14.4844 14.0599 13.2214 14.4766 12.5703C15.0755 11.6328 15.4792 10.8516 15.6875 10.2266C15.8958 9.57552 16 8.83333 16 8C16 6.64583 15.6615 5.39583 14.9844 4.25C14.3073 3.10417 13.3958 2.19271 12.25 1.51562C11.1042 0.838542 9.85417 0.5 8.5 0.5ZM8.5 19.0156C7.875 18.1042 7.06771 16.9453 6.07812 15.5391C4.82812 13.7422 4.00781 12.5573 3.61719 11.9844C3.07031 11.099 2.70573 10.3958 2.52344 9.875C2.34115 9.32812 2.25 8.70312 2.25 8C2.25 7.16667 2.40625 6.3724 2.71875 5.61719C3.03125 4.86198 3.48698 4.1849 4.08594 3.58594C4.6849 2.98698 5.36198 2.53125 6.11719 2.21875C6.8724 1.90625 7.66667 1.75 8.5 1.75C9.33333 1.75 10.1276 1.90625 10.8828 2.21875C11.638 2.53125 12.3151 2.98698 12.9141 3.58594C13.513 4.1849 13.9688 4.86198 14.2812 5.61719C14.5938 6.3724 14.75 7.16667 14.75 8C14.75 8.70312 14.6589 9.32812 14.4766 9.875C14.2943 10.3958 13.9297 11.099 13.3828 11.9844C12.9922 12.5573 12.1719 13.7422 10.9219 15.5391L8.5 19.0156Z" fill="#26CDC3"/>
<path d="M11.1562 10.6562L10.8027 10.3027L11.1562 10.6562ZM11.1562 5.34375L10.8027 5.6973L11.1562 5.34375ZM1.3125 10.2266L0.836253 10.379L0.838158 10.3847L1.3125 10.2266ZM2.52344 12.5703L2.10209 12.8395L2.1023 12.8398L2.52344 12.5703ZM5.10156 16.3594L4.69088 16.6446L4.69155 16.6455L5.10156 16.3594ZM7.71875 20.1094L7.30873 20.3955L7.30913 20.3961L7.71875 20.1094ZM9.28125 20.1094L9.69087 20.3961L9.69127 20.3955L9.28125 20.1094ZM11.8984 16.3594L12.3085 16.6455L12.3091 16.6446L11.8984 16.3594ZM14.4766 12.5703L14.8977 12.8398L14.8979 12.8395L14.4766 12.5703ZM15.6875 10.2266L16.1619 10.3847L16.1637 10.379L15.6875 10.2266ZM8.5 19.0156L8.08764 19.2984L8.49675 19.895L8.91026 19.3014L8.5 19.0156ZM6.07812 15.5391L5.66767 15.8246L5.66922 15.8268L6.07812 15.5391ZM3.61719 11.9844L3.19179 12.2471L3.19772 12.2567L3.20407 12.266L3.61719 11.9844ZM2.52344 9.875L2.04904 10.0331L2.05151 10.0402L2.52344 9.875ZM6.11719 2.21875L5.92601 1.75674L6.11719 2.21875ZM10.8828 2.21875L11.074 1.75674L10.8828 2.21875ZM14.4766 9.875L14.9485 10.0402L14.9509 10.0331L14.4766 9.875ZM13.3828 11.9844L13.7959 12.266L13.8023 12.2567L13.8082 12.2471L13.3828 11.9844ZM10.9219 15.5391L11.3321 15.8249L11.3323 15.8246L10.9219 15.5391ZM8.5 3.75C7.32724 3.75 6.3142 4.1662 5.4902 4.9902L6.1973 5.6973C6.83164 5.06297 7.58943 4.75 8.5 4.75V3.75ZM5.4902 4.9902C4.6662 5.8142 4.25 6.82724 4.25 8H5.25C5.25 7.08943 5.56297 6.33164 6.1973 5.6973L5.4902 4.9902ZM4.25 8C4.25 9.17276 4.6662 10.1858 5.4902 11.0098L6.1973 10.3027C5.56297 9.66836 5.25 8.91057 5.25 8H4.25ZM5.4902 11.0098C6.3142 11.8338 7.32724 12.25 8.5 12.25V11.25C7.58943 11.25 6.83164 10.937 6.1973 10.3027L5.4902 11.0098ZM8.5 12.25C9.67276 12.25 10.6858 11.8338 11.5098 11.0098L10.8027 10.3027C10.1684 10.937 9.41057 11.25 8.5 11.25V12.25ZM11.5098 11.0098C12.3338 10.1858 12.75 9.17276 12.75 8H11.75C11.75 8.91057 11.437 9.66836 10.8027 10.3027L11.5098 11.0098ZM12.75 8C12.75 6.82724 12.3338 5.8142 11.5098 4.9902L10.8027 5.6973C11.437 6.33164 11.75 7.08943 11.75 8H12.75ZM11.5098 4.9902C10.6858 4.1662 9.67276 3.75 8.5 3.75V4.75C9.41057 4.75 10.1684 5.06297 10.8027 5.6973L11.5098 4.9902ZM8.5 10C7.9604 10 7.50027 9.80879 7.09574 9.40426L6.38863 10.1114C6.97369 10.6964 7.68543 11 8.5 11V10ZM7.09574 9.40426C6.69121 8.99973 6.5 8.5396 6.5 8H5.5C5.5 8.81457 5.80358 9.52631 6.38863 10.1114L7.09574 9.40426ZM6.5 8C6.5 7.4604 6.69121 7.00027 7.09574 6.59574L6.38863 5.88863C5.80358 6.47369 5.5 7.18543 5.5 8H6.5ZM7.09574 6.59574C7.50027 6.19121 7.9604 6 8.5 6V5C7.68543 5 6.97369 5.30358 6.38863 5.88863L7.09574 6.59574ZM8.5 6C9.0396 6 9.49973 6.19121 9.90426 6.59574L10.6114 5.88863C10.0263 5.30358 9.31457 5 8.5 5V6ZM9.90426 6.59574C10.3088 7.00027 10.5 7.4604 10.5 8H11.5C11.5 7.18543 11.1964 6.47369 10.6114 5.88863L9.90426 6.59574ZM10.5 8C10.5 8.5396 10.3088 8.99973 9.90426 9.40426L10.6114 10.1114C11.1964 9.52631 11.5 8.81457 11.5 8H10.5ZM9.90426 9.40426C9.49973 9.80879 9.0396 10 8.5 10V11C9.31457 11 10.0263 10.6964 10.6114 10.1114L9.90426 9.40426ZM8.5 0C7.05799 0 5.71991 0.361728 4.49564 1.08516L5.00436 1.94609C6.07176 1.31536 7.23367 1 8.5 1V0ZM4.49564 1.08516C3.27719 1.80515 2.30515 2.77719 1.58516 3.99564L2.44609 4.50436C3.08026 3.43114 3.93114 2.58026 5.00436 1.94609L4.49564 1.08516ZM1.58516 3.99564C0.861728 5.21991 0.5 6.55799 0.5 8H1.5C1.5 6.73367 1.81536 5.57176 2.44609 4.50436L1.58516 3.99564ZM0.5 8C0.5 8.87414 0.609179 9.66923 0.836288 10.379L1.78871 10.0742C1.59915 9.48181 1.5 8.79252 1.5 8H0.5ZM0.838158 10.3847C1.0654 11.0664 1.49391 11.8876 2.10209 12.8395L2.94479 12.3011C2.35505 11.378 1.97627 10.6367 1.78684 10.0684L0.838158 10.3847ZM2.1023 12.8398C2.52487 13.5001 3.38963 14.7708 4.69088 16.6446L5.51225 16.0742C4.20933 14.198 3.35534 12.9426 2.94457 12.3008L2.1023 12.8398ZM4.69155 16.6455L7.30873 20.3955L8.12877 19.8232L5.51158 16.0732L4.69155 16.6455ZM7.30913 20.3961C7.59194 20.8001 8.01081 21 8.5 21V20C8.3121 20 8.21014 19.9395 8.12837 19.8226L7.30913 20.3961ZM8.5 21C8.98919 21 9.40806 20.8001 9.69087 20.3961L8.87163 19.8226C8.78986 19.9395 8.6879 20 8.5 20V21ZM9.69127 20.3955L12.3085 16.6455L11.4884 16.0732L8.87123 19.8232L9.69127 20.3955ZM12.3091 16.6446C13.6104 14.7708 14.4751 13.5001 14.8977 12.8398L14.0554 12.3008C13.6447 12.9426 12.7907 14.198 11.4878 16.0742L12.3091 16.6446ZM14.8979 12.8395C15.5061 11.8876 15.9346 11.0664 16.1618 10.3847L15.2132 10.0684C15.0237 10.6367 14.645 11.378 14.0552 12.3011L14.8979 12.8395ZM16.1637 10.379C16.3908 9.66923 16.5 8.87414 16.5 8H15.5C15.5 8.79252 15.4008 9.48181 15.2113 10.0742L16.1637 10.379ZM16.5 8C16.5 6.55799 16.1383 5.21991 15.4148 3.99564L14.5539 4.50436C15.1846 5.57176 15.5 6.73367 15.5 8H16.5ZM15.4148 3.99564C14.6948 2.77719 13.7228 1.80515 12.5044 1.08516L11.9956 1.94609C13.0689 2.58026 13.9197 3.43114 14.5539 4.50436L15.4148 3.99564ZM12.5044 1.08516C11.2801 0.361728 9.94201 0 8.5 0V1C9.76633 1 10.9282 1.31536 11.9956 1.94609L12.5044 1.08516ZM8.91236 18.7329C8.28578 17.8191 7.47721 16.6584 6.48703 15.2513L5.66922 15.8268C6.6582 17.2322 7.46422 18.3892 8.08764 19.2984L8.91236 18.7329ZM6.48858 15.2535C5.2383 13.4563 4.41937 12.2733 4.0303 11.7027L3.20407 12.266C3.59626 12.8412 4.41795 14.0281 5.66767 15.8246L6.48858 15.2535ZM4.04259 11.7216C3.50114 10.845 3.15946 10.1787 2.99537 9.70982L2.05151 10.0402C2.25199 10.613 2.63948 11.3529 3.19179 12.2471L4.04259 11.7216ZM2.99778 9.71689C2.83574 9.23078 2.75 8.66077 2.75 8H1.75C1.75 8.74548 1.84655 9.42547 2.0491 10.0331L2.99778 9.71689ZM2.75 8C2.75 7.23095 2.89384 6.50175 3.18076 5.80836L2.25674 5.42601C1.91866 6.24304 1.75 7.10238 1.75 8H2.75ZM3.18076 5.80836C3.46721 5.1161 3.88528 4.4937 4.43949 3.93949L3.73238 3.23238C3.08868 3.87609 2.59529 4.60786 2.25674 5.42601L3.18076 5.80836ZM4.43949 3.93949C4.9937 3.38528 5.6161 2.96721 6.30836 2.68076L5.92601 1.75674C5.10786 2.09529 4.37609 2.58868 3.73238 3.23238L4.43949 3.93949ZM6.30836 2.68076C7.00175 2.39384 7.73095 2.25 8.5 2.25V1.25C7.60238 1.25 6.74304 1.41866 5.92601 1.75674L6.30836 2.68076ZM8.5 2.25C9.26905 2.25 9.99825 2.39384 10.6916 2.68076L11.074 1.75674C10.257 1.41866 9.39762 1.25 8.5 1.25V2.25ZM10.6916 2.68076C11.3839 2.96721 12.0063 3.38528 12.5605 3.93949L13.2676 3.23238C12.6239 2.58868 11.8921 2.09529 11.074 1.75674L10.6916 2.68076ZM12.5605 3.93949C13.1147 4.4937 13.5328 5.1161 13.8192 5.80836L14.7433 5.42601C14.4047 4.60786 13.9113 3.87609 13.2676 3.23238L12.5605 3.93949ZM13.8192 5.80836C14.1062 6.50175 14.25 7.23095 14.25 8H15.25C15.25 7.10238 15.0813 6.24304 14.7433 5.42601L13.8192 5.80836ZM14.25 8C14.25 8.66077 14.1643 9.23078 14.0022 9.71689L14.9509 10.0331C15.1535 9.42547 15.25 8.74548 15.25 8H14.25ZM14.0046 9.70982C13.8405 10.1787 13.4989 10.845 12.9574 11.7216L13.8082 12.2471C14.3605 11.3529 14.748 10.613 14.9485 10.0402L14.0046 9.70982ZM12.9697 11.7027C12.5806 12.2733 11.7617 13.4563 10.5114 15.2535L11.3323 15.8246C12.5821 14.0281 13.4037 12.8412 13.7959 12.266L12.9697 11.7027ZM10.5116 15.2533L8.08974 18.7298L8.91026 19.3014L11.3321 15.8249L10.5116 15.2533Z" fill="#26CDC3"/>
</svg>
