<?xml version="1.0" encoding="utf-8"?>
<!-- Generator: Adobe Illustrator 25.4.1, SVG Export Plug-In . SVG Version: 6.00 Build 0)  -->
<svg version="1.1" id="Layer_1" xmlns="http://www.w3.org/2000/svg" xmlns:xlink="http://www.w3.org/1999/xlink" x="0px" y="0px"
	 viewBox="0 0 330 218" style="enable-background:new 0 0 330 218;" xml:space="preserve">
<path d="M307.3,43.9H22.7C10.6,43.9,0.7,34,0.7,21.9v0C0.7,9.9,10.6,0,22.7,0h284.7c12.1,0,21.9,9.9,21.9,21.9v0
	C329.3,34,319.4,43.9,307.3,43.9z"/>
<path d="M307.3,130.9H22.7c-12.1,0-21.9-9.9-21.9-21.9v0c0-12.1,9.9-21.9,21.9-21.9h284.7c12.1,0,21.9,9.9,21.9,21.9v0
	C329.3,121.1,319.4,130.9,307.3,130.9z"/>
<path d="M307.3,218H22.7c-12.1,0-21.9-9.9-21.9-21.9v0c0-12.1,9.9-21.9,21.9-21.9h284.7c12.1,0,21.9,9.9,21.9,21.9v0
	C329.3,208.1,319.4,218,307.3,218z"/>
</svg>
