<svg width="19" height="19" viewBox="0 0 19 19" fill="none" xmlns="http://www.w3.org/2000/svg">
<path d="M18.073 1.96538L10.4001 18.5817C10.3359 18.7209 10.227 18.835 10.0905 18.9063C9.95397 18.9775 9.79753 19.0019 9.6456 18.9755C9.49368 18.9491 9.35486 18.8735 9.25084 18.7604C9.14682 18.6474 9.08347 18.5034 9.0707 18.3508L8.42199 10.6265L0.639789 9.98262C0.486089 9.96994 0.340954 9.90707 0.227083 9.80382C0.113212 9.70057 0.0370268 9.56278 0.0104418 9.41199C-0.0161432 9.2612 0.00837142 9.10591 0.0801518 8.97042C0.151932 8.83493 0.26693 8.72687 0.407161 8.66314L17.148 1.04732C17.2774 0.988453 17.4219 0.970298 17.562 0.995295C17.7021 1.02029 17.8312 1.08724 17.9319 1.18716C18.0325 1.28708 18.1 1.41517 18.1252 1.55425C18.1504 1.69332 18.1321 1.83671 18.0728 1.96517L18.073 1.96538Z" fill="#26CDC3"/>
</svg>
