<svg width="32" height="32" viewBox="0 0 32 32" fill="none" xmlns="http://www.w3.org/2000/svg">
<g clip-path="url(#clip0)">
<path d="M18.5905 11.3289H20.4433V13.1817H18.5905V11.3289Z" fill="#26CDC3"/>
<path d="M16.7377 9.47595H18.5905V11.3288H16.7377V9.47595Z" fill="#26CDC3"/>
<path d="M14.886 11.3275H16.7389V13.1804H14.886V11.3275Z" fill="#26CDC3"/>
<path d="M13.0305 9.47595H14.8834V11.3288H13.0305V9.47595Z" fill="#26CDC3"/>
<path d="M11.179 11.3275H13.0318V13.1804H11.179V11.3275Z" fill="#26CDC3"/>
<path d="M15.8093 0.148438H15.4945C12.2148 0.241081 9.26876 1.67392 7.15653 3.84188C5.06264 5.99126 3.76562 8.95562 3.76562 12.2539C3.76562 16.1821 4.78471 17.516 9.73174 23.8901C11.14 25.7244 12.9002 27.8984 15.0682 30.7887L15.8093 31.7708L16.5505 30.7887C18.7184 27.9167 20.4601 25.743 21.8683 23.9084C26.8153 17.516 27.853 16.1821 27.853 12.2539C27.853 5.62045 22.4427 0.148438 15.8093 0.148438V0.148438ZM15.8093 19.6654C11.7144 19.6654 8.39781 16.3488 8.39781 12.2539C8.39781 8.15898 11.7144 4.84239 15.8093 4.84239C19.9042 4.84239 23.2208 8.15898 23.2208 12.2539C23.2208 16.3488 19.9042 19.6654 15.8093 19.6654Z" fill="#26CDC3"/>
<path d="M27.8562 12.2539C27.8562 16.1821 26.8185 17.516 21.8715 23.9084C20.4633 25.743 18.7216 27.9167 16.5536 30.7887L15.8125 31.7708V19.6654C19.9074 19.6654 23.224 16.3488 23.224 12.2539C23.224 8.15898 19.9074 4.84239 15.8125 4.84239V0.148438C22.4459 0.148438 27.8562 5.62045 27.8562 12.2539Z" fill="#26CDC3"/>
<path d="M15.8125 11.3281H16.7389V13.181H15.8125V11.3281Z" fill="#26CDC3"/>
</g>
<defs>
<clipPath id="clip0">
<rect width="31.6224" height="31.7722" fill="white"/>
</clipPath>
</defs>
</svg>
