<?xml version="1.0" encoding="utf-8"?>
<!-- Generator: Adobe Illustrator 25.4.1, SVG Export Plug-In . SVG Version: 6.00 Build 0)  -->
<svg version="1.1" id="Capa_1" xmlns="http://www.w3.org/2000/svg" xmlns:xlink="http://www.w3.org/1999/xlink" x="0px" y="0px"
	 viewBox="0 0 512 512" style="enable-background:new 0 0 512 512;" xml:space="preserve">
<style type="text/css">
	.st0{fill:#62CAC2;}
</style>
<path class="st0" d="M256,120.4c29.1,0,52.7-23.6,52.7-52.7S285.1,15,256,15s-53.6,23.6-53.6,52.7S226.9,120.4,256,120.4z
	 M496.1,200.8c0-4.9-2.4-9.6-6.7-12.5l-26-15c-2.4-1.6-5.2-2.5-8-2.5c-5.2,0.1-10,2.7-12.9,6.8c-8.5,11.3-21.8,18-35.9,18
	c-2.9,0-5.7-0.2-8.6-0.8c-21.8-4-36.6-24.7-36.6-46.8c-0.9-6.9-6.5-12.5-12.6-12.5h-36.5c-5.6,0-10.9,3.8-12.1,9.3
	c-4.5,20.9-22.8,35.9-45.1,35.9c-21.4,0-39.8-14.9-44.2-35.9c-0.4-5.5-5.6-9.3-11.3-9.3h-36.5c-7.8,0-13.4,5.6-13.4,12.6
	c0,17.4-12.9,47.7-45.1,47.7c-14.2,0-27.6-6.7-36.1-18.1c-2.1-4.1-6.8-6.7-12-6.8c-2.8,0-5.6,0.8-7.9,2.5l-27,15.1
	c-4.3,2.8-6.7,7.6-6.7,12.4c0,2.3,0.5,4.6,1.6,6.8l101.8,214.1h50L80.7,237.5c8,2.3,16.2,3.4,24.6,3.4c2.3,0,53.5,1.4,79.8-49.4
	c16.3,21.7,43.2,34.4,70.8,34.4c27.7,0,53.7-12.6,70.9-34.1c4.7,9.3,27.7,49.2,79.9,49.2c8.2,0,16.5-1.1,24.5-3.3l-87.6,184h50
	l101.8-214.1C496.4,205.4,496.1,203.1,496.1,200.8z M414.1,451.8H97.8c-12.5,0-22.6,10.1-22.6,21.7S85.3,497,97.8,497h316.3
	c12.5,0,22.6-10.1,22.6-21.7S426.7,451.8,414.1,451.8z"/>
</svg>
