<svg width="30" height="30" viewBox="0 0 30 30" fill="none" xmlns="http://www.w3.org/2000/svg">
<path d="M1.98838 11.4612L1.98834 11.4611C1.89243 11.1801 2.04184 10.8748 2.32257 10.7782L2.32296 10.7781C2.40607 10.7499 2.49406 10.7418 2.57777 10.7555L1.98838 11.4612ZM1.98838 11.4612L4.86599 19.8542C4.94042 20.0713 5.14462 20.2174 5.3744 20.2174H24.6243C24.854 20.2174 25.0582 20.0716 25.1329 19.8543L25.1329 19.8542L28.0989 11.188L28.0989 11.1879C28.1905 10.9193 28.0578 10.626 27.7961 10.5173M1.98838 11.4612L3.03165 11.0748C3.20846 11.4763 3.61041 12.3228 4.14963 13.0673C4.41928 13.4396 4.72058 13.7826 5.04206 14.0318C5.36383 14.2811 5.69858 14.4309 6.03754 14.4309C6.05399 14.4309 6.07073 14.4305 6.08779 14.4296L6.08867 14.4295L6.08867 14.4295C6.49387 14.4115 7.04028 14.1684 7.68682 13.3361C8.3337 12.5034 9.07199 11.0913 9.85931 8.76196L9.85935 8.76184C9.9334 8.54369 10.1378 8.39658 10.3684 8.39658C10.5991 8.39658 10.8035 8.54365 10.8776 8.76184L10.8776 8.76193C11.1453 9.55291 11.7285 10.9735 12.4768 12.1943C12.851 12.8049 13.2639 13.3611 13.6959 13.7635C14.1295 14.1672 14.5704 14.4052 15.0023 14.4052L15.0072 14.4051L15.0161 14.4049C15.4188 14.4 15.9569 14.1727 16.5819 13.3496C17.2076 12.5256 17.911 11.1156 18.6414 8.77397L18.6414 8.77385C18.7118 8.54918 18.9194 8.39658 19.1547 8.39658H19.1589H19.1599V8.39659C19.3972 8.39905 19.6049 8.5564 19.6708 8.78437C19.8928 9.54921 20.3986 10.9355 21.0896 12.1494C21.4352 12.7565 21.8248 13.3163 22.2453 13.7335C22.6667 14.1516 23.1099 14.4175 23.5632 14.4568C24.0887 14.5 24.6605 14.2256 25.2641 13.6075C25.8665 12.9905 26.4873 12.0439 27.1074 10.7777C27.2317 10.5228 27.5337 10.4081 27.7961 10.5173M27.7961 10.5173L27.7577 10.6097M27.7961 10.5173C27.7961 10.5173 27.7961 10.5173 27.796 10.5173L27.7577 10.6097M27.7577 10.6097C27.9708 10.698 28.0789 10.9369 28.0043 11.1557M27.7577 10.6097C27.5442 10.5208 27.2983 10.6142 27.1972 10.8217L28.0043 11.1557M28.0043 11.1557L25.0383 19.8218C24.9775 19.9988 24.8113 20.1174 24.6243 20.1174H5.3744C5.1874 20.1174 5.02117 19.9985 4.96059 19.8218L28.0043 11.1557ZM17.2985 14.1722C17.9598 13.3607 18.577 12.1692 19.1592 10.5946C19.506 11.4785 20.018 12.5943 20.6856 13.5408C21.415 14.575 22.3465 15.4303 23.47 15.528L23.4704 15.528C24.2775 15.5958 25.0471 15.2853 25.7934 14.6033L24.2399 19.1425H5.75825L4.2645 14.7844C4.80733 15.2374 5.43016 15.5308 6.13578 15.5035L6.13639 15.5035C6.95236 15.467 7.71366 15.0008 8.42931 14.1246C9.11198 13.2888 9.76089 12.0709 10.3851 10.4669C10.7705 11.3691 11.3489 12.5513 12.0801 13.5397C12.8708 14.6087 13.8619 15.4801 15.0023 15.4801C15.0083 15.4801 15.014 15.4799 15.0179 15.4798L15.0274 15.4796L15.0285 15.4796C15.8476 15.47 16.6016 15.0274 17.2985 14.1722Z" fill="white" stroke="white" stroke-width="0.2"/>
<path d="M5.37508 23.7176H24.6249C24.9221 23.7176 25.1623 23.4769 25.1623 23.18V19.68C25.1623 19.383 24.922 19.1427 24.6249 19.1427C24.328 19.1427 24.0874 19.3829 24.0874 19.68V22.6426H5.91267V19.68C5.91267 19.3829 5.67206 19.1427 5.37508 19.1427C5.07803 19.1427 4.83774 19.383 4.83774 19.68V23.18C4.83774 23.4769 5.07795 23.7176 5.37508 23.7176Z" fill="white" stroke="white" stroke-width="0.2"/>
<path d="M8.95286 7.87396C8.95286 8.75479 9.66927 9.47122 10.5499 9.47122C11.4307 9.47122 12.1471 8.75481 12.1471 7.87421C12.1471 6.99364 11.4307 6.27695 10.5499 6.27695C9.66928 6.27695 8.95286 6.99338 8.95286 7.87396ZM10.0278 7.87421C10.0278 7.58648 10.2621 7.35213 10.5499 7.35213C10.8378 7.35213 11.072 7.58623 11.072 7.87421C11.072 8.16197 10.8378 8.3963 10.5499 8.3963C10.2621 8.3963 10.0278 8.16217 10.0278 7.87421Z" fill="white" stroke="white" stroke-width="0.2"/>
<path d="M17.4294 7.87396C17.4294 8.75479 18.1458 9.47122 19.0264 9.47122C19.9072 9.47122 20.6236 8.75481 20.6236 7.87421C20.6236 6.99364 19.9072 6.27695 19.0264 6.27695C18.1458 6.27695 17.4294 6.99338 17.4294 7.87396ZM18.5043 7.87421C18.5043 7.58648 18.7386 7.35213 19.0264 7.35213C19.3144 7.35213 19.5487 7.58651 19.5487 7.87421C19.5487 8.16214 19.3144 8.3963 19.0264 8.3963C18.7386 8.3963 18.5043 8.16217 18.5043 7.87421Z" fill="white" stroke="white" stroke-width="0.2"/>
<path d="M25.9058 9.99359C25.9058 10.8742 26.6222 11.5906 27.5031 11.5906C28.3836 11.5906 29.1001 10.8742 29.1001 9.99359C29.1001 9.11301 28.3836 8.39658 27.5031 8.39658C26.6222 8.39658 25.9058 9.11299 25.9058 9.99359ZM26.981 9.99359C26.981 9.70561 27.2151 9.47151 27.5031 9.47151C27.7908 9.47151 28.0251 9.70564 28.0251 9.99359C28.0251 10.2815 27.7908 10.5157 27.5031 10.5157C27.2151 10.5157 26.981 10.2816 26.981 9.99359Z" fill="white" stroke="white" stroke-width="0.2"/>
<path d="M0.900244 9.99359C0.900244 10.8742 1.61667 11.5906 2.49726 11.5906C3.37782 11.5906 4.09452 10.8742 4.09452 9.99359C4.09452 9.11299 3.37808 8.39658 2.49726 8.39658C1.61667 8.39658 0.900244 9.11301 0.900244 9.99359ZM1.97517 9.99359C1.97517 9.70564 2.2095 9.47151 2.49726 9.47151C2.78529 9.47151 3.01959 9.70566 3.01959 9.99359C3.01959 10.2815 2.78529 10.5157 2.49726 10.5157C2.2095 10.5157 1.97517 10.2815 1.97517 9.99359Z" fill="white" stroke="white" stroke-width="0.2"/>
</svg>
