<?xml version="1.0" encoding="utf-8"?>
<!-- Generator: Adobe Illustrator 25.4.1, SVG Export Plug-In . SVG Version: 6.00 Build 0)  -->
<svg version="1.1" id="Capa_1" xmlns="http://www.w3.org/2000/svg" xmlns:xlink="http://www.w3.org/1999/xlink" x="0px" y="0px"
	 viewBox="0 0 258 198" style="enable-background:new 0 0 258 198;" xml:space="preserve">
<style type="text/css">
	.st0{fill:#F2F2F2;}
</style>
<path class="st0" d="M22.8,180.2C8,164.4,0,146.7,0,118C0,67.6,35.4,22.4,86.9,0l12.9,19.9c-48.1,26-57.5,59.8-61.2,81
	c7.7-4,17.9-5.4,27.8-4.5c26,2.4,46.5,23.8,46.5,50.3c0,13.4-5.3,26.2-14.8,35.7c-9.5,9.5-22.3,14.8-35.7,14.8
	C47,197.2,32.2,190.1,22.8,180.2z M167,180.2c-14.8-15.8-22.8-33.5-22.8-62.1c0-50.5,35.4-95.7,86.9-118L244,19.9
	c-48.1,26-57.5,59.8-61.2,81c7.7-4,17.9-5.4,27.8-4.5c26,2.4,46.5,23.8,46.5,50.3c0,13.4-5.3,26.2-14.8,35.7
	c-9.5,9.5-22.3,14.8-35.7,14.8C191.1,197.2,176.3,190.1,167,180.2z"/>
</svg>
