<svg width="67" height="81" viewBox="0 0 67 81" fill="none" xmlns="http://www.w3.org/2000/svg">
<path d="M48.9488 0.000224131C48.8771 0.00214982 48.8057 0.00958217 48.7351 0.0221521H1.4487C1.39904 0.0195786 1.34927 0.0195786 1.29961 0.0221521C0.94349 0.057129 0.613136 0.223254 0.372896 0.488455C0.132655 0.753655 -0.000269929 1.09894 1.0381e-05 1.45678V79.2281C-0.000712138 79.4185 0.0362876 79.6071 0.10887 79.783C0.181453 79.9589 0.28818 80.1187 0.422885 80.2531C0.55759 80.3876 0.717602 80.494 0.893675 80.5663C1.06975 80.6385 1.25839 80.675 1.4487 80.6739H64.8113C65.0016 80.675 65.1902 80.6385 65.3663 80.5663C65.5424 80.494 65.7024 80.3876 65.8371 80.2531C65.9718 80.1187 66.0785 79.9589 66.1511 79.783C66.2237 79.6071 66.2607 79.4185 66.2599 79.2281V15.8627C66.261 15.6611 66.2197 15.4617 66.1388 15.2771C66.0579 15.0925 65.9391 14.9268 65.7902 14.791L50.0965 0.537627C49.9588 0.366495 49.7838 0.229066 49.5849 0.135945C49.386 0.0428247 49.1684 -0.00365324 48.9488 0.000224131H48.9488ZM2.88332 2.89206H47.5367V15.8627C47.5382 16.2427 47.6898 16.6068 47.9585 16.8755C48.2273 17.1442 48.5913 17.2959 48.9713 17.2974H63.3766V77.7935H2.88332V2.89206ZM50.4172 4.71209L61.0841 14.4169H50.4172V4.71209ZM57.7732 21.6209C57.7206 21.6199 57.668 21.6217 57.6156 21.6264H14.4081C14.3622 21.6242 14.3162 21.6242 14.2703 21.6264C13.9099 21.6712 13.5797 21.8504 13.3458 22.1283C13.112 22.4061 12.9917 22.762 13.0092 23.1248C13.0266 23.4876 13.1804 23.8305 13.4398 24.0847C13.6992 24.3388 14.0451 24.4856 14.4081 24.4956H57.6156C57.8081 24.5127 58.002 24.4908 58.1859 24.4314C58.3697 24.3719 58.5397 24.276 58.6858 24.1495C58.8318 24.0229 58.9509 23.8684 59.0359 23.6949C59.121 23.5215 59.1703 23.3325 59.1808 23.1396C59.1914 22.9467 59.1631 22.7537 59.0975 22.572C59.0319 22.3902 58.9304 22.2235 58.7991 22.0817C58.6677 21.94 58.5092 21.8262 58.333 21.747C58.1567 21.6678 57.9663 21.6249 57.7732 21.6208V21.6209ZM8.64432 30.2597C8.45244 30.2554 8.26163 30.2893 8.08308 30.3597C7.90454 30.4302 7.74187 30.5355 7.60462 30.6697C7.46738 30.8039 7.35832 30.9641 7.28387 31.141C7.20942 31.3179 7.17107 31.5079 7.17107 31.6998C7.17107 31.8918 7.20942 32.0818 7.28387 32.2587C7.35832 32.4356 7.46738 32.5958 7.60462 32.7299C7.74187 32.8641 7.90454 32.9695 8.08308 33.0399C8.26163 33.1104 8.45244 33.1445 8.64432 33.1401H58.3386C58.5305 33.1445 58.7213 33.1104 58.8998 33.0399C59.0784 32.9695 59.241 32.8641 59.3783 32.7299C59.5155 32.5958 59.6246 32.4356 59.699 32.2587C59.7735 32.0818 59.8118 31.8918 59.8118 31.6998C59.8118 31.5079 59.7735 31.3179 59.699 31.141C59.6246 30.9641 59.5155 30.8039 59.3783 30.6697C59.241 30.5355 59.0784 30.4302 58.8998 30.3597C58.7213 30.2893 58.5305 30.2554 58.3386 30.2597H8.64432ZM8.64432 38.9012C8.45462 38.9006 8.26667 38.9375 8.09124 39.0097C7.91581 39.0819 7.75635 39.1879 7.622 39.3218C7.48765 39.4557 7.38106 39.6149 7.30832 39.7901C7.23559 39.9653 7.19815 40.1531 7.19815 40.3428C7.19815 40.5325 7.23559 40.7203 7.30832 40.8955C7.38106 41.0707 7.48765 41.2298 7.622 41.3638C7.75635 41.4977 7.91581 41.6039 8.09124 41.6761C8.26667 41.7483 8.45462 41.785 8.64432 41.7844H58.3386C58.5283 41.785 58.7162 41.7483 58.8917 41.6761C59.0671 41.6039 59.2266 41.4977 59.3609 41.3638C59.4952 41.2298 59.6018 41.0707 59.6746 40.8955C59.7473 40.7203 59.7847 40.5325 59.7847 40.3428C59.7847 40.1531 59.7473 39.9653 59.6746 39.7901C59.6018 39.6149 59.4952 39.4557 59.3609 39.3218C59.2266 39.1879 59.0671 39.0819 58.8917 39.0097C58.7162 38.9375 58.5283 38.9006 58.3386 38.9012H8.64432ZM18.7233 47.5257C18.3437 47.5331 17.9825 47.6901 17.7181 47.9624C17.4536 48.2348 17.3074 48.6005 17.3111 48.9801V50.4287H15.8118C13.4726 50.4287 11.5248 52.3697 11.5248 54.7439C11.5248 57.118 13.4726 59.0701 15.8118 59.0701H18.7233H21.691C22.4994 59.0701 23.0946 59.6272 23.0946 60.5049C23.0946 61.3826 22.4994 61.9535 21.691 61.9535H14.4081C14.2163 61.9493 14.0256 61.9835 13.8472 62.054C13.6688 62.1245 13.5063 62.2298 13.3691 62.364C13.232 62.4982 13.1231 62.6585 13.0487 62.8353C12.9743 63.0121 12.936 63.202 12.936 63.3938C12.936 63.5856 12.9743 63.7756 13.0487 63.9525C13.1231 64.1293 13.232 64.2894 13.3691 64.4236C13.5063 64.5577 13.6688 64.6632 13.8472 64.7337C14.0256 64.8042 14.2163 64.8383 14.4081 64.8341H17.3111V66.2687C17.3195 66.6451 17.4749 67.0033 17.7441 67.2666C18.0133 67.5299 18.3748 67.6772 18.7514 67.6772C19.1279 67.6772 19.4895 67.5299 19.7587 67.2666C20.0279 67.0033 20.1833 66.6451 20.1916 66.2687V64.8341H21.691C24.0302 64.834 25.9751 62.8791 25.9751 60.5049C25.9751 58.1308 24.0302 56.1898 21.691 56.1898H18.7233H15.8118C15.0034 56.1898 14.4081 55.6216 14.4081 54.7439C14.4081 53.8662 15.0034 53.3092 15.8118 53.3092H18.4813C18.6579 53.3426 18.8392 53.3426 19.0158 53.3092H23.0524C23.2442 53.3134 23.4349 53.2792 23.6134 53.2087C23.7918 53.1382 23.9543 53.0329 24.0914 52.8987C24.2286 52.7646 24.3375 52.6045 24.4119 52.4276C24.4863 52.2508 24.5246 52.0608 24.5246 51.869C24.5246 51.6771 24.4863 51.4873 24.4119 51.3105C24.3375 51.1336 24.2286 50.9733 24.0914 50.8392C23.9543 50.705 23.7918 50.5997 23.6134 50.5292C23.4349 50.4587 23.2442 50.4245 23.0524 50.4287H20.1916V48.9801C20.1935 48.7874 20.1567 48.5962 20.0835 48.4179C20.0102 48.2397 19.9018 48.0781 19.7649 47.9425C19.628 47.8069 19.4653 47.7001 19.2863 47.6285C19.1074 47.557 18.9159 47.522 18.7233 47.5257ZM34.4282 47.5475C34.0467 47.5684 33.689 47.7397 33.4336 48.0239C33.1782 48.3081 33.0459 48.6819 33.0656 49.0635C33.0853 49.4451 33.2555 49.8033 33.5389 50.0596C33.8222 50.3159 34.1956 50.4494 34.5773 50.4308H57.6156C57.9972 50.4296 58.3627 50.2771 58.6321 50.0069C58.9015 49.7367 59.0528 49.3706 59.0528 48.9891C59.0528 48.6075 58.9015 48.2416 58.6321 47.9714C58.3627 47.7012 57.9972 47.5487 57.6156 47.5475H34.5773C34.5276 47.5449 34.4778 47.5449 34.4282 47.5475ZM34.4282 56.1918C34.0522 56.2197 33.7022 56.3937 33.4529 56.6765C33.2036 56.9593 33.075 57.3285 33.0944 57.705C33.1139 58.0814 33.28 58.4353 33.5572 58.6909C33.8343 58.9464 34.2005 59.0833 34.5773 59.0723H57.6156C57.992 59.0638 58.35 58.9082 58.6131 58.6391C58.8763 58.3699 59.0236 58.0085 59.0236 57.632C59.0236 57.2556 58.8763 56.8942 58.6131 56.625C58.35 56.3558 57.992 56.2003 57.6156 56.1918H34.5773C34.5276 56.1892 34.4778 56.1892 34.4282 56.1918ZM57.7732 64.8306C57.7206 64.8295 57.668 64.8312 57.6156 64.8359H34.5773C34.5276 64.8333 34.4778 64.8333 34.4282 64.8359C34.0672 64.8812 33.7367 65.0616 33.5031 65.3406C33.2696 65.6195 33.1503 65.9764 33.1691 66.3398C33.188 66.7031 33.3437 67.0459 33.6049 67.2991C33.8661 67.5524 34.2135 67.6975 34.5773 67.7051H57.6156C57.8081 67.7222 58.002 67.7003 58.1859 67.6408C58.3697 67.5814 58.5397 67.4856 58.6858 67.3591C58.8318 67.2326 58.9509 67.0779 59.0359 66.9044C59.121 66.7309 59.1703 66.5422 59.1808 66.3493C59.1914 66.1563 59.1631 65.9632 59.0975 65.7815C59.0319 65.5997 58.9304 65.4329 58.7991 65.2912C58.6677 65.1495 58.5092 65.0357 58.333 64.9565C58.1567 64.8773 57.9663 64.8345 57.7732 64.8304V64.8306Z" fill="#FFFEFE"/>
</svg>
