<svg width="67" height="67" viewBox="0 0 67 67" fill="none" xmlns="http://www.w3.org/2000/svg">
<path d="M28.6955 10.628C28.6955 11.797 27.7496 12.7535 26.5699 12.7535C18.9496 12.7535 12.7535 18.9496 12.7535 26.5699C12.7535 27.739 11.8077 28.6955 10.628 28.6955C9.44825 28.6955 8.50236 27.739 8.50236 26.5699C8.50236 16.6115 16.6115 8.50236 26.5699 8.50236C27.7496 8.50236 28.6955 9.45888 28.6955 10.628ZM64.3948 64.0228L64.0334 64.3841C62.7899 65.6276 61.1532 66.244 59.5272 66.244C57.9011 66.244 56.2644 65.6276 55.0209 64.3841L40.0461 49.4306C36.0925 51.7688 31.4906 53.1398 26.5699 53.1398C11.9139 53.1398 0 41.2258 0 26.5699C0 11.9139 11.9139 0 26.5699 0C41.2258 0 53.1398 11.9139 53.1398 26.5699C53.1398 31.4906 51.7688 36.0925 49.4306 40.0461L64.3948 55.0103C66.8817 57.4972 66.8817 61.5358 64.3948 64.0228ZM26.5699 48.8886C38.877 48.8886 48.8886 38.877 48.8886 26.5699C48.8886 14.2627 38.877 4.25118 26.5699 4.25118C14.2627 4.25118 4.25118 14.2627 4.25118 26.5699C4.25118 38.877 14.2627 48.8886 26.5699 48.8886ZM61.3871 58.018L46.9543 43.5852C45.934 44.8074 44.8074 45.934 43.5852 46.9543L58.018 61.3871C58.847 62.216 60.1967 62.216 61.0257 61.3871L61.3871 61.0257C62.216 60.1861 62.216 58.847 61.3871 58.018Z" fill="#FFFEFE"/>
</svg>
