<svg width="35" height="36" viewBox="0 0 35 36" fill="none" xmlns="http://www.w3.org/2000/svg">
<path d="M27.75 25.02C27.5511 25.02 27.3603 25.099 27.2197 25.2397C27.079 25.3803 27 25.5711 27 25.77V33.75C27 33.9489 26.921 34.1397 26.7803 34.2803C26.6397 34.421 26.4489 34.5 26.25 34.5H2.25C2.05109 34.5 1.86032 34.421 1.71967 34.2803C1.57902 34.1397 1.5 33.9489 1.5 33.75V4.8075L4.8075 1.5H26.25C26.4489 1.5 26.6397 1.57902 26.7803 1.71967C26.921 1.86032 27 2.05109 27 2.25V9.195C27 9.39391 27.079 9.58468 27.2197 9.72533C27.3603 9.86598 27.5511 9.945 27.75 9.945C27.9489 9.945 28.1397 9.86598 28.2803 9.72533C28.421 9.58468 28.5 9.39391 28.5 9.195V2.25C28.5 1.65326 28.2629 1.08097 27.841 0.65901C27.419 0.237053 26.8467 0 26.25 0H4.8075C4.41032 0.00167459 4.03001 0.160809 3.75 0.4425L0.4425 3.75C0.160809 4.03001 0.00167459 4.41032 0 4.8075V33.75C0 34.3467 0.237053 34.919 0.65901 35.341C1.08097 35.7629 1.65326 36 2.25 36H26.25C26.8467 36 27.419 35.7629 27.841 35.341C28.2629 34.919 28.5 34.3467 28.5 33.75V25.77C28.5 25.5711 28.421 25.3803 28.2803 25.2397C28.1397 25.099 27.9489 25.02 27.75 25.02Z" fill="white"/>
<path d="M8.625 7.875V4.125C8.625 3.92609 8.54598 3.73532 8.40533 3.59467C8.26468 3.45402 8.07391 3.375 7.875 3.375C7.67609 3.375 7.48532 3.45402 7.34467 3.59467C7.20402 3.73532 7.125 3.92609 7.125 4.125V7.125H4.125C3.92609 7.125 3.73532 7.20402 3.59467 7.34467C3.45402 7.48532 3.375 7.67609 3.375 7.875C3.375 8.07391 3.45402 8.26468 3.59467 8.40533C3.73532 8.54598 3.92609 8.625 4.125 8.625H7.875C8.07391 8.625 8.26468 8.54598 8.40533 8.40533C8.54598 8.26468 8.625 8.07391 8.625 7.875Z" fill="white"/>
<path d="M33.6375 11.3625C33.0464 10.7963 32.2547 10.4878 31.4364 10.5047C30.618 10.5216 29.8398 10.8625 29.2725 11.4525L14.0025 26.7225C13.9253 26.8012 13.8664 26.896 13.83 27L12.045 31.995C11.9967 32.129 11.9875 32.2739 12.0185 32.4129C12.0495 32.5519 12.1195 32.6792 12.2202 32.7799C12.3209 32.8806 12.4481 32.9505 12.5871 32.9815C12.7261 33.0125 12.871 33.0034 13.005 32.955L18 31.17C18.104 31.1336 18.1988 31.0747 18.2775 30.9975L33.5475 15.75C33.843 15.4688 34.08 15.1318 34.2446 14.7585C34.4092 14.3852 34.4983 13.9829 34.5066 13.575C34.515 13.1671 34.4425 12.7616 34.2933 12.3819C34.1442 12.0021 33.9213 11.6557 33.6375 11.3625ZM31.0575 16.095L28.905 13.9425L29.505 13.3425L31.6575 15.495L31.0575 16.095ZM18.0525 29.1L15.9 26.9475L28.3725 14.475L30.525 16.6275L18.0525 29.1ZM13.9875 31.0125L15.1875 27.66L15.3675 27.48L17.52 29.6325L17.34 29.8125L13.9875 31.0125ZM32.49 14.6625L32.19 14.9625L30.0375 12.81L30.3375 12.51C30.6229 12.2246 31.0101 12.0642 31.4137 12.0642C31.8174 12.0642 32.2046 12.2246 32.49 12.51C32.7754 12.7955 32.9358 13.1826 32.9358 13.5863C32.9358 13.99 32.7754 14.3771 32.49 14.6625Z" fill="white"/>
<path d="M21.75 13.5C21.75 13.3011 21.671 13.1103 21.5303 12.9697C21.3897 12.829 21.1989 12.75 21 12.75H9C8.80109 12.75 8.61032 12.829 8.46967 12.9697C8.32902 13.1103 8.25 13.3011 8.25 13.5C8.25 13.6989 8.32902 13.8897 8.46967 14.0303C8.61032 14.171 8.80109 14.25 9 14.25H21C21.1989 14.25 21.3897 14.171 21.5303 14.0303C21.671 13.8897 21.75 13.6989 21.75 13.5Z" fill="white"/>
<path d="M5.25 14.625C5.87132 14.625 6.375 14.1213 6.375 13.5C6.375 12.8787 5.87132 12.375 5.25 12.375C4.62868 12.375 4.125 12.8787 4.125 13.5C4.125 14.1213 4.62868 14.625 5.25 14.625Z" fill="white"/>
<path d="M9 18.75C8.80109 18.75 8.61032 18.829 8.46967 18.9697C8.32902 19.1103 8.25 19.3011 8.25 19.5C8.25 19.6989 8.32902 19.8897 8.46967 20.0303C8.61032 20.171 8.80109 20.25 9 20.25H16.5C16.6989 20.25 16.8897 20.171 17.0303 20.0303C17.171 19.8897 17.25 19.6989 17.25 19.5C17.25 19.3011 17.171 19.1103 17.0303 18.9697C16.8897 18.829 16.6989 18.75 16.5 18.75H9Z" fill="white"/>
<path d="M5.25 20.625C5.87132 20.625 6.375 20.1213 6.375 19.5C6.375 18.8787 5.87132 18.375 5.25 18.375C4.62868 18.375 4.125 18.8787 4.125 19.5C4.125 20.1213 4.62868 20.625 5.25 20.625Z" fill="white"/>
</svg>
