<svg width="26" height="26" viewBox="0 0 26 26" fill="none" xmlns="http://www.w3.org/2000/svg">
<path d="M18.9077 0H13.0508C10.2507 0 7.97266 2.27802 7.97266 5.07812V8.06351C4.58817 8.55704 1.98047 11.4781 1.98047 14.9975C1.98047 15.5583 2.43512 16.0132 2.99609 16.0132H14.9805C15.5414 16.0132 15.9961 15.5583 15.9961 14.9975C15.9961 11.4781 13.3884 8.55704 10.0039 8.06351V5.07812C10.0039 3.39798 11.3706 2.03125 13.0508 2.03125H18.9075C20.5876 2.03125 21.9544 3.39798 21.9544 5.07812V24.9844C21.9544 25.5453 22.409 26 22.97 26C23.531 26 23.9856 25.5453 23.9856 24.9844V5.07812C23.9858 2.27802 21.7076 0 18.9077 0ZM13.8607 13.9817H4.11586C4.58598 11.7229 6.59204 10.0208 8.98828 10.0208C11.3845 10.0208 13.3906 11.7229 13.8607 13.9817ZM10.0039 18.4929V20.0163C10.0039 20.5773 9.54926 21.032 8.98828 21.032C8.42731 21.032 7.97266 20.5773 7.97266 20.0163V18.4929C7.97266 17.9319 8.42731 17.4773 8.98828 17.4773C9.54926 17.4773 10.0039 17.9319 10.0039 18.4929ZM9.99181 23.4609V24.9844C9.99181 25.5453 9.53716 26 8.97618 26C8.41541 26 7.96056 25.5453 7.96056 24.9844V23.4609C7.96056 22.9 8.41541 22.4453 8.97618 22.4453C9.53716 22.4453 9.99181 22.9 9.99181 23.4609ZM6.0152 18.4929V20.0163C6.0152 20.5773 5.56035 21.032 4.99957 21.032C4.4386 21.032 3.98395 20.5773 3.98395 20.0163V18.4929C3.98395 17.9319 4.4386 17.4773 4.99957 17.4773C5.56035 17.4773 6.0152 17.9319 6.0152 18.4929ZM6.0031 23.4609V24.9844C6.0031 25.5453 5.54845 26 4.98747 26C4.4265 26 3.97185 25.5453 3.97185 24.9844V23.4609C3.97185 22.9 4.4265 22.4453 4.98747 22.4453C5.54845 22.4453 6.0031 22.9 6.0031 23.4609ZM13.9807 18.4929V20.0163C13.9807 20.5773 13.5259 21.032 12.9651 21.032C12.4041 21.032 11.9495 20.5773 11.9495 20.0163V18.4929C11.9495 17.9319 12.4041 17.4773 12.9651 17.4773C13.5259 17.4773 13.9807 17.9319 13.9807 18.4929ZM13.9686 23.4609V24.9844C13.9686 25.5453 13.5138 26 12.953 26C12.392 26 11.9374 25.5453 11.9374 24.9844V23.4609C11.9374 22.9 12.392 22.4453 12.953 22.4453C13.5138 22.4453 13.9686 22.9 13.9686 23.4609Z" fill="white"/>
</svg>
