<svg width="48" height="48" viewBox="0 0 48 48" fill="none" xmlns="http://www.w3.org/2000/svg">
<g clip-path="url(#clip0_312:1467)">
<path d="M45.826 22.2004H42.6192L44.2184 20.6013C44.7754 20.0444 44.7754 19.1414 44.2184 18.5845C43.6615 18.0276 42.7585 18.0276 42.2016 18.5845L38.5856 22.2005H34.552L36.1511 20.6014C36.708 20.0445 36.708 19.1415 36.1511 18.5846C35.5941 18.0277 34.6911 18.0277 34.1343 18.5846L30.5183 22.2006H27.0691L35.2126 14.0572H36.048H40.3263C41.1139 14.0572 41.7525 13.4187 41.7525 12.631C41.7525 11.8434 41.114 11.2049 40.3263 11.2049H38.0648L40.3323 8.93733C40.8893 8.38037 40.8893 7.47741 40.3323 6.92053C39.7753 6.36357 38.8724 6.36357 38.3155 6.92053L36.048 9.18808V6.92644C36.048 6.13884 35.4095 5.50029 34.6218 5.50029C33.8342 5.50029 33.1957 6.13875 33.1957 6.92644V11.2048V12.0402L25.0522 20.1836V16.7345L25.643 16.1437L28.6682 13.1185C29.2252 12.5615 29.2252 11.6586 28.6682 11.1017C28.1113 10.5447 27.2083 10.5447 26.6514 11.1017L25.0523 12.7008V8.66711L25.6431 8.07636L28.6683 5.05112C29.2253 4.49415 29.2253 3.59119 28.6683 3.03432C28.1114 2.47735 27.2084 2.47735 26.6515 3.03432L25.0522 4.63342V1.42664C25.0522 0.638946 24.4137 0.000488281 23.6261 0.000488281C22.8385 0.000488281 22.1999 0.638946 22.1999 1.42664V4.63342L20.6008 3.03423C20.0439 2.47726 19.1409 2.47726 18.584 3.03423C18.0271 3.59119 18.0271 4.49415 18.584 5.05103L21.6093 8.07627L22.2 8.66702V12.7007L20.6009 11.1016C20.044 10.5446 19.141 10.5446 18.5841 11.1016C18.0272 11.6586 18.0272 12.5615 18.5841 13.1184L21.6094 16.1437L22.2001 16.7344V20.1835L14.0567 12.0401V11.2047V6.92644C14.0567 6.13884 13.4182 5.50029 12.6305 5.50029C11.8429 5.50029 11.2044 6.13875 11.2044 6.92644V9.18799L8.93684 6.92044C8.37988 6.36347 7.47692 6.36347 6.92004 6.92044C6.36308 7.47741 6.36308 8.38037 6.92004 8.93724L9.18759 11.2048H6.92595C6.13835 11.2048 5.4998 11.8432 5.4998 12.6309C5.4998 13.4185 6.13826 14.0571 6.92595 14.0571H11.2043H12.0397L20.1831 22.2005H16.734L13.118 18.5845C12.561 18.0276 11.6581 18.0276 11.1012 18.5845C10.5442 19.1415 10.5442 20.0445 11.1012 20.6013L12.7003 22.2004H8.66662L5.05063 18.5844C4.49366 18.0275 3.5907 18.0275 3.03383 18.5844C2.47686 19.1414 2.47686 20.0444 3.03383 20.6012L4.63293 22.2004H1.42615C0.638458 22.2004 0 22.839 0 23.6266C0 24.4142 0.638458 25.0527 1.42615 25.0527H4.63293L3.03374 26.6518C2.47677 27.2088 2.47677 28.1117 3.03374 28.6686C3.5907 29.2256 4.49366 29.2256 5.05054 28.6686L8.66653 25.0526H12.7002L11.1011 26.6517C10.5442 27.2087 10.5442 28.1117 11.1011 28.6685C11.6581 29.2255 12.561 29.2255 13.1179 28.6685L16.1432 25.6433L16.7339 25.0525H20.183L12.0396 33.196H11.2042H6.92595C6.13835 33.196 5.4998 33.8344 5.4998 34.6221C5.4998 35.4097 6.13826 36.0483 6.92595 36.0483H9.1875L6.91995 38.3158C6.36299 38.8728 6.36299 39.7757 6.91995 40.3326C7.47692 40.8896 8.37988 40.8896 8.93675 40.3326L11.2043 38.0651V40.3266C11.2043 41.1142 11.8428 41.7528 12.6305 41.7528C13.418 41.7528 14.0566 41.1143 14.0566 40.3266V36.0483V35.2129L22.2 27.0694V30.5186L21.6093 31.1093L18.584 34.1346C18.0271 34.6915 18.0271 35.5945 18.584 36.1514C19.141 36.7083 20.044 36.7083 20.6008 36.1514L22.1999 34.5523V38.5859L21.6092 39.1767L18.5839 42.2019C18.027 42.7589 18.027 43.6619 18.5839 44.2187C19.1409 44.7757 20.0439 44.7757 20.6007 44.2187L22.1998 42.6196V45.8264C22.1998 46.614 22.8383 47.2526 23.626 47.2526C24.4136 47.2526 25.0521 46.6141 25.0521 45.8264V42.6197L26.6512 44.2188C27.2082 44.7758 28.1112 44.7758 28.668 44.2188C29.225 43.6619 29.225 42.7589 28.668 42.202L25.6428 39.1768L25.052 38.586V34.5523L26.6511 36.1514C27.2081 36.7084 28.1111 36.7084 28.668 36.1514C29.2249 35.5945 29.2249 34.6915 28.668 34.1346L25.6427 31.1094L25.052 30.5187V27.0695L33.1954 35.213V36.0484V40.3267C33.1954 41.1143 33.8338 41.7529 34.6215 41.7529C35.4091 41.7529 36.0477 41.1144 36.0477 40.3267V38.0652L38.3152 40.3327C38.8722 40.8897 39.7752 40.8897 40.332 40.3327C40.889 39.7757 40.889 38.8728 40.332 38.3159L38.0645 36.0484H40.326C41.1136 36.0484 41.7522 35.4099 41.7522 34.6222C41.7522 33.8346 41.1137 33.1961 40.326 33.1961H36.0477H35.2123L27.0688 25.0526H30.518L31.1087 25.6434L34.134 28.6686C34.6909 29.2256 35.5939 29.2256 36.1508 28.6686C36.7077 28.1117 36.7077 27.2087 36.1508 26.6518L34.5517 25.0527H38.5854L42.2014 28.6687C42.7583 29.2257 43.6613 29.2257 44.2182 28.6687C44.7751 28.1117 44.7751 27.2088 44.2182 26.6519L42.6192 25.0527H45.826C46.6136 25.0527 47.2522 24.4143 47.2522 23.6266C47.2522 22.839 46.6137 22.2004 45.826 22.2004Z" fill="#A2DDFD"/>
<path d="M30.5182 25.0527C29.7306 25.0527 29.092 24.4143 29.092 23.6266C29.092 22.839 29.7305 22.2004 30.5182 22.2004H27.069L29.508 19.7615C28.951 20.3185 28.048 20.3184 27.4912 19.7615C26.9343 19.2046 26.9342 18.3017 27.4912 17.7447L25.0523 20.1835V16.7344L25.6431 16.1437L28.6683 13.1184C29.2253 12.5614 29.2253 11.6585 28.6683 11.1016C28.1114 10.5446 27.2084 10.5446 26.6515 11.1016L25.0524 12.7007V8.66711L25.6432 8.07636L28.6684 5.05112C29.2254 4.49415 29.2254 3.59119 28.6684 3.03432C28.1114 2.47735 27.2085 2.47735 26.6516 3.03432L25.0522 4.63342V1.42664C25.0522 0.638946 24.4137 0.000488281 23.6261 0.000488281C22.8385 0.000488281 22.1999 0.638946 22.1999 1.42664V4.63342L20.6008 3.03423C20.0439 2.47726 19.1409 2.47726 18.584 3.03423C18.0271 3.59119 18.0271 4.49415 18.584 5.05103L21.6093 8.07627L22.2 8.66702V12.7007L20.6009 11.1016C20.044 10.5446 19.141 10.5446 18.5841 11.1016C18.0272 11.6586 18.0272 12.5615 18.5841 13.1184L21.6094 16.1437L22.2001 16.7344V20.1835L14.0567 12.0401V11.2047V6.92644C14.0567 6.13884 13.4182 5.50029 12.6305 5.50029C11.8429 5.50029 11.2044 6.13875 11.2044 6.92644V9.18799L8.93684 6.92044C8.37988 6.36347 7.47692 6.36347 6.92004 6.92044C6.36308 7.47741 6.36308 8.38037 6.92004 8.93724L9.18759 11.2048H6.92595C6.13835 11.2048 5.4998 11.8432 5.4998 12.6309C5.4998 13.4185 6.13826 14.0571 6.92595 14.0571H11.2043H12.0397L20.1831 22.2005H16.734L13.118 18.5845C12.561 18.0276 11.6581 18.0276 11.1012 18.5845C10.5442 19.1415 10.5442 20.0445 11.1012 20.6013L12.7003 22.2005H8.66662L5.05063 18.5845C4.49366 18.0276 3.5907 18.0276 3.03383 18.5845C2.47686 19.1415 2.47686 20.0445 3.03383 20.6013L4.63293 22.2004H1.42615C0.638458 22.2004 0 22.839 0 23.6266C0 24.4142 0.638458 25.0527 1.42615 25.0527H4.63293L3.03374 26.6518C2.47677 27.2088 2.47677 28.1117 3.03374 28.6686C3.5907 29.2256 4.49366 29.2256 5.05054 28.6686L8.66653 25.0526H12.7002L11.1011 26.6517C10.5442 27.2087 10.5442 28.1117 11.1011 28.6685C11.6581 29.2255 12.561 29.2255 13.1179 28.6685L16.1432 25.6433L16.7339 25.0525H20.183L12.0396 33.196H11.2042H6.92595C6.13835 33.196 5.4998 33.8344 5.4998 34.6221C5.4998 35.4097 6.13826 36.0483 6.92595 36.0483H9.1875L6.91995 38.3158C6.36299 38.8728 6.36299 39.7757 6.91995 40.3326C7.47692 40.8896 8.37988 40.8896 8.93675 40.3326L11.2043 38.0651V40.3266C11.2043 41.1142 11.8428 41.7528 12.6305 41.7528C13.4181 41.7528 14.0566 41.1143 14.0566 40.3266V36.0483V35.2129L22.2 27.0694V30.5186L21.6093 31.1093L18.584 34.1346C18.0271 34.6915 18.0271 35.5945 18.584 36.1514C19.141 36.7083 20.044 36.7083 20.6008 36.1514L22.1999 34.5523V38.5859L21.6092 39.1767L18.5839 42.2019C18.027 42.7589 18.027 43.6619 18.5839 44.2187C19.1409 44.7757 20.0439 44.7757 20.6007 44.2187L22.1998 42.6196V45.8264C22.1998 46.614 22.8383 47.2526 23.626 47.2526C24.4137 47.2526 25.0521 46.614 25.0521 45.8264V42.6197L26.6512 44.2188C27.2082 44.7758 28.1112 44.7758 28.668 44.2188C29.225 43.6619 29.225 42.7589 28.668 42.202L25.6428 39.1768L25.052 38.586V34.5523L26.6511 36.1514C27.2081 36.7084 28.1111 36.7084 28.668 36.1514C29.2249 35.5945 29.2249 34.6915 28.668 34.1346L25.6427 31.1094L25.052 30.5187V27.0695L27.4909 29.5085C26.9339 28.9515 26.9339 28.0485 27.4909 27.4917C28.0478 26.9348 28.9507 26.9347 29.5076 27.4916L27.0688 25.0527H30.5182Z" fill="#7ACDF9"/>
</g>
<defs>
<clipPath id="clip0_312:1467">
<rect width="47.2522" height="47.2522" fill="white" transform="translate(0 0.000488281)"/>
</clipPath>
</defs>
</svg>
