<svg width="53" height="53" viewBox="0 0 53 53" fill="none" xmlns="http://www.w3.org/2000/svg">
<path d="M26.3521 42.5115C17.4272 42.5115 10.1921 35.2764 10.1921 26.3515C10.1921 17.4265 17.4272 10.1914 26.3521 10.1914C35.2771 10.1914 42.5122 17.4265 42.5122 26.3515C42.5122 35.2764 35.2771 42.5115 26.3521 42.5115Z" fill="#FEDB41"/>
<path d="M13.4861 27.0718C13.6768 27.0716 13.8597 26.9957 13.9945 26.8609C14.1294 26.726 14.2052 26.5432 14.2055 26.3525C14.2087 23.132 15.4895 20.0443 17.7668 17.7671C20.044 15.4898 23.1317 14.2091 26.3522 14.2058C26.5433 14.2058 26.7265 14.1299 26.8617 13.9947C26.9968 13.8596 27.0727 13.6763 27.0727 13.4852C27.0727 13.2941 26.9968 13.1108 26.8617 12.9757C26.7265 12.8406 26.5433 12.7646 26.3522 12.7646C22.7496 12.7685 19.2957 14.2013 16.7483 16.7486C14.2009 19.296 12.7681 22.7499 12.7643 26.3525C12.7644 26.4471 12.7832 26.5408 12.8195 26.6282C12.8559 26.7156 12.9091 26.795 12.9761 26.8618C13.0432 26.9286 13.1227 26.9815 13.2102 27.0175C13.2977 27.0536 13.3915 27.072 13.4861 27.0718Z" fill="#FEA832"/>
<path d="M26.3524 6.89774C25.1784 6.89913 24.007 7.00676 22.8525 7.21932C22.8368 6.99492 22.8265 6.76639 22.8265 6.53663C22.8269 3.32455 26.3524 0.720215 26.3524 0.720215C26.3524 0.720215 29.8782 3.32455 29.8782 6.53663C29.8782 6.76804 29.8675 6.99492 29.8519 7.21932C28.6974 7.00676 27.5262 6.89913 26.3524 6.89774Z" fill="#FEA832"/>
<path d="M26.3519 45.8055C25.178 45.8041 24.0066 45.6966 22.852 45.4844C22.8364 45.7084 22.8261 45.9352 22.8261 46.1667C22.8261 49.3783 26.3515 51.9831 26.3515 51.9831C26.3515 51.9831 29.8774 49.3791 29.8774 46.1667C29.8774 45.9352 29.8667 45.7084 29.851 45.4844C28.6967 45.6966 27.5256 45.8041 26.3519 45.8055Z" fill="#FEA832"/>
<path d="M12.5956 12.5958C11.7668 13.427 11.0148 14.3313 10.3487 15.2977C10.1786 15.1503 10.011 14.9972 9.84755 14.8337C7.57591 12.5621 8.22772 8.22794 8.22772 8.22794C8.22772 8.22794 12.5618 7.57738 14.8335 9.84778C14.9982 10.0125 15.1501 10.1772 15.2975 10.3489C14.3311 11.015 13.4268 11.767 12.5956 12.5958Z" fill="#FEA832"/>
<path d="M40.1081 40.1082C39.2771 40.9372 38.3728 41.6892 37.4062 42.3551C37.5536 42.5252 37.7068 42.6927 37.8702 42.8562C40.1419 45.1279 44.476 44.476 44.476 44.476C44.476 44.476 45.1278 40.1419 42.8562 37.8703C42.6915 37.7056 42.5268 37.5537 42.3551 37.4062C41.689 38.3728 40.937 39.2771 40.1081 40.1082Z" fill="#FEA832"/>
<path d="M6.89819 26.3531C6.89963 27.5271 7.00712 28.6985 7.21936 29.853C6.99537 29.8687 6.76849 29.8794 6.53709 29.8794C3.32541 29.8794 0.720667 26.3536 0.720667 26.3536C0.720667 26.3536 3.325 22.8281 6.53709 22.8281C6.76849 22.8281 6.99537 22.8384 7.21936 22.8541C7.00719 24.0084 6.8997 25.1795 6.89819 26.3531Z" fill="#FEA832"/>
<path d="M45.8062 26.3531C45.8048 27.527 45.6973 28.6984 45.4851 29.853C45.7091 29.8686 45.938 29.8793 46.1673 29.8793C49.3794 29.8777 51.9838 26.3531 51.9838 26.3531C51.9838 26.3531 49.3794 22.8276 46.1673 22.8276C45.9359 22.8276 45.7091 22.8379 45.4851 22.8536C45.6973 24.008 45.8048 25.1793 45.8062 26.3531Z" fill="#FEA832"/>
<path d="M12.5956 40.1082C13.4268 40.937 14.3311 41.689 15.2975 42.3551C15.1501 42.5252 14.9969 42.6927 14.8335 42.8562C12.5618 45.1279 8.22772 44.476 8.22772 44.476C8.22772 44.476 7.57591 40.1419 9.84755 37.8703C10.0123 37.7056 10.177 37.5537 10.3487 37.4062C11.0147 38.3728 11.7667 39.2771 12.5956 40.1082Z" fill="#FEA832"/>
<path d="M40.1081 12.5958C40.9369 13.427 41.6889 14.3313 42.3551 15.2977C42.5251 15.1503 42.6927 14.9972 42.8562 14.8337C45.1278 12.5621 44.476 8.22794 44.476 8.22794C44.476 8.22794 40.1419 7.57738 37.8702 9.84778C37.7055 10.0125 37.5536 10.1772 37.4062 10.3489C38.3727 11.0149 39.277 11.7669 40.1081 12.5958Z" fill="#FEA832"/>
</svg>
