<svg width="56" height="52" viewBox="0 0 56 52" fill="none" xmlns="http://www.w3.org/2000/svg">
<path d="M5.9858 0C2.66885 0 0 2.76279 0 6.124V36.1891C0 39.5701 2.66914 42.3527 5.9858 42.3527H33.2898L48.642 51.8063C48.8343 51.9264 49.0554 51.9931 49.2823 51.9995C49.5091 52.0059 49.7336 51.9517 49.9323 51.8425C50.1311 51.7333 50.297 51.5732 50.4128 51.3787C50.5286 51.1841 50.5901 50.9623 50.5909 50.7361V49.428C50.6139 47.7642 50.6107 45.2621 50.6108 42.2338C53.6409 41.9038 56 39.3419 56 36.1891V6.124C56 2.76307 53.3318 0 50.0142 0H5.9858ZM5.9858 2.5368H50.0142C51.9313 2.5368 53.4545 4.06415 53.4545 6.124V36.1891C53.4545 38.2565 51.9561 39.7982 50.0341 39.8159C48.8804 39.8159 48.0653 40.6427 48.0653 41.7978C48.0653 44.6794 48.0615 46.7582 48.0455 48.4569L34.5227 40.1132C34.5161 40.1132 34.5095 40.1132 34.5028 40.1132C34.1641 39.9067 33.7647 39.8159 33.4688 39.8159H5.9858C4.06951 39.8159 2.54545 38.2809 2.54545 36.1891V6.124C2.54545 4.06442 4.0698 2.5368 5.9858 2.5368ZM27.8608 9.05718C27.5445 9.09183 27.2526 9.2433 27.0428 9.48175C26.833 9.7202 26.7204 10.0283 26.7273 10.3454V21.8998C26.7249 22.0678 26.756 22.2347 26.8189 22.3907C26.8818 22.5467 26.9752 22.6886 27.0936 22.8083C27.212 22.928 27.3531 23.0231 27.5087 23.0879C27.6643 23.1528 27.8313 23.1862 28 23.1862C28.1687 23.1862 28.3357 23.1528 28.4913 23.0879C28.6469 23.0231 28.788 22.928 28.9064 22.8083C29.0248 22.6886 29.1182 22.5467 29.1811 22.3907C29.244 22.2347 29.2751 22.0678 29.2727 21.8998V10.3454C29.2766 10.1648 29.2418 9.98553 29.1706 9.81946C29.0993 9.65339 28.9933 9.50439 28.8597 9.38244C28.726 9.26048 28.5677 9.16838 28.3955 9.11229C28.2232 9.0562 28.0409 9.03741 27.8608 9.05718ZM28 26.7554C26.8361 26.7554 25.892 27.711 25.892 28.876C25.892 30.0409 26.8361 30.9768 28 30.9768C29.1639 30.9768 30.108 30.0409 30.108 28.876C30.108 27.711 29.1639 26.7554 28 26.7554Z" fill="#60C7BF"/>
</svg>
