<?xml version="1.0" encoding="utf-8"?>
<!-- Generator: Adobe Illustrator 25.4.1, SVG Export Plug-In . SVG Version: 6.00 Build 0)  -->
<svg version="1.1" id="Capa_1" xmlns="http://www.w3.org/2000/svg" xmlns:xlink="http://www.w3.org/1999/xlink" x="0px" y="0px"
	 viewBox="0 0 20 20" style="enable-background:new 0 0 20 20;" xml:space="preserve">
<style type="text/css">
	.st0{fill:#62CAC2;}
</style>
<path class="st0" d="M16.6,8.8c1.6,0,2.9,1.2,3,2.8l0,0.2v6c0,0.3-0.3,0.6-0.6,0.6c-0.3,0-0.5-0.2-0.6-0.5l0-0.1v-3H1.6v3
	c0,0.3-0.3,0.6-0.6,0.6c-0.3,0-0.5-0.2-0.6-0.5l0-0.1v-6c0-1.6,1.2-2.9,2.8-3l0.2,0H16.6z M5.8,1.6h8.4c1.6,0,2.9,1.2,3,2.8l0,0.2v3
	h-2.4V7c0-0.3-0.2-0.5-0.5-0.6l-0.1,0h-3c-0.3,0-0.5,0.2-0.6,0.5l0,0.1v0.6H9.4V7c0-0.3-0.2-0.5-0.5-0.6l-0.1,0h-3
	c-0.3,0-0.5,0.2-0.6,0.5l0,0.1v0.6H2.8v-3c0-1.6,1.2-2.9,2.8-3L5.8,1.6z"/>
</svg>
