<svg width="23" height="23" viewBox="0 0 23 23" fill="none" xmlns="http://www.w3.org/2000/svg">
<path d="M14.9389 15.9391H10.2319V13.5855H12.5854C13.8857 13.5855 14.939 12.5323 14.939 11.232V8.87845C14.939 7.57815 13.8858 6.5249 12.5854 6.5249H7.87835V8.87845H12.5854V11.232H10.2319C8.93154 11.232 7.8783 12.2852 7.8783 13.5856V18.2926H14.9389V15.9391Z" fill="white"/>
<path d="M19.6465 1.81836H3.17173C1.87142 1.81836 0.818176 2.87155 0.818176 4.17191V20.6467C0.818176 21.947 1.87142 23.0002 3.17173 23.0002H19.6465C20.9468 23.0002 22 21.947 22 20.6466V4.17191C22 2.87155 20.9468 1.81836 19.6465 1.81836ZM19.6465 20.6466H3.17173V4.17191H19.6465V20.6466Z" fill="white"/>
</svg>
