<svg width="28" height="22" viewBox="0 0 28 22" fill="none" xmlns="http://www.w3.org/2000/svg">
<path d="M0.546875 9.08028H1.52983C1.5231 8.99125 1.51938 8.90189 1.51938 8.81236C1.51938 7.60705 2.1758 6.4106 3.21376 5.68643C3.35218 4.13609 4.65845 2.91672 6.24416 2.91672C6.60198 2.91672 6.95751 2.98022 7.29148 3.10233C8.26115 2.12348 9.63774 1.54932 11.0534 1.54932C13.4038 1.54932 15.3995 3.11693 15.9257 5.2445C16.3834 4.97554 16.9096 4.82876 17.4473 4.82876C17.6874 4.82876 17.9233 4.85671 18.1529 4.91216C18.8029 3.98849 19.8608 3.43106 21.0109 3.43106C22.637 3.43106 24.0252 4.54411 24.4051 6.08389C25.5845 6.305 26.4806 7.34357 26.4806 8.58514C26.4806 8.75232 26.4634 8.91802 26.4313 9.08028H27.4531C27.7552 9.08028 28 9.32517 28 9.62715V12.2209C28 12.5229 27.7552 12.7677 27.4531 12.7677H26.7607L25.8906 18.9149C25.7211 20.1119 24.6827 21.0146 23.4751 21.0146H4.52501C3.31734 21.0146 2.27894 20.1119 2.10952 18.9149L1.23933 12.7677H0.546875C0.24489 12.7677 0 12.5229 0 12.2209V9.62715C0 9.32517 0.24489 9.08028 0.546875 9.08028ZM25.3869 8.58519C25.3869 7.78719 24.7377 7.1363 23.9398 7.13428C23.6625 7.13357 23.4295 6.92537 23.3979 6.6498C23.2588 5.43842 22.2326 4.52492 21.011 4.52492C20.1121 4.52492 19.2952 5.0205 18.8791 5.81817C18.7476 6.07006 18.4452 6.17943 18.1829 6.06962C17.95 5.97206 17.7025 5.92262 17.4473 5.92262C16.9174 5.92262 16.425 6.13503 16.061 6.52063C15.9188 6.67124 15.7039 6.72872 15.5057 6.66889C15.4625 6.65593 15.4186 6.6439 15.3754 6.63329C15.1433 6.57614 14.9752 6.37489 14.9603 6.13634C14.838 4.1776 13.1218 2.64318 11.0533 2.64318C9.81482 2.64318 8.61705 3.19262 7.84946 4.11296C7.68266 4.31284 7.39834 4.36736 7.16937 4.24377C6.88734 4.09125 6.56731 4.01064 6.24405 4.01064C5.1695 4.01064 4.29527 4.88482 4.29527 5.95943L4.29543 5.98475C4.29827 6.1814 4.1953 6.36444 4.02571 6.46414C3.18073 6.96081 2.61297 7.90461 2.61297 8.81253C2.61297 8.90227 2.61789 8.99163 2.62762 9.08044H4.58057C4.75732 9.08044 4.92324 9.16592 5.02584 9.3098C5.12848 9.45374 5.15523 9.63836 5.09764 9.80549C5.04689 9.95271 5.02119 10.1074 5.02119 10.265C5.02119 11.042 5.65338 11.6741 6.43038 11.6741C7.20738 11.6741 7.83951 11.042 7.83951 10.265C7.83951 10.1073 7.81375 9.95271 7.76305 9.80549C7.70541 9.63831 7.73221 9.45368 7.83486 9.3098C7.93745 9.16586 8.10332 9.08044 8.28012 9.08044H25.3001C25.3573 8.92261 25.3869 8.75522 25.3869 8.58519ZM26.9062 10.174H8.93167C8.93277 10.2043 8.93326 10.2345 8.93326 10.2649C8.93326 10.7871 8.77226 11.2723 8.49762 11.674H26.9062V10.174ZM3.19244 18.7617C3.28595 19.4225 3.85886 19.9208 4.52495 19.9208H23.475C24.1412 19.9208 24.714 19.4225 24.8076 18.7617L25.656 12.7677H2.34396L3.19244 18.7617ZM1.09375 11.674H4.36319C4.08855 11.2724 3.92749 10.7871 3.92749 10.2649C3.92749 10.2345 3.92804 10.2043 3.92908 10.174H1.09375V11.674Z" fill="white"/>
<path d="M17.3706 3.55119C16.3916 3.55119 15.5951 2.75466 15.5951 1.77559C15.5951 0.796523 16.3916 0 17.3706 0C18.3497 0 19.1462 0.796523 19.1462 1.77559C19.1462 2.75466 18.3497 3.55119 17.3706 3.55119ZM17.3706 1.09375C16.9947 1.09375 16.6888 1.39962 16.6888 1.77559C16.6888 2.15157 16.9947 2.45744 17.3706 2.45744C17.7466 2.45744 18.0525 2.15157 18.0525 1.77559C18.0525 1.39962 17.7466 1.09375 17.3706 1.09375Z" fill="white"/>
</svg>
