<?xml version="1.0" encoding="utf-8"?>
<!-- Generator: Adobe Illustrator 25.4.1, SVG Export Plug-In . SVG Version: 6.00 Build 0)  -->
<svg version="1.1" id="Capa_1" xmlns="http://www.w3.org/2000/svg" xmlns:xlink="http://www.w3.org/1999/xlink" x="0px" y="0px"
	 viewBox="0 0 512 512" style="enable-background:new 0 0 512 512;" xml:space="preserve">
<style type="text/css">
	.st0{fill:#62CAC2;}
</style>
<path class="st0" d="M475,501.5H39.3c-16.5,0-30-13.5-30-30l0,0c0-16.5,13.5-30,30-30H475c16.5,0,30,13.5,30,30l0,0
	C505,488,491.5,501.5,475,501.5z"/>
<path class="st0" d="M19.4,242C48,345.8,143.1,422,256,422s208-76.2,236.6-180H19.4z"/>
<path class="st0" d="M321,286.5c-5.1,2.5-10.9,4-17,4c-21.2,0-38.5-17.3-38.5-38.5V108c0-21.2,17.3-38.5,38.5-38.5
	s38.5,17.3,38.5,38.5v18h49v-18c0-48.2-39.3-87.5-87.5-87.5s-87.5,39.3-87.5,87.5v144c0,48.2,39.3,87.5,87.5,87.5
	c5.8,0,11.5-0.6,17-1.7V286.5z"/>
<path class="st0" d="M198.1,247.9l-28-28l-3.8,3.8c-6.4,6.4-17,6.4-23.5,0c-6.4-6.4-6.4-17,0-23.5l31-31c6.4-6.4,17-6.4,23.5,0
	c6.5,6.5,6.6,17,0,23.5l-3.7,3.7l28,28c6.4,6.4,6.4,17,0,23.5C215.1,254.4,204.5,254.4,198.1,247.9z"/>
<path class="st0" d="M286.2,247.9l28-28l3.8,3.8c6.4,6.4,17,6.4,23.5,0c6.4-6.4,6.4-17,0-23.5l-31-31c-6.4-6.4-17-6.4-23.5,0
	c-6.5,6.5-6.6,17,0,23.5l3.7,3.7l-28,28c-6.4,6.4-6.4,17,0,23.5C269.2,254.4,279.8,254.4,286.2,247.9z"/>
</svg>
