<svg width="127" height="43" viewBox="0 0 127 43" fill="none" xmlns="http://www.w3.org/2000/svg">
<path d="M39.3888 19.0026H43.561C44.3147 19.0026 44.9283 18.389 44.9283 17.6352C44.9283 16.8815 44.3147 16.2679 43.561 16.2679H39.3888C38.635 16.2679 38.0215 16.8815 38.0215 17.6352C38.0215 18.389 38.635 19.0026 39.3888 19.0026Z" fill="#FFFEFE"/>
<path d="M49.2658 19.0026H53.4379C54.1917 19.0026 54.8052 18.389 54.8052 17.6352C54.8052 16.8815 54.1917 16.2679 53.4379 16.2679H49.2658C48.512 16.2679 47.8984 16.8815 47.8984 17.6352C47.8984 18.389 48.512 19.0026 49.2658 19.0026Z" fill="#FFFEFE"/>
<path d="M59.1271 19.0026H63.2992C64.053 19.0026 64.6666 18.389 64.6666 17.6352C64.6666 16.8815 64.053 16.2679 63.2992 16.2679H59.1271C58.3733 16.2679 57.7598 16.8815 57.7598 17.6352C57.7598 18.389 58.3733 19.0026 59.1271 19.0026Z" fill="#FFFEFE"/>
<path d="M68.9943 19.0026H73.1664C73.9202 19.0026 74.5338 18.389 74.5338 17.6352C74.5338 16.8815 73.9202 16.2679 73.1664 16.2679H68.9943C68.2405 16.2679 67.627 16.8815 67.627 17.6352C67.627 18.389 68.2405 19.0026 68.9943 19.0026Z" fill="#FFFEFE"/>
<path d="M78.8693 19.0026H83.0414C83.7952 19.0026 84.4088 18.389 84.4088 17.6352C84.4088 16.8815 83.7952 16.2679 83.0414 16.2679H78.8693C78.1155 16.2679 77.502 16.8815 77.502 17.6352C77.502 18.389 78.1155 19.0026 78.8693 19.0026Z" fill="#FFFEFE"/>
<path d="M88.7326 19.0026H92.9047C93.6585 19.0026 94.272 18.389 94.272 17.6352C94.272 16.8815 93.6585 16.2679 92.9047 16.2679H88.7326C87.9788 16.2679 87.3652 16.8815 87.3652 17.6352C87.3652 18.389 87.9788 19.0026 88.7326 19.0026Z" fill="#FFFEFE"/>
<path d="M73.321 5.7323H67.1154C66.3616 5.7323 65.748 6.34585 65.748 7.09964C65.748 7.85343 66.3616 8.46698 67.1154 8.46698H73.321C74.0748 8.46698 74.6883 7.85343 74.6883 7.09964C74.6883 6.34585 74.0748 5.7323 73.321 5.7323Z" fill="#FFFEFE"/>
<path d="M106.197 28.9245H108.091C108.844 28.9245 109.458 28.311 109.458 27.5572C109.458 26.8034 108.844 26.1898 108.091 26.1898H106.197C105.444 26.1898 104.83 26.8034 104.83 27.5572C104.83 28.311 105.444 28.9245 106.197 28.9245Z" fill="#FFFEFE"/>
<path d="M99.3719 26.1898H97.4787C96.7249 26.1898 96.1113 26.8034 96.1113 27.5572C96.1113 28.311 96.7249 28.9245 97.4787 28.9245H99.3719C100.126 28.9245 100.739 28.311 100.739 27.5572C100.739 26.8034 100.126 26.1898 99.3719 26.1898Z" fill="#FFFEFE"/>
<path d="M125.076 37.1635C121.658 37.1635 119.87 38.0576 118.275 38.8639C116.767 39.6177 115.47 40.2663 112.7 40.2663C110.684 40.2663 109.44 39.9158 108.335 39.4424C114.418 36.0767 118.24 32.2902 120.448 29.5731C123.183 26.2073 124.13 23.683 124.165 23.5778C124.323 23.1571 124.252 22.6838 124.007 22.3157C123.744 21.9475 123.341 21.7372 122.885 21.7372H109.212C109.159 21.6495 109.089 21.5619 109.001 21.4917L98.7464 11.8503C98.5009 11.6048 98.1503 11.4821 97.8173 11.4821H93.3296C93.2945 11.4295 93.2419 11.377 93.1893 11.3244L81.6722 0.368128C81.4267 0.122708 81.0761 0 80.7255 0H58.7429C58.217 0 57.7262 0.315534 57.4983 0.788843L52.5549 11.4821H34.8321C34.3062 11.4821 33.8328 11.7801 33.605 12.2534L25.7165 28.8368H17.7579C17.1969 28.8368 16.6885 29.1874 16.4782 29.7133L12.4463 40.1962C10.5355 40.0209 9.4136 39.4775 8.16897 38.8464C6.59127 38.0576 4.78568 37.146 1.36734 37.146C0.613549 37.146 0 37.7596 0 38.5133C0 39.2671 0.613549 39.8807 1.36734 39.8807C4.13707 39.8807 5.43429 40.5293 6.94187 41.2831C8.51957 42.0719 10.3252 42.9835 13.7435 42.9835C17.1618 42.9835 18.9499 42.0895 20.5451 41.2831C22.0527 40.5293 23.3499 39.8807 26.1197 39.8807C28.8894 39.8807 30.1866 40.5293 31.6942 41.2831C33.2719 42.0719 35.0775 42.9835 38.4958 42.9835C41.9142 42.9835 43.7022 42.0895 45.2975 41.2831C46.805 40.5293 48.1023 39.8807 50.872 39.8807C53.6417 39.8807 54.9389 40.5293 56.4465 41.2831C58.0242 42.0719 59.8298 42.9835 63.2481 42.9835C66.6665 42.9835 68.4546 42.0895 70.0498 41.2831C71.5574 40.5293 72.8546 39.8807 75.6243 39.8807C78.3941 39.8807 79.6913 40.5293 81.1988 41.2831C82.7765 42.0719 84.5821 42.9835 88.0005 42.9835C91.4188 42.9835 93.2069 42.0895 94.8021 41.2831C96.3097 40.5293 97.6069 39.8807 100.377 39.8807C103.146 39.8807 104.444 40.5293 105.951 41.2831C107.529 42.0719 109.334 42.9835 112.753 42.9835C116.171 42.9835 117.959 42.0895 119.554 41.2831C121.062 40.5293 122.359 39.8807 125.129 39.8807C125.883 39.8807 126.496 39.2671 126.496 38.5133C126.444 37.7771 125.83 37.1635 125.076 37.1635ZM59.6194 2.71714H80.2172L83.3901 5.7323H78.359C77.6052 5.7323 76.9916 6.34585 76.9916 7.09964C76.9916 7.85343 77.6052 8.46697 78.359 8.46697H86.265L89.4379 11.4821H55.57L59.6194 2.71714ZM35.691 14.2168H53.4138C53.4138 14.2168 53.4138 14.2168 53.4314 14.2168H97.2914L105.303 21.7372H41.2831C40.8098 21.7372 40.3891 21.9826 40.1261 22.3682L35.9715 28.8368H28.7316L35.691 14.2168ZM93.5399 38.8639C92.0324 39.6177 90.7352 40.2663 87.9654 40.2663C85.1957 40.2663 83.8985 39.6177 82.3909 38.8639C80.8132 38.0751 79.0076 37.1635 75.5892 37.1635C72.1709 37.1635 70.3828 38.0576 68.7876 38.8639C67.28 39.6177 65.9828 40.2663 63.2131 40.2663C60.4434 40.2663 59.1461 39.6177 57.6386 38.8639C56.0609 38.0751 54.2553 37.1635 50.8369 37.1635C47.4186 37.1635 45.6305 38.0576 44.0353 38.8639C42.5277 39.6177 41.2305 40.2663 38.4608 40.2663C35.691 40.2663 34.3938 39.6177 32.8862 38.8639C31.3085 38.0751 29.5029 37.1635 26.0846 37.1635C22.6663 37.1635 20.8782 38.0576 19.283 38.8639C18.1085 39.4424 17.0567 39.9683 15.3563 40.1787L18.6519 31.589H36.6902C37.1635 31.589 37.5843 31.3436 37.8472 30.9579L42.0018 24.4894H120.659C120.133 25.4185 119.327 26.6105 118.205 27.9778C115.943 30.73 111.876 34.6568 105.18 38.005C103.953 37.5492 102.445 37.1811 100.289 37.1811C96.9232 37.1635 95.1352 38.0576 93.5399 38.8639Z" fill="#FFFEFE"/>
</svg>
