<svg width="66" height="34" viewBox="0 0 66 34" fill="none" xmlns="http://www.w3.org/2000/svg">
<path d="M64.9585 15.0459C64.6506 14.6076 64.1477 14.3464 63.6112 14.3464H50.2783C46.5402 10.9482 41.6165 9.00209 36.4677 9.00209H26.0377C26.9188 8.1693 28.1042 7.67786 29.391 7.67786H36.4144C37.1514 7.67786 37.7987 7.18888 37.9978 6.48108C38.1972 5.77344 37.9 5.01988 37.2707 4.63703C32.2822 1.60358 26.5573 0 20.7145 0H14.0885C10.5383 0 7.33093 2.23281 6.10702 5.55627C5.92181 6.05935 5.99467 6.621 6.30242 7.0606C6.61 7.50021 7.11365 7.76201 7.65118 7.76201H11.6262L4.86057 22.3966C3.50145 23.1894 2.16832 24.0371 0.865292 24.9423C0.423493 25.2488 0.160156 25.7518 0.160156 26.2883V32.2686C0.160156 33.1744 0.896544 33.9089 1.80498 33.9089H40.2955C45.7529 33.9089 51.0005 32.2587 55.4708 29.137C59.9411 26.0154 63.2906 21.6621 65.1568 16.5477C65.3402 16.0448 65.2664 15.4843 64.9585 15.0459ZM40.2955 30.6283H3.4498V27.1528C12.7207 20.9182 23.512 17.6272 34.7143 17.6272H61.1293C57.288 25.4914 49.193 30.6283 40.2955 30.6283ZM15.6893 6.80849C15.924 6.30064 15.8832 5.70849 15.5809 5.23739C15.2786 4.76645 14.7563 4.48153 14.1956 4.48153H10.7622C11.6793 3.72403 12.8498 3.28081 14.0885 3.28081H20.7145C23.4372 3.28081 26.1316 3.66924 28.7194 4.42411C25.3909 4.69116 22.5706 6.93004 21.5812 10.1639C21.429 10.6611 21.5223 11.2008 21.8325 11.6186C22.1427 12.0365 22.6331 12.2829 23.1545 12.2829H36.4677C39.3547 12.2829 42.1568 13.0125 44.6349 14.3466H34.7144C25.9625 14.3466 17.4477 16.244 9.64174 19.8904L15.6893 6.80849Z" fill="#26CDC3"/>
<path d="M33.2713 22.1914H28.3987C27.4903 22.1914 26.7539 22.926 26.7539 23.8318C26.7539 24.7377 27.4903 25.4723 28.3987 25.4723H33.2713C34.1798 25.4723 34.9162 24.7377 34.9162 23.8318C34.9162 22.926 34.1798 22.1914 33.2713 22.1914Z" fill="#26CDC3"/>
<path d="M47.201 22.1914H42.3284C41.42 22.1914 40.6836 22.926 40.6836 23.8318C40.6836 24.7377 41.42 25.4723 42.3284 25.4723H47.201C48.1094 25.4723 48.8458 24.7377 48.8458 23.8318C48.8458 22.926 48.1093 22.1914 47.201 22.1914Z" fill="#26CDC3"/>
</svg>
