<svg width="36" height="40" viewBox="0 0 36 40" fill="none" xmlns="http://www.w3.org/2000/svg">
<path d="M20.5639 11.6673V6.66732C20.5639 5.78326 20.2544 4.93542 19.7034 4.3103C19.1525 3.68517 18.4053 3.33398 17.6262 3.33398H5.87543C5.09631 3.33398 4.3491 3.68517 3.79817 4.3103C3.24725 4.93542 2.93774 5.78326 2.93774 6.66732V16.6673C2.93774 17.5514 3.24725 18.3992 3.79817 19.0243C4.3491 19.6495 5.09631 20.0007 5.87543 20.0007H7.24145C7.72497 20.0006 8.20104 20.1359 8.6274 20.3947C9.05377 20.6534 9.41725 21.0276 9.68561 21.484L10.282 22.5007M29.3769 16.6673H17.6262C16.8471 16.6673 16.0998 17.0185 15.5489 17.6436C14.998 18.2688 14.6885 19.1166 14.6885 20.0007V30.0007C14.6885 30.8847 14.998 31.7326 15.5489 32.3577C16.0998 32.9828 16.8471 33.334 17.6262 33.334H18.9922C19.4757 33.3339 19.9518 33.4692 20.3781 33.728C20.8045 33.9868 21.168 34.3609 21.4364 34.8173L22.2795 36.254C22.4136 36.4823 22.5953 36.6694 22.8085 36.7989C23.0217 36.9283 23.2598 36.996 23.5015 36.996C23.7433 36.996 23.9814 36.9283 24.1946 36.7989C24.4078 36.6694 24.5895 36.4823 24.7236 36.254L25.5667 34.819C25.8349 34.3623 26.1983 33.9878 26.6247 33.7287C27.0511 33.4697 27.5272 33.3341 28.0109 33.334H29.3769C30.156 33.334 30.9033 32.9828 31.4542 32.3577C32.0051 31.7326 32.3146 30.8847 32.3146 30.0007V20.0007C32.3146 19.1166 32.0051 18.2688 31.4542 17.6436C30.9033 17.0185 30.156 16.6673 29.3769 16.6673Z" stroke="#313E44" stroke-width="3" stroke-linecap="round" stroke-linejoin="round"/>
</svg>
