<svg width="35" height="35" viewBox="0 0 35 35" fill="none" xmlns="http://www.w3.org/2000/svg">
<path d="M17.5 18.957C19.9162 18.957 21.875 16.9983 21.875 14.582C21.875 12.1658 19.9162 10.207 17.5 10.207C15.0838 10.207 13.125 12.1658 13.125 14.582C13.125 16.9983 15.0838 18.957 17.5 18.957Z" stroke="#62CAC2" stroke-width="4" stroke-linecap="round" stroke-linejoin="round"/>
<path d="M17.5 2.91602C14.4058 2.91602 11.4383 4.14518 9.2504 6.3331C7.06248 8.52103 5.83331 11.4885 5.83331 14.5827C5.83331 17.3418 6.41956 19.1473 8.02081 21.1452L17.5 32.0827L26.9791 21.1452C28.5804 19.1473 29.1666 17.3418 29.1666 14.5827C29.1666 11.4885 27.9375 8.52103 25.7496 6.3331C23.5616 4.14518 20.5942 2.91602 17.5 2.91602V2.91602Z" stroke="#62CAC2" stroke-width="4" stroke-linecap="round" stroke-linejoin="round"/>
</svg>
