<svg width="59" height="39" viewBox="0 0 59 39" fill="none" xmlns="http://www.w3.org/2000/svg">
<path d="M50.8376 37H2C2 37 3.06672 23.8594 10.0216 23.8594H57C55.5897 31 51.359 35.5 51.1439 36.9597M49.732 23.521C48.6397 21.523 44.6353 16.5268 37.3554 16.5268H26.4612H19.6551H12.849M12.849 16.5268L10.9316 23.521M12.849 16.5268H16.6325L18.3375 10.5326H20.8632M38.9681 16.5268C38.3772 14.5288 35.211 10.5326 31.2728 10.5326H25.6856H20.8632M20.8632 10.5326L21.8433 5.74691M30.4801 10.4691C30.2349 9.22839 29.3358 5.74691 27.7014 5.74691H21.8433M21.8433 5.74691V2" stroke="white" stroke-width="2.5" stroke-linecap="round"/>
</svg>
