<svg width="20" height="19" viewBox="0 0 20 19" fill="none" xmlns="http://www.w3.org/2000/svg">
<path d="M0.946481 0.833496C0.761763 0.833496 0.58461 0.901105 0.453995 1.02145C0.323379 1.14179 0.25 1.30501 0.25 1.47521V6.60888C0.25 6.77908 0.323379 6.9423 0.453995 7.06264C0.58461 7.18298 0.761763 7.25059 0.946481 7.25059C1.1312 7.25059 1.30835 7.18298 1.43897 7.06264C1.56958 6.9423 1.64296 6.77908 1.64296 6.60888V3.02429L6.02522 7.06321C6.156 7.18371 6.33338 7.2514 6.51833 7.2514C6.70328 7.2514 6.88066 7.18371 7.01144 7.06321C7.14222 6.94272 7.21569 6.77929 7.21569 6.60888C7.21569 6.43848 7.14222 6.27505 7.01144 6.15455L2.62779 2.11692H6.51833C6.70305 2.11692 6.8802 2.04931 7.01081 1.92896C7.14143 1.80862 7.21481 1.6454 7.21481 1.47521C7.21481 1.30501 7.14143 1.14179 7.01081 1.02145C6.8802 0.901105 6.70305 0.833496 6.51833 0.833496H0.946481ZM0.946481 18.8014C0.761763 18.8014 0.58461 18.7338 0.453995 18.6134C0.323379 18.4931 0.25 18.3298 0.25 18.1597V13.026C0.25 12.8558 0.323379 12.6926 0.453995 12.5722C0.58461 12.4519 0.761763 12.3843 0.946481 12.3843C1.1312 12.3843 1.30835 12.4519 1.43897 12.5722C1.56958 12.6926 1.64296 12.8558 1.64296 13.026V16.6106L6.02522 12.5716C6.156 12.4512 6.33338 12.3835 6.51833 12.3835C6.70328 12.3835 6.88066 12.4512 7.01144 12.5716C7.14222 12.6921 7.21569 12.8556 7.21569 13.026C7.21569 13.1964 7.14222 13.3598 7.01144 13.4803L2.62779 17.5179H6.51833C6.70305 17.5179 6.8802 17.5856 7.01081 17.7059C7.14143 17.8262 7.21481 17.9895 7.21481 18.1597C7.21481 18.3298 7.14143 18.4931 7.01081 18.6134C6.8802 18.7338 6.70305 18.8014 6.51833 18.8014H0.946481ZM19.7515 1.47521C19.7515 1.30501 19.6781 1.14179 19.5475 1.02145C19.4169 0.901105 19.2397 0.833496 19.055 0.833496H13.4831C13.2984 0.833496 13.1213 0.901105 12.9906 1.02145C12.86 1.14179 12.7867 1.30501 12.7867 1.47521C12.7867 1.6454 12.86 1.80862 12.9906 1.92896C13.1213 2.04931 13.2984 2.11692 13.4831 2.11692H17.3737L12.99 6.15455C12.8592 6.27505 12.7858 6.43848 12.7858 6.60888C12.7858 6.77929 12.8592 6.94272 12.99 7.06321C13.1208 7.18371 13.2982 7.2514 13.4831 7.2514C13.6681 7.2514 13.8455 7.18371 13.9762 7.06321L18.3585 3.02429V6.60888C18.3585 6.77908 18.4319 6.9423 18.5625 7.06264C18.6931 7.18298 18.8703 7.25059 19.055 7.25059C19.2397 7.25059 19.4169 7.18298 19.5475 7.06264C19.6781 6.9423 19.7515 6.77908 19.7515 6.60888V1.47521ZM19.055 18.8014C19.2397 18.8014 19.4169 18.7338 19.5475 18.6134C19.6781 18.4931 19.7515 18.3298 19.7515 18.1597V13.026C19.7515 12.8558 19.6781 12.6926 19.5475 12.5722C19.4169 12.4519 19.2397 12.3843 19.055 12.3843C18.8703 12.3843 18.6931 12.4519 18.5625 12.5722C18.4319 12.6926 18.3585 12.8558 18.3585 13.026V16.6106L13.9762 12.5716C13.8455 12.4512 13.6681 12.3835 13.4831 12.3835C13.2982 12.3835 13.1208 12.4512 12.99 12.5716C12.8592 12.6921 12.7858 12.8556 12.7858 13.026C12.7858 13.1964 12.8592 13.3598 12.99 13.4803L17.3737 17.5179H13.4831C13.2984 17.5179 13.1213 17.5856 12.9906 17.7059C12.86 17.8262 12.7867 17.9895 12.7867 18.1597C12.7867 18.3298 12.86 18.4931 12.9906 18.6134C13.1213 18.7338 13.2984 18.8014 13.4831 18.8014H19.055Z" fill="white"/>
</svg>
