<svg width="44" height="44" viewBox="0 0 44 44" fill="none" xmlns="http://www.w3.org/2000/svg">
<path d="M27.2141 36.666H11.9167C9.38858 36.666 7.33341 34.6108 7.33341 32.0827C7.33341 29.5545 9.38858 27.4993 11.9167 27.4993H24.7501C28.2884 27.4993 31.1667 24.621 31.1667 21.0827C31.1667 17.5443 28.2884 14.666 24.7501 14.666H15.8382C15.165 15.9858 14.3312 17.2174 13.3559 18.3327H24.7501C26.2662 18.3327 27.5001 19.5665 27.5001 21.0827C27.5001 22.5989 26.2662 23.8327 24.7501 23.8327H11.9167C7.36825 23.8327 3.66675 27.5342 3.66675 32.0827C3.66675 36.6312 7.36825 40.3327 11.9167 40.3327H29.5039C28.6043 39.2011 27.8361 37.971 27.2141 36.666ZM9.16675 3.66602C6.13441 3.66602 3.66675 6.13368 3.66675 9.16602C3.66675 15.0107 9.16675 18.3327 9.16675 18.3327C9.16675 18.3327 14.6667 15.0088 14.6667 9.16602C14.6667 6.13368 12.1991 3.66602 9.16675 3.66602ZM9.16675 11.916C8.80549 11.9159 8.4478 11.8446 8.11409 11.7063C7.78038 11.5679 7.47719 11.3652 7.22182 11.1096C6.96646 10.8541 6.76393 10.5508 6.6258 10.217C6.48766 9.88318 6.41663 9.52544 6.41675 9.16418C6.41687 8.80293 6.48814 8.44523 6.6265 8.11152C6.76486 7.77781 6.96759 7.47462 7.22312 7.21926C7.47865 6.9639 7.78198 6.76137 8.11578 6.62323C8.44958 6.4851 8.80733 6.41406 9.16858 6.41418C9.89817 6.41443 10.5978 6.70449 11.1135 7.22056C11.6292 7.73662 11.9188 8.43643 11.9186 9.16602C11.9183 9.8956 11.6283 10.5952 11.1122 11.1109C10.5961 11.6267 9.89634 11.9163 9.16675 11.916Z" fill="white"/>
<path d="M34.8333 25.666C31.8009 25.666 29.3333 28.1337 29.3333 31.166C29.3333 37.0107 34.8333 40.3327 34.8333 40.3327C34.8333 40.3327 40.3333 37.0089 40.3333 31.166C40.3333 28.1337 37.8656 25.666 34.8333 25.666ZM34.8333 33.916C34.472 33.9159 34.1143 33.8446 33.7806 33.7063C33.4469 33.5679 33.1437 33.3652 32.8883 33.1096C32.633 32.8541 32.4304 32.5508 32.2923 32.217C32.1542 31.8832 32.0831 31.5254 32.0833 31.1642C32.0834 30.8029 32.1546 30.4452 32.293 30.1115C32.4314 29.7778 32.6341 29.4746 32.8896 29.2193C33.1452 28.9639 33.4485 28.7614 33.7823 28.6232C34.1161 28.4851 34.4738 28.4141 34.8351 28.4142C35.5647 28.4144 36.2643 28.7045 36.78 29.2206C37.2957 29.7366 37.5853 30.4364 37.5851 31.166C37.5848 31.8956 37.2948 32.5952 36.7787 33.1109C36.2626 33.6267 35.5628 33.9163 34.8333 33.916Z" fill="white"/>
</svg>
