<svg width="40" height="40" viewBox="0 0 40 40" fill="none" xmlns="http://www.w3.org/2000/svg">
<path d="M36.145 10.0136L19.9413 2.35984C19.7849 2.28687 19.6141 2.25002 19.4416 2.25203C19.269 2.25404 19.0991 2.29485 18.9445 2.37145C18.7899 2.44804 18.6545 2.55845 18.5483 2.6945C18.4422 2.83054 18.368 2.98873 18.3313 3.15734C18.3275 3.16984 17.0313 9.19484 15.1063 15.2011C14.45 17.2598 13.715 19.2948 12.9475 21.0823L15.0288 22.0648C17.5288 16.2623 19.5088 8.25234 20.2538 5.04859L34.3375 11.6923C33.905 13.5836 32.7963 18.2211 31.3125 22.8511C30.3538 25.8511 29.2313 28.8473 28.0813 31.0161C26.9688 33.2536 25.6338 34.3536 25.335 34.2061C23.56 34.2436 22.3125 32.6286 21.4725 30.5586C21.1192 29.6479 20.8444 28.7086 20.6513 27.7511C20.4913 26.9786 20.4425 26.4936 20.4388 26.4936C20.4189 26.2982 20.3485 26.1113 20.2345 25.9513C20.1205 25.7914 19.9669 25.6638 19.7888 25.5811L3.58877 17.9311C3.4042 17.844 3.19985 17.8074 2.99653 17.825C2.79321 17.8425 2.59817 17.9136 2.43127 18.0311C2.26534 18.1496 2.1339 18.3101 2.05043 18.4962C1.96697 18.6822 1.93447 18.8871 1.95627 19.0898C1.96627 19.1473 2.20002 21.4023 3.14002 23.7611C3.79252 25.4111 4.89877 27.2836 6.69752 28.2298L22.8925 35.8923L22.9 35.8773C23.6025 36.2461 24.4 36.4861 25.3338 36.4973C27.58 36.3511 28.805 34.4123 30.1063 32.0911C33.8563 24.9786 36.7563 11.3411 36.7788 11.2911C36.8343 11.0386 36.8021 10.7748 36.6876 10.543C36.5731 10.3112 36.383 10.1254 36.1488 10.0161L36.145 10.0136Z" fill="white"/>
<path d="M35.1515 3.63672L10.303 35.1519" stroke="#496045" stroke-width="8"/>
<path d="M35.1515 3.63672L10.303 35.1519" stroke="white" stroke-width="4" stroke-linecap="round"/>
</svg>
