<svg width="66" height="61" viewBox="0 0 66 61" fill="none" xmlns="http://www.w3.org/2000/svg">
<path fill-rule="evenodd" clip-rule="evenodd" d="M20.2654 20.869C19.324 20.5442 18.4612 20.0246 17.8809 19.2737L17.5162 18.7785C17.0638 18.1337 16.3503 17.5355 15.5934 17.0563C14.6016 16.5078 13.8714 16.8033 13.6188 17.2399C13.3587 17.6742 13.1504 18.3794 13.9233 19.2508C14.4894 19.9292 15.2463 20.4083 16.0368 20.7737L16.5922 21.0697C17.4165 21.5255 18.0842 22.2027 18.5715 22.9428L20.2654 20.869Z" fill="white"/>
<path fill-rule="evenodd" clip-rule="evenodd" d="M15.2088 34.2745C14.2778 34.6278 13.2825 34.781 12.356 34.5759L11.7588 34.4291C10.9984 34.2235 10.0673 34.2209 9.17917 34.3376C8.06607 34.5514 7.69447 35.2459 7.78002 35.7429C7.85832 36.2431 8.14992 36.9182 9.30154 37.0926C10.1708 37.2511 11.0589 37.1345 11.9 36.9089L12.5162 36.7806C13.4411 36.6029 14.3875 36.6954 15.2356 36.9518L15.2088 34.2745Z" fill="white"/>
<path fill-rule="evenodd" clip-rule="evenodd" d="M22.1795 48.4041C21.3331 48.9279 20.6064 49.6242 20.2057 50.4837L19.9587 51.047C19.6591 51.7755 19.0947 52.516 18.4617 53.1498C17.6147 53.903 16.8374 53.7752 16.4951 53.4049C16.1458 53.0384 15.7875 52.3962 16.3499 51.3762C16.753 50.59 17.386 49.9562 18.0768 49.4259L18.5536 49.0151C19.257 48.3896 19.7593 47.5828 20.0719 46.7543L22.1795 48.4041Z" fill="white"/>
<path fill-rule="evenodd" clip-rule="evenodd" d="M45.7051 19.3088C46.5515 18.785 47.2782 18.0887 47.6789 17.2292L47.9259 16.6659C48.2255 15.9374 48.7899 15.1969 49.4229 14.5631C50.2699 13.8099 51.0472 13.9377 51.3895 14.308C51.7388 14.6745 52.0971 15.3167 51.5347 16.3367C51.1316 17.1229 50.4986 17.7567 49.8078 18.287L49.331 18.6978C48.6276 19.3233 48.1253 20.1301 47.8127 20.9586L45.7051 19.3088Z" fill="white"/>
<path fill-rule="evenodd" clip-rule="evenodd" d="M31.4728 15.3418C31.7879 14.3971 31.9004 13.3965 31.6577 12.4792L31.4866 11.8884C31.2503 11.137 31.2097 10.2069 31.29 9.3147C31.4583 8.19381 32.1371 7.79421 32.6372 7.85943C33.1402 7.91727 33.8266 8.18111 34.0477 9.32467C34.2416 10.1867 34.1612 11.0789 33.9702 11.9285L33.8671 12.5494C33.7273 13.4807 33.8582 14.4225 34.149 15.2594L31.4728 15.3418Z" fill="white"/>
<path d="M39.9086 52.355C59.2208 53.777 61.9863 37.4615 62.6856 29.6628C62.7023 29.4505 62.6764 29.237 62.6092 29.0349C62.542 28.8328 62.4349 28.6463 62.2943 28.4863C62.1537 28.3263 61.9825 28.1961 61.7907 28.1035C61.599 28.0109 61.3906 27.9577 61.1779 27.947C33.696 26.4303 32.7163 39.7358 31.8309 51.7603L31.3551 58.2224" stroke="white" stroke-width="5" stroke-linecap="round" stroke-linejoin="round"/>
<path d="M31.8308 51.7599C31.8308 51.7599 32.5445 42.0667 45.5877 41.4028" stroke="white" stroke-width="5" stroke-linecap="round" stroke-linejoin="round"/>
<path fill-rule="evenodd" clip-rule="evenodd" d="M44.251 25.5691C40.4884 20.8817 33.8521 19.2619 28.2384 22.0314C21.7474 25.2337 19.0815 33.0916 22.2838 39.5826C23.6785 42.4097 25.9564 44.5111 28.6198 45.7182L28.0723 51.9348C23.3692 50.389 19.2663 47.0277 16.903 42.2372C12.2346 32.7745 16.1211 21.319 25.5838 16.6506C34.7146 12.1459 45.701 15.6067 50.6545 24.3566C49.0147 24.4582 46.8924 24.8049 44.251 25.5691Z" fill="white"/>
</svg>
